SplineFontDB: 3.0
FontName: KeaniaOne-Regular
FullName: Keania One
FamilyName: Keania One
Weight: Book
Copyright: Copyright (c) 2012, Julia Petretta (julia.petretta@googlemail.com), with Reserved Font Name 'Keania'
Version: 1.003
ItalicAngle: 0
UnderlinePosition: -50
UnderlineWidth: 50
Ascent: 800
Descent: 200
sfntRevision: 0x00010083
LayerCount: 2
Layer: 0 1 "Back"  1
Layer: 1 1 "Fore"  0
XUID: [1021 636 2121677805 4129505]
FSType: 0
OS2Version: 3
OS2_WeightWidthSlopeOnly: 0
OS2_UseTypoMetrics: 1
CreationTime: 1350640320
ModificationTime: 1352054462
PfmFamily: 17
TTFWeight: 400
TTFWidth: 5
LineGap: 0
VLineGap: 0
Panose: 2 0 0 0 0 0 0 0 0 0
OS2TypoAscent: 989
OS2TypoAOffset: 0
OS2TypoDescent: -228
OS2TypoDOffset: 0
OS2TypoLinegap: 0
OS2WinAscent: 989
OS2WinAOffset: 0
OS2WinDescent: 228
OS2WinDOffset: 0
HheadAscent: 989
HheadAOffset: 0
HheadDescent: -228
HheadDOffset: 0
OS2SubXSize: 650
OS2SubYSize: 600
OS2SubXOff: 0
OS2SubYOff: 75
OS2SupXSize: 650
OS2SupYSize: 600
OS2SupXOff: 0
OS2SupYOff: 350
OS2StrikeYSize: 50
OS2StrikeYPos: 300
OS2Vendor: 'pyrs'
OS2CodePages: 20000001.00000000
OS2UnicodeRanges: a00000af.4000204a.00000000.00000000
Lookup: 258 0 0 "'kern' Horizontal Kerning in Latin lookup 0"  {"'kern' Horizontal Kerning in Latin lookup 0 subtable"  } ['kern' ('latn' <'dflt' > ) ]
DEI: 91125
TtTable: prep
PUSHW_1
 511
SCANCTRL
PUSHB_1
 4
SCANTYPE
EndTTInstrs
ShortTable: maxp 16
  1
  0
  272
  112
  8
  0
  0
  2
  0
  1
  1
  0
  64
  0
  0
  0
EndShort
LangName: 1033 "" "" "" "JuliaPetretta: Keania One: 2012" "" "Version 1.003" "" "Keania One is a trademark of Julia Petretta." "Julia Petretta" "Julia Petretta" "" "" "" "This Font Software is licensed under the SIL Open Font License, Version 1.1. This license is available with a FAQ at: http://scripts.sil.org/OFL" "http://scripts.sil.org/OFL" 
GaspTable: 1 65535 15 1
Encoding: UnicodeBmp
UnicodeInterp: none
NameList: AGL For New Fonts
DisplaySize: -24
AntiAlias: 1
FitToEm: 1
BeginChars: 65549 272

StartChar: exclam
Encoding: 33 33 5
Width: 307
GlyphClass: 2
Flags: W
LayerCount: 2
Fore
SplineSet
233 260 m 1,0,-1
 118 260 l 2,1,2
 84 260 84 260 78.5 266 c 128,-1,3
 73 272 73 272 73 307 c 2,4,-1
 73 677 l 2,5,6
 73 712 73 712 78.5 718 c 128,-1,7
 84 724 84 724 117 724 c 2,8,-1
 233 724 l 1,9,-1
 233 260 l 1,0,-1
230 10 m 2,10,11
 230 -2 230 -2 216 -2 c 0,12,13
 154 -2 154 -2 118.5 -2 c 128,-1,14
 83 -2 83 -2 81 0 c 128,-1,15
 79 2 79 2 78 10 c 1,16,-1
 78 139 l 1,17,18
 79 147 79 147 81 149 c 128,-1,19
 83 151 83 151 91 151 c 0,20,21
 154 151 154 151 216 151 c 0,22,23
 230 151 230 151 230 139 c 2,24,-1
 230 10 l 2,10,11
EndSplineSet
EndChar

StartChar: quotedbl
Encoding: 34 34 6
Width: 403
GlyphClass: 2
Flags: W
LayerCount: 2
Fore
SplineSet
349 480 m 1,0,-1
 224 480 l 1,1,-1
 224 666 l 2,2,3
 224 724 224 724 236.5 743.5 c 128,-1,4
 249 763 249 763 293 763 c 2,5,-1
 349 763 l 1,6,-1
 349 480 l 1,0,-1
178 480 m 1,7,-1
 53 480 l 1,8,-1
 53 666 l 2,9,10
 53 724 53 724 65.5 743.5 c 128,-1,11
 78 763 78 763 122 763 c 2,12,-1
 178 763 l 1,13,-1
 178 480 l 1,7,-1
EndSplineSet
EndChar

StartChar: numbersign
Encoding: 35 35 7
Width: 688
GlyphClass: 2
Flags: W
LayerCount: 2
Fore
SplineSet
663 470 m 1,0,-1
 663 400 l 1,1,-1
 529 400 l 1,2,-1
 462 223 l 1,3,-1
 588 223 l 1,4,-1
 588 153 l 1,5,-1
 435 153 l 1,6,-1
 325 -140 l 1,7,-1
 245 -140 l 1,8,-1
 355 153 l 1,9,-1
 215 153 l 1,10,-1
 105 -140 l 1,11,-1
 25 -140 l 1,12,-1
 135 153 l 1,13,-1
 37 153 l 1,14,-1
 37 223 l 1,15,-1
 162 223 l 1,16,-1
 229 400 l 1,17,-1
 112 400 l 1,18,-1
 112 470 l 1,19,-1
 255 470 l 1,20,-1
 351 723 l 1,21,-1
 431 723 l 1,22,-1
 335 470 l 1,23,-1
 475 470 l 1,24,-1
 571 723 l 1,25,-1
 651 723 l 1,26,-1
 555 470 l 1,27,-1
 663 470 l 1,0,-1
242 223 m 1,28,-1
 382 223 l 1,29,-1
 449 400 l 1,30,-1
 309 400 l 1,31,-1
 242 223 l 1,28,-1
EndSplineSet
EndChar

StartChar: dollar
Encoding: 36 36 8
Width: 591
GlyphClass: 2
Flags: W
LayerCount: 2
Fore
SplineSet
218 723 m 1,0,-1
 218 436 l 2,1,2
 218 420 218 420 225.5 413 c 128,-1,3
 233 406 233 406 259 406 c 2,4,-1
 333 406 l 1,5,-1
 333 311 l 1,6,-1
 206 311 l 2,7,8
 149 311 149 311 114.5 323 c 128,-1,9
 80 335 80 335 63.5 365.5 c 128,-1,10
 47 396 47 396 42.5 431 c 128,-1,11
 38 466 38 466 38 525.5 c 128,-1,12
 38 585 38 585 42.5 616 c 128,-1,13
 47 647 47 647 63.5 674 c 128,-1,14
 80 701 80 701 114.5 712 c 128,-1,15
 149 723 149 723 206 723 c 2,16,-1
 218 723 l 1,0,-1
56 223 m 2,17,-1
 182 223 l 2,18,19
 196 223 196 223 199 219 c 128,-1,20
 202 215 202 215 202 202 c 2,21,-1
 202 124 l 2,22,23
 202 108 202 108 206.5 101.5 c 128,-1,24
 211 95 211 95 229 95 c 2,25,-1
 258 95 l 1,26,-1
 258 180 l 1,27,-1
 338 180 l 1,28,-1
 338 -223 l 1,29,-1
 258 -223 l 1,30,-1
 258 0 l 1,31,-1
 190 0 l 2,32,33
 117 0 117 0 79.5 25 c 128,-1,34
 42 50 42 50 42 112 c 2,35,-1
 42 202 l 2,36,37
 42 223 42 223 56 223 c 2,17,-1
338 911 m 1,38,-1
 338 723 l 1,39,-1
 385 723 l 2,40,41
 458 723 458 723 495.5 698 c 128,-1,42
 533 673 533 673 533 611 c 2,43,-1
 533 521 l 2,44,45
 533 500 533 500 519 500 c 2,46,-1
 393 500 l 2,47,48
 379 500 379 500 376 504 c 128,-1,49
 373 508 373 508 373 521 c 2,50,-1
 373 599 l 2,51,52
 373 615 373 615 368.5 621.5 c 128,-1,53
 364 628 364 628 346 628 c 2,54,-1
 338 628 l 1,55,-1
 338 498 l 1,56,-1
 258 498 l 1,57,-1
 258 911 l 1,58,-1
 338 911 l 1,38,-1
389 405 m 2,59,60
 432 405 432 405 455.5 403.5 c 128,-1,61
 479 402 479 402 501 394.5 c 128,-1,62
 523 387 523 387 531.5 377 c 128,-1,63
 540 367 540 367 547.5 342.5 c 128,-1,64
 555 318 555 318 556 290 c 128,-1,65
 557 262 557 262 557 210 c 128,-1,66
 557 158 557 158 556 127.5 c 128,-1,67
 555 97 555 97 547.5 69.5 c 128,-1,68
 540 42 540 42 531.5 31 c 128,-1,69
 523 20 523 20 501 11.5 c 128,-1,70
 479 3 479 3 455.5 1.5 c 128,-1,71
 432 0 432 0 389 0 c 2,72,-1
 378 0 l 1,73,-1
 377 405 l 1,74,-1
 389 405 l 2,59,60
EndSplineSet
EndChar

StartChar: percent
Encoding: 37 37 9
Width: 646
GlyphClass: 2
Flags: W
LayerCount: 2
Fore
SplineSet
176 0 m 1,0,-1
 96 0 l 1,1,-1
 468 723 l 1,2,-1
 548 723 l 1,3,-1
 176 0 l 1,0,-1
484 279 m 1,4,-1
 468 279 l 2,5,6
 450 279 450 279 450 266 c 2,7,-1
 450 55 l 2,8,9
 450 42 450 42 468 42 c 2,10,-1
 484 42 l 1,11,-1
 484 0 l 1,12,-1
 440 0 l 2,13,14
 397 0 397 0 386 31.5 c 128,-1,15
 375 63 375 63 375 160 c 2,16,-1
 375 162 l 2,17,18
 375 263 375 263 387.5 292.5 c 128,-1,19
 400 322 400 322 450 322 c 2,20,-1
 484 322 l 1,21,-1
 484 279 l 1,4,-1
145 680 m 1,22,-1
 129 680 l 2,23,24
 111 680 111 680 111 667 c 2,25,-1
 111 456 l 2,26,27
 111 443 111 443 129 443 c 2,28,-1
 145 443 l 1,29,-1
 145 401 l 1,30,-1
 101 401 l 2,31,32
 58 401 58 401 47 432.5 c 128,-1,33
 36 464 36 464 36 561 c 2,34,-1
 36 563 l 2,35,36
 36 664 36 664 48.5 693.5 c 128,-1,37
 61 723 61 723 111 723 c 2,38,-1
 145 723 l 1,39,-1
 145 680 l 1,22,-1
502 322 m 1,40,-1
 536 322 l 2,41,42
 585 322 585 322 597.5 292 c 128,-1,43
 610 262 610 262 610 162 c 2,44,-1
 610 160 l 2,45,46
 610 63 610 63 599 31.5 c 128,-1,47
 588 0 588 0 546 0 c 2,48,-1
 502 0 l 1,49,-1
 502 42 l 1,50,-1
 516 42 l 2,51,52
 535 42 535 42 535 55 c 2,53,-1
 535 266 l 2,54,55
 535 279 535 279 516 279 c 2,56,-1
 502 279 l 1,57,-1
 502 322 l 1,40,-1
163 723 m 1,58,-1
 197 723 l 2,59,60
 246 723 246 723 258.5 693 c 128,-1,61
 271 663 271 663 271 563 c 2,62,-1
 271 561 l 2,63,64
 271 464 271 464 260 432.5 c 128,-1,65
 249 401 249 401 207 401 c 2,66,-1
 163 401 l 1,67,-1
 163 443 l 1,68,-1
 177 443 l 2,69,70
 196 443 196 443 196 456 c 2,71,-1
 196 667 l 2,72,73
 196 680 196 680 177 680 c 2,74,-1
 163 680 l 1,75,-1
 163 723 l 1,58,-1
EndSplineSet
EndChar

StartChar: ampersand
Encoding: 38 38 10
Width: 614
GlyphClass: 2
Flags: W
LayerCount: 2
Fore
SplineSet
168 723 m 2,0,-1
 327 723 l 2,1,2
 436 723 436 723 436 616 c 2,3,-1
 436 531 l 2,4,5
 436 424 436 424 327 424 c 2,6,-1
 286 424 l 1,7,-1
 286 618 l 2,8,9
 286 635 286 635 281 641.5 c 128,-1,10
 276 648 276 648 255 648 c 2,11,-1
 240 648 l 2,12,13
 217 648 217 648 212 639 c 1,14,15
 209 630 209 630 209 618 c 2,16,-1
 209 364 l 1,17,-1
 150 364 l 1,18,19
 63 371 63 371 59 461 c 1,20,-1
 59 616 l 2,21,22
 59 670 59 670 85 696 c 1,23,-1
 94 703 l 1,24,25
 122 723 122 723 168 723 c 2,0,-1
423 391 m 2,26,-1
 499 391 l 1,27,28
 505 390 505 390 505 383 c 2,29,-1
 505 322 l 2,30,31
 505 315 505 315 497 315 c 2,32,-1
 476 315 l 2,33,34
 434 315 434 315 434 278 c 2,35,-1
 434 0 l 1,36,-1
 284 0 l 1,37,-1
 284 272 l 2,38,39
 284 337 284 337 319.5 364 c 128,-1,40
 355 391 355 391 423 391 c 2,26,-1
209 340 m 1,41,-1
 209 105 l 2,42,43
 209 75 209 75 250 75 c 2,44,-1
 254 75 l 1,45,-1
 254 0 l 1,46,-1
 168 0 l 2,47,48
 59 0 59 0 59 107 c 2,49,-1
 59 233 l 2,50,51
 59 340 59 340 168 340 c 2,52,-1
 209 340 l 1,41,-1
525 173 m 2,53,-1
 581 173 l 2,54,55
 595 173 595 173 595 152 c 2,56,-1
 595 112 l 2,57,58
 595 48 595 48 578 24 c 128,-1,59
 561 0 561 0 517 0 c 2,60,-1
 461 0 l 1,61,-1
 461 75 l 1,62,-1
 489 75 l 2,63,64
 499 75 499 75 502 81.5 c 128,-1,65
 505 88 505 88 505 104 c 2,66,-1
 505 152 l 2,67,68
 505 165 505 165 508 169 c 128,-1,69
 511 173 511 173 525 173 c 2,53,-1
EndSplineSet
EndChar

StartChar: quotesingle
Encoding: 39 39 11
Width: 232
GlyphClass: 2
Flags: W
LayerCount: 2
Fore
SplineSet
178 480 m 1,0,-1
 53 480 l 1,1,-1
 53 666 l 2,2,3
 53 724 53 724 65.5 743.5 c 128,-1,4
 78 763 78 763 122 763 c 2,5,-1
 178 763 l 1,6,-1
 178 480 l 1,0,-1
EndSplineSet
EndChar

StartChar: parenleft
Encoding: 40 40 12
Width: 341
GlyphClass: 2
Flags: W
LayerCount: 2
Fore
SplineSet
310 724 m 1,0,-1
 257 724 l 2,1,2
 239 724 239 724 234.5 717.5 c 128,-1,3
 230 711 230 711 230 695 c 2,4,-1
 230 14 l 2,5,6
 230 -2 230 -2 234.5 -8.5 c 128,-1,7
 239 -15 239 -15 257 -15 c 2,8,-1
 310 -15 l 1,9,-1
 310 -110 l 1,10,-1
 158 -110 l 2,11,12
 70 -110 70 -110 70 -20 c 2,13,-1
 70 729 l 2,14,15
 70 819 70 819 158 819 c 2,16,-1
 310 819 l 1,17,-1
 310 724 l 1,0,-1
EndSplineSet
EndChar

StartChar: parenright
Encoding: 41 41 13
Width: 341
GlyphClass: 2
Flags: W
LayerCount: 2
Fore
SplineSet
31 819 m 1,0,-1
 183 819 l 2,1,2
 271 819 271 819 271 729 c 2,3,-1
 271 -20 l 2,4,5
 271 -110 271 -110 183 -110 c 2,6,-1
 31 -110 l 1,7,-1
 31 -15 l 1,8,-1
 84 -15 l 2,9,10
 102 -15 102 -15 106.5 -8.5 c 128,-1,11
 111 -2 111 -2 111 14 c 2,12,-1
 111 695 l 2,13,14
 111 711 111 711 106.5 717.5 c 128,-1,15
 102 724 102 724 84 724 c 2,16,-1
 31 724 l 1,17,-1
 31 819 l 1,0,-1
EndSplineSet
EndChar

StartChar: asterisk
Encoding: 42 42 14
Width: 444
GlyphClass: 2
Flags: W
LayerCount: 2
Fore
SplineSet
381 618 m 0,0,1
 399 618 399 618 406 596 c 2,2,-1
 418 559 l 1,3,-1
 280 508 l 1,4,-1
 255 574 l 1,5,-1
 185 574 l 1,6,-1
 185 691 l 2,7,8
 185 723 185 723 216 723 c 2,9,-1
 255 723 l 1,10,-1
 255 574 l 1,11,-1
 365 615 l 2,12,13
 374 618 374 618 381 618 c 0,0,1
29 571 m 0,14,15
 29 577 29 577 30 577 c 128,-1,16
 31 577 31 577 32 574 c 1,17,-1
 45 624 l 1,18,-1
 185 574 l 1,19,-1
 162 507 l 1,20,-1
 53 547 l 2,21,22
 29 555 29 555 29 571 c 0,14,15
346 413 m 2,23,24
 353 402 353 402 353 391 c 128,-1,25
 353 380 353 380 338 368 c 1,26,-1
 305 347 l 1,27,-1
 222 469 l 1,28,-1
 280 508 l 1,29,-1
 346 413 l 2,23,24
156 372 m 2,30,31
 144 354 144 354 135 354 c 128,-1,32
 126 354 126 354 114 361 c 1,33,-1
 82 384 l 1,34,-1
 162 507 l 1,35,-1
 221 470 l 1,36,-1
 156 372 l 2,30,31
EndSplineSet
EndChar

StartChar: plus
Encoding: 43 43 15
Width: 609
GlyphClass: 2
Flags: W
LayerCount: 2
Fore
SplineSet
361 339 m 1,0,-1
 584 339 l 1,1,-1
 584 239 l 1,2,-1
 361 239 l 1,3,-1
 361 0 l 1,4,-1
 261 0 l 1,5,-1
 261 239 l 1,6,-1
 25 239 l 1,7,-1
 25 339 l 1,8,-1
 261 339 l 1,9,-1
 261 559 l 1,10,-1
 361 559 l 1,11,-1
 361 339 l 1,0,-1
EndSplineSet
EndChar

StartChar: comma
Encoding: 44 44 16
Width: 284
GlyphClass: 2
Flags: W
LayerCount: 2
Fore
SplineSet
232 -150 m 2,0,1
 232 -162 232 -162 218 -162 c 0,2,3
 180 -162 180 -162 142 -162 c 1,4,-1
 120 -2 l 1,5,-1
 66 -2 l 2,6,7
 58 -2 58 -2 56 0 c 128,-1,8
 54 2 54 2 53 10 c 1,9,-1
 53 139 l 1,10,11
 54 147 54 147 56 149 c 128,-1,12
 58 151 58 151 66 151 c 0,13,14
 142 151 142 151 218 151 c 0,15,16
 232 151 232 151 232 139 c 2,17,-1
 232 -150 l 2,0,1
EndSplineSet
EndChar

StartChar: hyphen
Encoding: 45 45 17
Width: 489
GlyphClass: 2
Flags: W
LayerCount: 2
Fore
SplineSet
431 253 m 1,0,-1
 58 253 l 1,1,-1
 58 363 l 1,2,-1
 431 363 l 1,3,-1
 431 253 l 1,0,-1
EndSplineSet
EndChar

StartChar: period
Encoding: 46 46 18
Width: 257
GlyphClass: 2
Flags: W
LayerCount: 2
Fore
SplineSet
205 12 m 2,0,1
 205 0 205 0 191 0 c 0,2,3
 128 0 128 0 93 0 c 128,-1,4
 58 0 58 0 56 2 c 128,-1,5
 54 4 54 4 53 12 c 1,6,-1
 53 141 l 1,7,8
 54 149 54 149 56 151 c 128,-1,9
 58 153 58 153 66 153 c 0,10,11
 128 153 128 153 191 153 c 0,12,13
 205 153 205 153 205 141 c 2,14,-1
 205 12 l 2,0,1
EndSplineSet
EndChar

StartChar: slash
Encoding: 47 47 19
Width: 442
GlyphClass: 2
Flags: W
LayerCount: 2
Fore
SplineSet
99 -140 m 1,0,-1
 19 -140 l 1,1,-1
 345 723 l 1,2,-1
 425 723 l 1,3,-1
 99 -140 l 1,0,-1
EndSplineSet
EndChar

StartChar: zero
Encoding: 48 48 20
Width: 656
GlyphClass: 2
Flags: W
LayerCount: 2
Fore
SplineSet
348 723 m 1,0,-1
 425 723 l 2,1,2
 465 723 465 723 491.5 717 c 128,-1,3
 518 711 518 711 537.5 693 c 128,-1,4
 557 675 557 675 567.5 652.5 c 128,-1,5
 578 630 578 630 584 584 c 0,6,7
 593 515 593 515 593 363 c 2,8,-1
 593 360 l 2,9,10
 593 131 593 131 570 76 c 1,11,12
 547 18 547 18 504 6 c 0,13,14
 481 0 481 0 447 0 c 2,15,-1
 348 0 l 1,16,-1
 348 95 l 1,17,-1
 382 95 l 2,18,19
 408 95 408 95 415.5 102 c 128,-1,20
 423 109 423 109 423 124 c 2,21,-1
 423 599 l 2,22,23
 423 614 423 614 415.5 621 c 128,-1,24
 408 628 408 628 382 628 c 2,25,-1
 348 628 l 1,26,-1
 348 723 l 1,0,-1
308 628 m 1,27,-1
 274 628 l 2,28,29
 248 628 248 628 240.5 621 c 128,-1,30
 233 614 233 614 233 599 c 2,31,-1
 233 124 l 2,32,33
 233 109 233 109 240.5 102 c 128,-1,34
 248 95 248 95 274 95 c 2,35,-1
 308 95 l 1,36,-1
 308 0 l 1,37,-1
 209 0 l 2,38,39
 134 0 134 0 100 46 c 0,40,41
 72 83 72 83 66 216 c 0,42,43
 63 268 63 268 63 360 c 2,44,-1
 63 363 l 2,45,46
 63 598 63 598 88 652 c 0,47,48
 99 675 99 675 118.5 693 c 128,-1,49
 138 711 138 711 164.5 717 c 128,-1,50
 191 723 191 723 231 723 c 2,51,-1
 308 723 l 1,52,-1
 308 628 l 1,27,-1
EndSplineSet
EndChar

StartChar: one
Encoding: 49 49 21
Width: 493
GlyphClass: 2
Flags: W
LayerCount: 2
Fore
SplineSet
209 723 m 1,0,-1
 314 723 l 2,1,2
 348 723 348 723 358.5 712 c 128,-1,3
 369 701 369 701 369 666 c 2,4,-1
 369 115 l 1,5,-1
 450 115 l 2,6,7
 465 115 465 115 470 111 c 128,-1,8
 475 107 475 107 475 96 c 2,9,-1
 475 0 l 1,10,-1
 245 0 l 2,11,12
 229 0 229 0 219 10.5 c 128,-1,13
 209 21 209 21 209 39 c 2,14,-1
 209 723 l 1,0,-1
179 0 m 1,15,-1
 34 0 l 1,16,-1
 34 96 l 2,17,18
 34 107 34 107 39 111 c 128,-1,19
 44 115 44 115 59 115 c 2,20,-1
 179 115 l 1,21,-1
 179 0 l 1,15,-1
179 608 m 1,22,-1
 69 608 l 2,23,24
 44 608 44 608 44 636 c 2,25,-1
 44 723 l 1,26,-1
 179 723 l 1,27,-1
 179 608 l 1,22,-1
EndSplineSet
EndChar

StartChar: two
Encoding: 50 50 22
Width: 602
GlyphClass: 2
Flags: W
LayerCount: 2
Fore
SplineSet
383 723 m 1,0,-1
 458 723 l 2,1,2
 543 723 543 723 543 626 c 2,3,-1
 543 372 l 2,4,5
 543 282 543 282 455 282 c 2,6,-1
 317 282 l 1,7,-1
 317 377 l 1,8,-1
 356 377 l 2,9,10
 374 377 374 377 378.5 383.5 c 128,-1,11
 383 390 383 390 383 406 c 2,12,-1
 383 723 l 1,0,-1
277 282 m 1,13,-1
 249 282 l 2,14,15
 231 282 231 282 226.5 275.5 c 128,-1,16
 222 269 222 269 222 253 c 2,17,-1
 222 0 l 1,18,-1
 137 0 l 2,19,20
 88 0 88 0 75 16 c 128,-1,21
 62 32 62 32 62 96 c 2,22,-1
 62 307 l 2,23,24
 62 351 62 351 77 364 c 128,-1,25
 92 377 92 377 140 377 c 2,26,-1
 277 377 l 1,27,-1
 277 282 l 1,13,-1
518 115 m 2,28,29
 543 115 543 115 543 87 c 2,30,-1
 543 0 l 1,31,-1
 263 0 l 1,32,-1
 262 115 l 1,33,-1
 518 115 l 2,28,29
343 628 m 1,34,-1
 248 628 l 2,35,36
 227 628 227 628 222 621.5 c 128,-1,37
 217 615 217 615 217 598 c 2,38,-1
 217 487 l 1,39,-1
 107 487 l 2,40,41
 70 487 70 487 63.5 493 c 128,-1,42
 57 499 57 499 57 530 c 2,43,-1
 57 616 l 2,44,45
 57 671 57 671 73.5 697 c 128,-1,46
 90 723 90 723 146 723 c 2,47,-1
 343 723 l 1,48,-1
 343 628 l 1,34,-1
EndSplineSet
EndChar

StartChar: three
Encoding: 51 51 23
Width: 611
GlyphClass: 2
Flags: W
LayerCount: 2
Fore
SplineSet
381 723 m 1,0,-1
 466 723 l 2,1,2
 507 723 507 723 524 705.5 c 128,-1,3
 541 688 541 688 541 645 c 2,4,-1
 541 462 l 2,5,6
 541 416 541 416 517 393 c 1,7,8
 542 371 542 371 542 314 c 2,9,-1
 542 86 l 2,10,11
 542 30 542 30 526 15 c 128,-1,12
 510 0 510 0 457 0 c 2,13,-1
 382 0 l 1,14,-1
 382 290 l 2,15,16
 382 306 382 306 377.5 312.5 c 128,-1,17
 373 319 373 319 355 319 c 2,18,-1
 247 319 l 1,19,-1
 247 414 l 1,20,-1
 321 414 l 1,21,-1
 354 415 l 2,22,23
 377 415 377 415 380 425 c 0,24,25
 381 428 381 428 381 434 c 2,26,-1
 381 723 l 1,0,-1
342 628 m 1,27,-1
 247 628 l 2,28,29
 226 628 226 628 221 621.5 c 128,-1,30
 216 615 216 615 216 598 c 2,31,-1
 216 487 l 1,32,-1
 106 487 l 2,33,34
 69 487 69 487 62.5 493 c 128,-1,35
 56 499 56 499 56 530 c 2,36,-1
 56 616 l 2,37,38
 56 671 56 671 72.5 697 c 128,-1,39
 89 723 89 723 145 723 c 2,40,-1
 342 723 l 1,41,-1
 342 628 l 1,27,-1
216 236 m 1,42,-1
 216 125 l 2,43,44
 216 108 216 108 221 101.5 c 128,-1,45
 226 95 226 95 247 95 c 2,46,-1
 342 95 l 1,47,-1
 342 0 l 1,48,-1
 145 0 l 2,49,50
 89 0 89 0 72.5 26 c 128,-1,51
 56 52 56 52 56 107 c 2,52,-1
 56 193 l 2,53,54
 56 224 56 224 62.5 230 c 128,-1,55
 69 236 69 236 106 236 c 2,56,-1
 216 236 l 1,42,-1
EndSplineSet
EndChar

StartChar: four
Encoding: 52 52 24
Width: 585
GlyphClass: 2
Flags: W
LayerCount: 2
Fore
SplineSet
316 723 m 1,0,-1
 421 723 l 2,1,2
 455 723 455 723 465.5 712 c 128,-1,3
 476 701 476 701 476 666 c 2,4,-1
 476 394 l 1,5,-1
 537 394 l 2,6,7
 552 394 552 394 557 390.5 c 128,-1,8
 562 387 562 387 562 376 c 2,9,-1
 562 299 l 1,10,-1
 476 299 l 1,11,-1
 476 0 l 1,12,-1
 352 0 l 2,13,14
 336 0 336 0 326 10.5 c 128,-1,15
 316 21 316 21 316 39 c 2,16,-1
 316 723 l 1,0,-1
191 723 m 1,17,-1
 191 423 l 2,18,19
 191 408 191 408 197.5 401 c 128,-1,20
 204 394 204 394 228 394 c 2,21,-1
 276 394 l 1,22,-1
 276 299 l 1,23,-1
 109 299 l 2,24,25
 68 299 68 299 54.5 312 c 128,-1,26
 41 325 41 325 41 369 c 2,27,-1
 41 646 l 2,28,29
 41 700 41 700 57 711.5 c 128,-1,30
 73 723 73 723 126 723 c 2,31,-1
 191 723 l 1,17,-1
EndSplineSet
EndChar

StartChar: five
Encoding: 53 53 25
Width: 612
GlyphClass: 2
Flags: W
LayerCount: 2
Fore
SplineSet
468 -1 m 0,0,1
 467 -1 467 -1 465 -1 c 2,2,-1
 390 0 l 1,3,-1
 392 312 l 2,4,5
 392 328 392 328 387.5 334.5 c 128,-1,6
 383 341 383 341 365 341 c 2,7,-1
 323 341 l 1,8,-1
 323 436 l 1,9,-1
 465 435 l 2,10,11
 552 434 552 434 552 345 c 2,12,-1
 551 96 l 2,13,14
 551 47 551 47 529 23 c 128,-1,15
 507 -1 507 -1 468 -1 c 0,0,1
214 236 m 1,16,-1
 214 125 l 1,17,18
 213 109 213 109 218.5 102 c 128,-1,19
 224 95 224 95 245 95 c 2,20,-1
 350 95 l 1,21,-1
 350 0 l 1,22,-1
 143 0 l 2,23,24
 87 0 87 0 70.5 26 c 128,-1,25
 54 52 54 52 54 107 c 2,26,-1
 54 193 l 2,27,28
 54 224 54 224 60.5 230 c 128,-1,29
 67 236 67 236 104 236 c 2,30,-1
 214 236 l 1,16,-1
255 436 m 2,31,-1
 282 436 l 1,32,-1
 282 341 l 1,33,-1
 135 342 l 2,34,35
 100 342 100 342 84 356.5 c 128,-1,36
 68 371 68 371 68 413 c 2,37,-1
 69 649 l 2,38,39
 69 689 69 689 78 699.5 c 128,-1,40
 87 710 87 710 92 714.5 c 128,-1,41
 97 719 97 719 112 721 c 128,-1,42
 127 723 127 723 134 723 c 2,43,-1
 230 723 l 1,44,-1
 228 466 l 2,45,46
 228 450 228 450 232.5 443 c 128,-1,47
 237 436 237 436 255 436 c 2,31,-1
554 723 m 1,48,-1
 554 636 l 2,49,50
 554 608 554 608 529 608 c 2,51,-1
 270 607 l 1,52,-1
 270 723 l 1,53,-1
 554 723 l 1,48,-1
EndSplineSet
EndChar

StartChar: six
Encoding: 54 54 26
Width: 619
GlyphClass: 2
Flags: W
LayerCount: 2
Fore
SplineSet
230 723 m 1,0,-1
 230 125 l 2,1,2
 230 108 230 108 235 101.5 c 128,-1,3
 240 95 240 95 261 95 c 2,4,-1
 365 95 l 1,5,-1
 365 0 l 1,6,-1
 164 0 l 2,7,8
 108 0 108 0 89 25 c 128,-1,9
 70 50 70 50 70 102 c 2,10,-1
 70 674 l 2,11,12
 70 723 70 723 132 723 c 2,13,-1
 230 723 l 1,0,-1
270 408 m 1,14,-1
 457 408 l 2,15,16
 555 408 555 408 555 318 c 2,17,-1
 555 97 l 2,18,19
 555 42 555 42 533 21 c 128,-1,20
 511 0 511 0 460 0 c 2,21,-1
 405 0 l 1,22,-1
 405 284 l 2,23,24
 405 300 405 300 400.5 306.5 c 128,-1,25
 396 313 396 313 378 313 c 2,26,-1
 270 313 l 1,27,-1
 270 408 l 1,14,-1
268 723 m 1,28,-1
 475 723 l 2,29,30
 531 723 531 723 547 697.5 c 128,-1,31
 563 672 563 672 563 616 c 2,32,-1
 563 540 l 2,33,34
 563 509 563 509 550 498 c 128,-1,35
 537 487 537 487 493 487 c 2,36,-1
 404 487 l 1,37,-1
 405 598 l 2,38,39
 405 609 405 609 404 614 c 0,40,41
 400 627 400 627 372 627 c 2,42,-1
 268 627 l 1,43,-1
 268 723 l 1,28,-1
EndSplineSet
EndChar

StartChar: seven
Encoding: 55 55 27
Width: 554
GlyphClass: 2
Flags: W
LayerCount: 2
Fore
SplineSet
257 723 m 1,0,-1
 362 723 l 2,1,2
 396 723 396 723 406.5 712 c 128,-1,3
 417 701 417 701 417 666 c 2,4,-1
 417 437 l 1,5,-1
 508 437 l 2,6,7
 523 437 523 437 528 433.5 c 128,-1,8
 533 430 533 430 533 419 c 2,9,-1
 533 322 l 1,10,-1
 417 322 l 1,11,-1
 417 0 l 1,12,-1
 293 0 l 2,13,14
 277 0 277 0 267 10.5 c 128,-1,15
 257 21 257 21 257 39 c 2,16,-1
 257 723 l 1,0,-1
227 607 m 1,17,-1
 47 607 l 2,18,19
 22 607 22 607 22 635 c 2,20,-1
 22 723 l 1,21,-1
 227 723 l 1,22,-1
 227 607 l 1,17,-1
227 322 m 1,23,-1
 87 322 l 2,24,25
 62 322 62 322 62 350 c 2,26,-1
 62 439 l 1,27,-1
 227 439 l 1,28,-1
 227 322 l 1,23,-1
EndSplineSet
EndChar

StartChar: eight
Encoding: 56 56 28
Width: 597
GlyphClass: 2
Flags: W
LayerCount: 2
Fore
SplineSet
316 380 m 1,0,-1
 448 380 l 2,1,2
 536 380 536 380 536 290 c 2,3,-1
 536 97 l 2,4,5
 536 0 536 0 451 0 c 2,6,-1
 376 0 l 1,7,-1
 376 256 l 2,8,9
 376 272 376 272 371.5 278.5 c 128,-1,10
 367 285 367 285 349 285 c 2,11,-1
 316 285 l 1,12,-1
 316 380 l 1,0,-1
240 295 m 1,13,-1
 240 125 l 2,14,15
 240 113 240 113 241 108 c 0,16,17
 244 95 244 95 271 95 c 2,18,-1
 336 95 l 1,19,-1
 336 0 l 1,20,-1
 149 0 l 2,21,22
 93 0 93 0 76.5 26 c 128,-1,23
 60 52 60 52 60 107 c 2,24,-1
 60 222 l 2,25,26
 60 257 60 257 74 276 c 128,-1,27
 88 295 88 295 130 295 c 2,28,-1
 240 295 l 1,13,-1
221 723 m 1,29,-1
 221 479 l 2,30,31
 221 463 221 463 225.5 456.5 c 128,-1,32
 230 450 230 450 248 450 c 2,33,-1
 280 450 l 1,34,-1
 280 355 l 1,35,-1
 159 355 l 2,36,37
 61 355 61 355 61 445 c 2,38,-1
 61 626 l 2,39,40
 61 681 61 681 83 702 c 128,-1,41
 105 723 105 723 156 723 c 2,42,-1
 221 723 l 1,29,-1
261 723 m 1,43,-1
 442 723 l 2,44,45
 498 723 498 723 517 698 c 128,-1,46
 536 673 536 673 536 621 c 2,47,-1
 536 479 l 2,48,49
 536 430 536 430 474 430 c 2,50,-1
 376 430 l 1,51,-1
 376 598 l 2,52,53
 376 615 376 615 371 621.5 c 128,-1,54
 366 628 366 628 345 628 c 2,55,-1
 261 628 l 1,56,-1
 261 723 l 1,43,-1
EndSplineSet
EndChar

StartChar: nine
Encoding: 57 57 29
Width: 614
GlyphClass: 2
Flags: W
LayerCount: 2
Fore
SplineSet
249 722 m 1,0,-1
 450 722 l 2,1,2
 506 722 506 722 525 696.5 c 128,-1,3
 544 671 544 671 544 619 c 2,4,-1
 544 47 l 2,5,6
 544 -2 544 -2 482 -2 c 2,7,-1
 384 -2 l 1,8,-1
 384 596 l 2,9,10
 384 613 384 613 379 619.5 c 128,-1,11
 374 626 374 626 353 626 c 2,12,-1
 249 626 l 1,13,-1
 249 722 l 1,0,-1
221 220 m 1,14,-1
 221 125 l 2,15,16
 221 108 221 108 224.5 101.5 c 128,-1,17
 228 95 228 95 242 95 c 2,18,-1
 344 95 l 1,19,-1
 344 0 l 1,20,-1
 150 0 l 2,21,22
 94 0 94 0 77.5 26 c 128,-1,23
 61 52 61 52 61 107 c 2,24,-1
 61 177 l 2,25,26
 61 208 61 208 67.5 214 c 128,-1,27
 74 220 74 220 111 220 c 2,28,-1
 221 220 l 1,14,-1
209 722 m 1,29,-1
 209 437 l 2,30,31
 209 421 209 421 213.5 414.5 c 128,-1,32
 218 408 218 408 236 408 c 2,33,-1
 344 408 l 1,34,-1
 344 313 l 1,35,-1
 157 313 l 2,36,37
 59 313 59 313 59 403 c 2,38,-1
 59 624 l 2,39,40
 59 679 59 679 81 700.5 c 128,-1,41
 103 722 103 722 154 722 c 2,42,-1
 209 722 l 1,29,-1
EndSplineSet
EndChar

StartChar: colon
Encoding: 58 58 30
Width: 269
GlyphClass: 2
Flags: W
LayerCount: 2
Fore
SplineSet
211 360 m 2,0,1
 211 348 211 348 197 348 c 0,2,3
 134 348 134 348 99 348 c 128,-1,4
 64 348 64 348 62 350 c 128,-1,5
 60 352 60 352 59 360 c 1,6,-1
 59 489 l 1,7,8
 60 497 60 497 62 499 c 128,-1,9
 64 501 64 501 72 501 c 0,10,11
 134 501 134 501 197 501 c 0,12,13
 211 501 211 501 211 489 c 2,14,-1
 211 360 l 2,0,1
211 12 m 2,15,16
 211 0 211 0 197 0 c 0,17,18
 134 0 134 0 99 0 c 128,-1,19
 64 0 64 0 62 2 c 128,-1,20
 60 4 60 4 59 12 c 1,21,-1
 59 141 l 1,22,23
 60 149 60 149 62 151 c 128,-1,24
 64 153 64 153 72 153 c 0,25,26
 134 153 134 153 197 153 c 0,27,28
 211 153 211 153 211 141 c 2,29,-1
 211 12 l 2,15,16
EndSplineSet
EndChar

StartChar: semicolon
Encoding: 59 59 31
Width: 288
GlyphClass: 2
Flags: W
LayerCount: 2
Fore
SplineSet
90 150 m 2,0,-1
 203 150 l 2,1,2
 228 150 228 150 228 122 c 2,3,-1
 228 -193 l 1,4,-1
 170 -193 l 2,5,6
 113 -193 113 -193 113 -141 c 2,7,-1
 113 0 l 1,8,-1
 63 0 l 1,9,-1
 63 120 l 2,10,11
 63 136 63 136 68 143 c 128,-1,12
 73 150 73 150 90 150 c 2,0,-1
215 359 m 2,13,14
 215 347 215 347 201 347 c 0,15,16
 138 347 138 347 103 347 c 128,-1,17
 68 347 68 347 66 349 c 128,-1,18
 64 351 64 351 63 359 c 1,19,-1
 63 488 l 1,20,21
 64 496 64 496 66 498 c 128,-1,22
 68 500 68 500 76 500 c 0,23,24
 138 500 138 500 201 500 c 0,25,26
 215 500 215 500 215 488 c 2,27,-1
 215 359 l 2,13,14
EndSplineSet
EndChar

StartChar: less
Encoding: 60 60 32
Width: 637
GlyphClass: 2
Flags: W
LayerCount: 2
Fore
SplineSet
584 500 m 1,0,-1
 137 300 l 1,1,-1
 584 100 l 1,2,-1
 584 0 l 1,3,-1
 25 250 l 1,4,-1
 25 350 l 1,5,-1
 584 600 l 1,6,-1
 584 500 l 1,0,-1
EndSplineSet
EndChar

StartChar: equal
Encoding: 61 61 33
Width: 685
GlyphClass: 2
Flags: W
LayerCount: 2
Fore
SplineSet
622 399 m 1,0,-1
 63 399 l 1,1,-1
 63 499 l 1,2,-1
 622 499 l 1,3,-1
 622 399 l 1,0,-1
622 209 m 1,4,-1
 63 209 l 1,5,-1
 63 309 l 1,6,-1
 622 309 l 1,7,-1
 622 209 l 1,4,-1
EndSplineSet
EndChar

StartChar: greater
Encoding: 62 62 34
Width: 637
GlyphClass: 2
Flags: W
LayerCount: 2
Fore
SplineSet
612 350 m 1,0,-1
 612 250 l 1,1,-1
 53 0 l 1,2,-1
 53 100 l 1,3,-1
 500 300 l 1,4,-1
 53 500 l 1,5,-1
 53 600 l 1,6,-1
 612 350 l 1,0,-1
EndSplineSet
EndChar

StartChar: question
Encoding: 63 63 35
Width: 512
GlyphClass: 2
Flags: W
LayerCount: 2
Fore
SplineSet
315 723 m 1,0,-1
 390 723 l 2,1,2
 475 723 475 723 475 626 c 2,3,-1
 475 430 l 2,4,5
 475 340 475 340 387 340 c 2,6,-1
 235 340 l 1,7,-1
 235 435 l 1,8,-1
 288 435 l 2,9,10
 306 435 306 435 310.5 441.5 c 128,-1,11
 315 448 315 448 315 464 c 2,12,-1
 315 723 l 1,0,-1
123 205 m 2,13,14
 88 205 88 205 73 217 c 128,-1,15
 58 229 58 229 58 262 c 2,16,-1
 58 353 l 2,17,18
 58 405 58 405 76 420 c 128,-1,19
 94 435 94 435 156 435 c 2,20,-1
 209 435 l 1,21,-1
 208 205 l 1,22,-1
 123 205 l 2,13,14
276 628 m 1,23,-1
 242 628 l 2,24,25
 221 628 221 628 216 621.5 c 128,-1,26
 211 615 211 615 211 598 c 2,27,-1
 211 520 l 1,28,-1
 60 520 l 1,29,-1
 60 616 l 2,30,31
 60 723 60 723 208 723 c 2,32,-1
 276 723 l 1,33,-1
 276 628 l 1,23,-1
212 14 m 2,34,35
 212 3 212 3 200 3 c 0,36,37
 143 3 143 3 111 3 c 128,-1,38
 79 3 79 3 77 5 c 128,-1,39
 75 7 75 7 74 14 c 1,40,-1
 74 131 l 1,41,42
 75 138 75 138 77 140 c 128,-1,43
 79 142 79 142 86 142 c 0,44,45
 143 142 143 142 200 142 c 0,46,47
 212 142 212 142 212 131 c 2,48,-1
 212 14 l 2,34,35
EndSplineSet
EndChar

StartChar: at
Encoding: 64 64 36
Width: 744
GlyphClass: 2
Flags: W
LayerCount: 2
Fore
SplineSet
128.5 452.5 m 128,-1,1
 225 550 225 550 378.5 550 c 128,-1,2
 532 550 532 550 624 462 c 128,-1,3
 716 374 716 374 716 219 c 0,4,5
 716 119 716 119 668 59.5 c 128,-1,6
 620 0 620 0 546 0 c 0,7,8
 498 0 498 0 463.5 25.5 c 128,-1,9
 429 51 429 51 429 97 c 2,10,-1
 429 391 l 1,11,-1
 436 391 l 2,12,13
 522 391 522 391 522 307 c 2,14,-1
 522 92 l 2,15,16
 522 79 522 79 532.5 71 c 128,-1,17
 543 63 543 63 560 63 c 0,18,19
 600 63 600 63 627.5 106 c 128,-1,20
 655 149 655 149 655 223 c 0,21,22
 655 347 655 347 580.5 417 c 128,-1,23
 506 487 506 487 379.5 487 c 128,-1,24
 253 487 253 487 172.5 408 c 128,-1,25
 92 329 92 329 92 195 c 128,-1,26
 92 61 92 61 172 -18.5 c 128,-1,27
 252 -98 252 -98 386 -98 c 0,28,29
 479 -98 479 -98 559 -47 c 1,30,-1
 585 -103 l 1,31,32
 504 -159 504 -159 384 -159 c 0,33,34
 221 -159 221 -159 126.5 -65 c 128,-1,35
 32 29 32 29 32 192 c 128,-1,0
 32 355 32 355 128.5 452.5 c 128,-1,1
404 327 m 1,36,-1
 346 327 l 2,37,38
 331 327 331 327 323.5 317.5 c 128,-1,39
 316 308 316 308 315.5 300.5 c 128,-1,40
 315 293 315 293 315 274 c 2,41,-1
 315 116 l 2,42,43
 315 114 315 114 315 105 c 128,-1,44
 315 96 315 96 316 88 c 128,-1,45
 317 80 317 80 324 71.5 c 128,-1,46
 331 63 331 63 346 63 c 2,47,-1
 404 63 l 1,48,-1
 404 0 l 1,49,-1
 319 0 l 2,50,51
 258 0 258 0 240.5 12 c 128,-1,52
 223 24 223 24 215.5 35 c 128,-1,53
 208 46 208 46 204 72 c 0,54,55
 198 110 198 110 198 175.5 c 128,-1,56
 198 241 198 241 198.5 264.5 c 128,-1,57
 199 288 199 288 203 315 c 128,-1,58
 207 342 207 342 214 353 c 128,-1,59
 221 364 221 364 235 375 c 128,-1,60
 249 386 249 386 269 388.5 c 128,-1,61
 289 391 289 391 319 391 c 2,62,-1
 404 391 l 1,63,-1
 404 327 l 1,36,-1
EndSplineSet
EndChar

StartChar: A
Encoding: 65 65 37
Width: 611
GlyphClass: 2
Flags: W
LayerCount: 2
Fore
SplineSet
340 628 m 1,0,-1
 247 628 l 2,1,2
 231 628 231 628 231 620 c 2,3,-1
 231 0 l 1,4,-1
 126 0 l 2,5,6
 92 0 92 0 81.5 11 c 128,-1,7
 71 22 71 22 71 57 c 2,8,-1
 71 666 l 2,9,10
 71 701 71 701 81.5 712 c 128,-1,11
 92 723 92 723 126 723 c 2,12,-1
 340 723 l 1,13,-1
 340 628 l 1,0,-1
380 723 m 1,14,-1
 485 723 l 2,15,16
 519 723 519 723 529.5 712 c 128,-1,17
 540 701 540 701 540 666 c 2,18,-1
 540 58 l 2,19,20
 540 23 540 23 529 11.5 c 128,-1,21
 518 0 518 0 485 0 c 2,22,-1
 380 0 l 1,23,-1
 380 335 l 1,24,-1
 271 335 l 1,25,-1
 271 430 l 1,26,-1
 380 430 l 1,27,-1
 380 723 l 1,14,-1
EndSplineSet
EndChar

StartChar: B
Encoding: 66 66 38
Width: 613
GlyphClass: 2
Flags: W
LayerCount: 2
Fore
SplineSet
340 628 m 1,0,-1
 247 628 l 2,1,2
 231 628 231 628 231 620 c 2,3,-1
 231 0 l 1,4,-1
 126 0 l 2,5,6
 92 0 92 0 81.5 10.5 c 128,-1,7
 71 21 71 21 71 55 c 2,8,-1
 71 666 l 2,9,10
 71 701 71 701 81.5 712 c 128,-1,11
 92 723 92 723 126 723 c 2,12,-1
 340 723 l 1,13,-1
 340 628 l 1,0,-1
396 314 m 1,14,-1
 491 314 l 2,15,16
 532 314 532 314 544 295.5 c 128,-1,17
 556 277 556 277 556 237 c 2,18,-1
 556 89 l 2,19,20
 556 23 556 23 521 8 c 0,21,22
 504 0 504 0 478 0 c 2,23,-1
 271 0 l 1,24,-1
 271 94 l 1,25,-1
 355 94 l 2,26,27
 396 94 396 94 396 123 c 2,28,-1
 396 314 l 1,14,-1
383 723 m 1,29,-1
 478 723 l 2,30,31
 518 723 518 723 529.5 705 c 128,-1,32
 541 687 541 687 541 646 c 2,33,-1
 541 454 l 2,34,35
 541 396 541 396 520.5 370 c 128,-1,36
 500 344 500 344 435 344 c 2,37,-1
 271 344 l 1,38,-1
 271 439 l 1,39,-1
 345 439 l 2,40,41
 370 439 370 439 376.5 451 c 128,-1,42
 383 463 383 463 383 488 c 2,43,-1
 383 723 l 1,29,-1
EndSplineSet
EndChar

StartChar: C
Encoding: 67 67 39
Width: 609
GlyphClass: 2
Flags: W
LayerCount: 2
Fore
SplineSet
243 0 m 1,0,-1
 231 0 l 2,1,2
 191 0 191 0 164.5 6 c 128,-1,3
 138 12 138 12 118.5 30.5 c 128,-1,4
 99 49 99 49 88.5 72 c 128,-1,5
 78 95 78 95 72 141 c 0,6,7
 63 210 63 210 63 326.5 c 128,-1,8
 63 443 63 443 64.5 491 c 128,-1,9
 66 539 66 539 72 584.5 c 128,-1,10
 78 630 78 630 88.5 652.5 c 128,-1,11
 99 675 99 675 118.5 693.5 c 128,-1,12
 138 712 138 712 164.5 717.5 c 128,-1,13
 191 723 191 723 231 723 c 2,14,-1
 243 723 l 1,15,-1
 243 0 l 1,0,-1
283 723 m 1,16,-1
 410 723 l 2,17,18
 483 723 483 723 520.5 698 c 128,-1,19
 558 673 558 673 558 611 c 2,20,-1
 558 521 l 2,21,22
 558 500 558 500 544 500 c 2,23,-1
 418 500 l 2,24,25
 404 500 404 500 401 504 c 128,-1,26
 398 508 398 508 398 521 c 2,27,-1
 398 599 l 2,28,29
 398 615 398 615 393.5 621.5 c 128,-1,30
 389 628 389 628 371 628 c 2,31,-1
 283 628 l 1,32,-1
 283 723 l 1,16,-1
418 223 m 2,33,-1
 544 223 l 2,34,35
 558 223 558 223 558 202 c 2,36,-1
 558 112 l 2,37,38
 558 50 558 50 520.5 25 c 128,-1,39
 483 0 483 0 410 0 c 2,40,-1
 283 0 l 1,41,-1
 283 95 l 1,42,-1
 371 95 l 2,43,44
 389 95 389 95 393.5 101.5 c 128,-1,45
 398 108 398 108 398 124 c 2,46,-1
 398 202 l 2,47,48
 398 215 398 215 401 219 c 128,-1,49
 404 223 404 223 418 223 c 2,33,-1
EndSplineSet
EndChar

StartChar: D
Encoding: 68 68 40
Width: 615
GlyphClass: 2
Flags: W
LayerCount: 2
Fore
SplineSet
546 363 m 1,0,-1
 547 194 l 2,1,2
 547 75 547 75 517 37.5 c 128,-1,3
 487 0 487 0 408 0 c 2,4,-1
 261 0 l 1,5,-1
 261 95 l 1,6,-1
 335 95 l 2,7,8
 360 95 360 95 368 101 c 128,-1,9
 376 107 376 107 376 124 c 2,10,-1
 376 598 l 2,11,12
 376 616 376 616 368 622 c 128,-1,13
 360 628 360 628 335 628 c 2,14,-1
 261 628 l 1,15,-1
 261 723 l 1,16,-1
 418 723 l 2,17,18
 491 723 491 723 519.5 689.5 c 128,-1,19
 548 656 548 656 548 559 c 2,20,-1
 546 363 l 1,0,-1
231 -1 m 1,21,-1
 126 -1 l 2,22,23
 93 -1 93 -1 82 10.5 c 128,-1,24
 71 22 71 22 71 56 c 2,25,-1
 71 666 l 2,26,27
 71 700 71 700 82 711.5 c 128,-1,28
 93 723 93 723 126 723 c 2,29,-1
 231 723 l 1,30,-1
 231 -1 l 1,21,-1
EndSplineSet
EndChar

StartChar: E
Encoding: 69 69 41
Width: 579
GlyphClass: 2
Flags: W
LayerCount: 2
Fore
SplineSet
231 0 m 1,0,-1
 126 0 l 2,1,2
 92 0 92 0 81.5 11 c 128,-1,3
 71 22 71 22 71 57 c 2,4,-1
 71 666 l 2,5,6
 71 701 71 701 81.5 712 c 128,-1,7
 92 723 92 723 126 723 c 2,8,-1
 231 723 l 1,9,-1
 231 0 l 1,0,-1
540 140 m 1,10,-1
 540 55 l 2,11,12
 540 21 540 21 529 10.5 c 128,-1,13
 518 0 518 0 483 0 c 2,14,-1
 271 0 l 1,15,-1
 271 140 l 1,16,-1
 540 140 l 1,10,-1
480 435 m 1,17,-1
 480 375 l 2,18,19
 480 339 480 339 473 329.5 c 128,-1,20
 466 320 466 320 433 320 c 2,21,-1
 271 320 l 1,22,-1
 271 435 l 1,23,-1
 480 435 l 1,17,-1
530 723 m 1,24,-1
 530 638 l 2,25,26
 530 604 530 604 519 593.5 c 128,-1,27
 508 583 508 583 473 583 c 2,28,-1
 271 583 l 1,29,-1
 271 723 l 1,30,-1
 530 723 l 1,24,-1
EndSplineSet
EndChar

StartChar: F
Encoding: 70 70 42
Width: 543
GlyphClass: 2
Flags: W
LayerCount: 2
Fore
SplineSet
231 0 m 1,0,-1
 126 0 l 2,1,2
 92 0 92 0 81.5 11 c 128,-1,3
 71 22 71 22 71 56 c 2,4,-1
 71 665 l 2,5,6
 71 700 71 700 82 711.5 c 128,-1,7
 93 723 93 723 126 723 c 2,8,-1
 231 723 l 1,9,-1
 231 0 l 1,0,-1
480 444 m 1,10,-1
 480 384 l 2,11,12
 480 348 480 348 473 338.5 c 128,-1,13
 466 329 466 329 433 329 c 2,14,-1
 271 329 l 1,15,-1
 271 444 l 1,16,-1
 480 444 l 1,10,-1
520 723 m 1,17,-1
 520 637 l 2,18,19
 520 603 520 603 509 592.5 c 128,-1,20
 498 582 498 582 463 582 c 2,21,-1
 271 582 l 1,22,-1
 271 723 l 1,23,-1
 520 723 l 1,17,-1
EndSplineSet
EndChar

StartChar: G
Encoding: 71 71 43
Width: 619
GlyphClass: 2
Flags: W
LayerCount: 2
Fore
SplineSet
243 723 m 1,0,-1
 243 124 l 2,1,2
 243 109 243 109 250.5 102 c 128,-1,3
 258 95 258 95 284 95 c 2,4,-1
 358 95 l 1,5,-1
 358 0 l 1,6,-1
 231 0 l 2,7,8
 191 0 191 0 164.5 6 c 128,-1,9
 138 12 138 12 118.5 30.5 c 128,-1,10
 99 49 99 49 88.5 72 c 128,-1,11
 78 95 78 95 72 141 c 0,12,13
 63 210 63 210 63 326.5 c 128,-1,14
 63 443 63 443 64.5 491 c 128,-1,15
 66 539 66 539 72 584.5 c 128,-1,16
 78 630 78 630 88.5 652.5 c 128,-1,17
 99 675 99 675 118.5 693.5 c 128,-1,18
 138 712 138 712 164.5 717.5 c 128,-1,19
 191 723 191 723 231 723 c 2,20,-1
 243 723 l 1,0,-1
283 394 m 1,21,-1
 459 394 l 2,22,23
 557 394 557 394 557 304 c 2,24,-1
 557 96 l 2,25,26
 557 34 557 34 547.5 17 c 128,-1,27
 538 0 538 0 493 0 c 2,28,-1
 398 0 l 1,29,-1
 398 270 l 2,30,31
 398 286 398 286 393.5 292.5 c 128,-1,32
 389 299 389 299 371 299 c 2,33,-1
 283 299 l 1,34,-1
 283 394 l 1,21,-1
283 723 m 1,35,-1
 410 723 l 2,36,37
 483 723 483 723 520.5 698 c 128,-1,38
 558 673 558 673 558 611 c 2,39,-1
 558 521 l 2,40,41
 558 500 558 500 544 500 c 2,42,-1
 418 500 l 2,43,44
 404 500 404 500 401 504 c 128,-1,45
 398 508 398 508 398 521 c 2,46,-1
 398 599 l 2,47,48
 398 615 398 615 393.5 621.5 c 128,-1,49
 389 628 389 628 371 628 c 2,50,-1
 283 628 l 1,51,-1
 283 723 l 1,35,-1
EndSplineSet
EndChar

StartChar: H
Encoding: 72 72 44
Width: 613
GlyphClass: 2
Flags: W
LayerCount: 2
Fore
SplineSet
341 335 m 1,0,-1
 231 335 l 1,1,-1
 231 0 l 1,2,-1
 126 0 l 2,3,4
 92 0 92 0 81.5 11 c 128,-1,5
 71 22 71 22 71 57 c 2,6,-1
 71 723 l 1,7,-1
 195 723 l 2,8,9
 211 723 211 723 221 712 c 128,-1,10
 231 701 231 701 231 683 c 2,11,-1
 231 430 l 1,12,-1
 341 430 l 1,13,-1
 341 335 l 1,0,-1
381 723 m 1,14,-1
 486 723 l 2,15,16
 520 723 520 723 530.5 712 c 128,-1,17
 541 701 541 701 541 666 c 2,18,-1
 541 0 l 1,19,-1
 417 0 l 2,20,21
 401 0 401 0 391 11 c 128,-1,22
 381 22 381 22 381 40 c 2,23,-1
 381 723 l 1,14,-1
EndSplineSet
EndChar

StartChar: I
Encoding: 73 73 45
Width: 303
GlyphClass: 2
Flags: W
LayerCount: 2
Fore
SplineSet
231 0 m 1,0,-1
 126 0 l 2,1,2
 92 0 92 0 81.5 11 c 128,-1,3
 71 22 71 22 71 57 c 2,4,-1
 71 666 l 2,5,6
 71 701 71 701 81.5 712 c 128,-1,7
 92 723 92 723 126 723 c 2,8,-1
 231 723 l 1,9,-1
 231 0 l 1,0,-1
EndSplineSet
EndChar

StartChar: J
Encoding: 74 74 46
Width: 476
GlyphClass: 2
Flags: W
LayerCount: 2
Fore
SplineSet
244 723 m 1,0,-1
 349 723 l 2,1,2
 383 723 383 723 393.5 712 c 128,-1,3
 404 701 404 701 404 666 c 2,4,-1
 404 57 l 2,5,6
 404 22 404 22 393.5 11 c 128,-1,7
 383 0 383 0 349 0 c 2,8,-1
 244 0 l 1,9,-1
 244 723 l 1,0,-1
33 223 m 2,10,-1
 159 223 l 2,11,12
 173 223 173 223 176 219 c 128,-1,13
 179 215 179 215 179 202 c 2,14,-1
 179 124 l 2,15,16
 179 108 179 108 183.5 101.5 c 128,-1,17
 188 95 188 95 206 95 c 2,18,-1
 214 95 l 1,19,-1
 214 0 l 1,20,-1
 167 0 l 2,21,22
 94 0 94 0 56.5 25 c 128,-1,23
 19 50 19 50 19 112 c 2,24,-1
 19 202 l 2,25,26
 19 223 19 223 33 223 c 2,10,-1
EndSplineSet
EndChar

StartChar: K
Encoding: 75 75 47
Width: 570
GlyphClass: 2
Flags: W
LayerCount: 2
Fore
SplineSet
71 723 m 1,0,-1
 176 723 l 2,1,2
 210 723 210 723 220.5 712 c 128,-1,3
 231 701 231 701 231 666 c 2,4,-1
 231 0 l 1,5,-1
 126 0 l 2,6,7
 92 0 92 0 81.5 11 c 128,-1,8
 71 22 71 22 71 57 c 2,9,-1
 71 723 l 1,0,-1
339 299 m 1,10,-1
 453 299 l 2,11,12
 483 299 483 299 496 282.5 c 128,-1,13
 509 266 509 266 509 229 c 2,14,-1
 509 0 l 1,15,-1
 375 0 l 2,16,17
 359 0 359 0 349 11 c 128,-1,18
 339 22 339 22 339 40 c 2,19,-1
 339 299 l 1,10,-1
342 723 m 1,20,-1
 457 723 l 2,21,22
 486 723 486 723 494 712 c 128,-1,23
 502 701 502 701 502 666 c 2,24,-1
 502 454 l 2,25,26
 502 394 502 394 480.5 364.5 c 128,-1,27
 459 335 459 335 394 335 c 2,28,-1
 271 335 l 1,29,-1
 271 430 l 1,30,-1
 315 430 l 2,31,32
 333 430 333 430 337.5 436.5 c 128,-1,33
 342 443 342 443 342 459 c 2,34,-1
 342 723 l 1,20,-1
EndSplineSet
EndChar

StartChar: L
Encoding: 76 76 48
Width: 559
GlyphClass: 2
Flags: W
LayerCount: 2
Fore
SplineSet
385 218 m 2,0,-1
 525 218 l 2,1,2
 536 218 536 218 536 204 c 2,3,-1
 536 28 l 2,4,5
 536 0 536 0 508 0 c 2,6,-1
 266 0 l 1,7,-1
 266 95 l 1,8,-1
 359 95 l 2,9,10
 375 95 375 95 375.5 98.5 c 128,-1,11
 376 102 376 102 376 107 c 2,12,-1
 376 207 l 2,13,14
 376 215 376 215 378 216.5 c 128,-1,15
 380 218 380 218 385 218 c 2,0,-1
231 0 m 1,16,-1
 126 0 l 2,17,18
 92 0 92 0 81.5 11 c 128,-1,19
 71 22 71 22 71 57 c 2,20,-1
 71 666 l 2,21,22
 71 701 71 701 81.5 712 c 128,-1,23
 92 723 92 723 126 723 c 2,24,-1
 231 723 l 1,25,-1
 231 0 l 1,16,-1
EndSplineSet
EndChar

StartChar: M
Encoding: 77 77 49
Width: 962
GlyphClass: 2
Flags: W
LayerCount: 2
Fore
SplineSet
594 723 m 1,0,-1
 744 723 l 2,1,2
 817 723 817 723 854.5 698 c 128,-1,3
 892 673 892 673 892 611 c 2,4,-1
 892 57 l 2,5,6
 892 22 892 22 881.5 11 c 128,-1,7
 871 0 871 0 837 0 c 2,8,-1
 732 0 l 1,9,-1
 732 599 l 2,10,11
 732 615 732 615 727.5 621.5 c 128,-1,12
 723 628 723 628 705 628 c 2,13,-1
 594 628 l 1,14,-1
 594 723 l 1,0,-1
231 0 m 1,15,-1
 126 0 l 2,16,17
 92 0 92 0 81.5 11 c 128,-1,18
 71 22 71 22 71 57 c 2,19,-1
 71 683 l 2,20,21
 71 701 71 701 81 712 c 128,-1,22
 91 723 91 723 107 723 c 2,23,-1
 231 723 l 1,24,-1
 231 0 l 1,15,-1
272 723 m 1,25,-1
 528 723 l 2,26,27
 544 723 544 723 554 712 c 128,-1,28
 564 701 564 701 564 683 c 2,29,-1
 564 73 l 1,30,-1
 460 73 l 2,31,32
 430 73 430 73 417 89.5 c 128,-1,33
 404 106 404 106 404 143 c 2,34,-1
 404 599 l 2,35,36
 404 615 404 615 399.5 621.5 c 128,-1,37
 395 628 395 628 377 628 c 2,38,-1
 272 628 l 1,39,-1
 272 723 l 1,25,-1
EndSplineSet
EndChar

StartChar: N
Encoding: 78 78 50
Width: 692
GlyphClass: 2
Flags: W
LayerCount: 2
Fore
SplineSet
620 723 m 1,0,-1
 620 57 l 2,1,2
 620 22 620 22 609.5 11 c 128,-1,3
 599 0 599 0 565 0 c 2,4,-1
 423 0 l 2,5,6
 364 0 364 0 345.5 18 c 128,-1,7
 327 36 327 36 313 111 c 0,8,9
 285 259 285 259 232 589 c 0,10,11
 228 614 228 614 220.5 621 c 128,-1,12
 213 628 213 628 195 629 c 1,13,-1
 72 629 l 1,14,-1
 72 723 l 1,15,-1
 289 723 l 2,16,17
 314 723 314 723 329 717 c 128,-1,18
 344 711 344 711 353.5 691.5 c 128,-1,19
 363 672 363 672 366.5 654 c 128,-1,20
 370 636 370 636 374 612 c 0,21,22
 379 583 379 583 388 527 c 0,23,24
 405 414 405 414 441 208 c 1,25,26
 455 120 455 120 460.5 109.5 c 128,-1,27
 466 99 466 99 480 97 c 1,28,-1
 480 683 l 2,29,30
 480 701 480 701 490 712 c 128,-1,31
 500 723 500 723 516 723 c 2,32,-1
 620 723 l 1,0,-1
72 594 m 1,33,-1
 176 594 l 2,34,35
 192 594 192 594 202 583 c 128,-1,36
 212 572 212 572 212 554 c 2,37,-1
 212 57 l 2,38,39
 212 23 212 23 203 11.5 c 128,-1,40
 194 0 194 0 167 0 c 2,41,-1
 72 0 l 1,42,-1
 72 594 l 1,33,-1
EndSplineSet
EndChar

StartChar: O
Encoding: 79 79 51
Width: 641
GlyphClass: 2
Flags: W
LayerCount: 2
Fore
SplineSet
243 723 m 1,0,-1
 243 124 l 2,1,2
 243 109 243 109 250.5 102 c 128,-1,3
 258 95 258 95 284 95 c 2,4,-1
 358 95 l 1,5,-1
 358 0 l 1,6,-1
 231 0 l 2,7,8
 191 0 191 0 164.5 6 c 128,-1,9
 138 12 138 12 118.5 30.5 c 128,-1,10
 99 49 99 49 88.5 72 c 128,-1,11
 78 95 78 95 72 141 c 0,12,13
 63 210 63 210 63 326.5 c 128,-1,14
 63 443 63 443 64.5 491 c 128,-1,15
 66 539 66 539 72 584.5 c 128,-1,16
 78 630 78 630 88.5 652.5 c 128,-1,17
 99 675 99 675 118.5 693.5 c 128,-1,18
 138 712 138 712 164.5 717.5 c 128,-1,19
 191 723 191 723 231 723 c 2,20,-1
 243 723 l 1,0,-1
283 722 m 1,21,-1
 410 722 l 2,22,23
 450 722 450 722 476.5 716 c 128,-1,24
 503 710 503 710 522.5 691.5 c 128,-1,25
 542 673 542 673 552.5 650 c 128,-1,26
 563 627 563 627 569 581 c 0,27,28
 578 512 578 512 578 395.5 c 128,-1,29
 578 279 578 279 576.5 231 c 128,-1,30
 575 183 575 183 569 137.5 c 128,-1,31
 563 92 563 92 552.5 69.5 c 128,-1,32
 542 47 542 47 522.5 28.5 c 128,-1,33
 503 10 503 10 476.5 4.5 c 128,-1,34
 450 -1 450 -1 410 -1 c 2,35,-1
 398 -1 l 1,36,-1
 398 598 l 2,37,38
 398 613 398 613 390.5 620 c 128,-1,39
 383 627 383 627 357 627 c 2,40,-1
 283 627 l 1,41,-1
 283 722 l 1,21,-1
EndSplineSet
EndChar

StartChar: P
Encoding: 80 80 52
Width: 589
GlyphClass: 2
Flags: W
LayerCount: 2
Fore
SplineSet
231 0 m 1,0,-1
 126 0 l 2,1,2
 92 0 92 0 81.5 11 c 128,-1,3
 71 22 71 22 71 57 c 2,4,-1
 71 683 l 2,5,6
 71 701 71 701 81 712 c 128,-1,7
 91 723 91 723 107 723 c 2,8,-1
 231 723 l 1,9,-1
 231 0 l 1,0,-1
271 723 m 1,10,-1
 398 723 l 2,11,12
 493 723 493 723 524.5 678.5 c 128,-1,13
 556 634 556 634 556 500 c 0,14,15
 556 411 556 411 536.5 361 c 128,-1,16
 517 311 517 311 485 294.5 c 128,-1,17
 453 278 453 278 398 278 c 2,18,-1
 271 278 l 1,19,-1
 271 373 l 1,20,-1
 345 373 l 2,21,22
 371 373 371 373 378.5 380 c 128,-1,23
 386 387 386 387 386 402 c 2,24,-1
 386 598 l 2,25,26
 386 614 386 614 378.5 621 c 128,-1,27
 371 628 371 628 345 628 c 2,28,-1
 271 628 l 1,29,-1
 271 723 l 1,10,-1
EndSplineSet
EndChar

StartChar: Q
Encoding: 81 81 53
Width: 641
GlyphClass: 2
Flags: W
LayerCount: 2
Fore
SplineSet
243 723 m 1,0,-1
 243 124 l 2,1,2
 243 109 243 109 250.5 102 c 128,-1,3
 258 95 258 95 284 95 c 2,4,-1
 358 95 l 1,5,-1
 358 0 l 1,6,-1
 231 0 l 2,7,8
 191 0 191 0 164.5 6 c 128,-1,9
 138 12 138 12 118.5 30.5 c 128,-1,10
 99 49 99 49 88.5 72 c 128,-1,11
 78 95 78 95 72 141 c 0,12,13
 63 210 63 210 63 326.5 c 128,-1,14
 63 443 63 443 64.5 491 c 128,-1,15
 66 539 66 539 72 584.5 c 128,-1,16
 78 630 78 630 88.5 652.5 c 128,-1,17
 99 675 99 675 118.5 693.5 c 128,-1,18
 138 712 138 712 164.5 717.5 c 128,-1,19
 191 723 191 723 231 723 c 2,20,-1
 243 723 l 1,0,-1
283 722 m 1,21,-1
 410 722 l 2,22,23
 450 722 450 722 476.5 716 c 128,-1,24
 503 710 503 710 522.5 691.5 c 128,-1,25
 542 673 542 673 552.5 650 c 128,-1,26
 563 627 563 627 569 581 c 0,27,28
 578 512 578 512 578 395.5 c 128,-1,29
 578 279 578 279 576.5 231 c 128,-1,30
 575 183 575 183 569 137.5 c 128,-1,31
 563 92 563 92 552.5 69.5 c 128,-1,32
 542 47 542 47 522.5 28.5 c 128,-1,33
 503 10 503 10 476.5 4.5 c 128,-1,34
 450 -1 450 -1 410 -1 c 2,35,-1
 398 -1 l 1,36,-1
 398 598 l 2,37,38
 398 613 398 613 390.5 620 c 128,-1,39
 383 627 383 627 357 627 c 2,40,-1
 283 627 l 1,41,-1
 283 722 l 1,21,-1
600 -36 m 1,42,-1
 600 -121 l 2,43,44
 600 -151 600 -151 575 -151 c 2,45,-1
 424 -151 l 2,46,47
 399 -151 399 -151 399 -121 c 2,48,-1
 399 -36 l 1,49,-1
 600 -36 l 1,42,-1
EndSplineSet
EndChar

StartChar: R
Encoding: 82 82 54
Width: 619
GlyphClass: 2
Flags: W
LayerCount: 2
Fore
SplineSet
231 0 m 1,0,-1
 126 0 l 2,1,2
 92 0 92 0 81.5 11 c 128,-1,3
 71 22 71 22 71 57 c 2,4,-1
 71 683 l 2,5,6
 71 701 71 701 81 712 c 128,-1,7
 91 723 91 723 107 723 c 2,8,-1
 231 723 l 1,9,-1
 231 0 l 1,0,-1
271 723 m 1,10,-1
 398 723 l 2,11,12
 456 723 456 723 489.5 714 c 128,-1,13
 523 705 523 705 540 678.5 c 128,-1,14
 557 652 557 652 561.5 619.5 c 128,-1,15
 566 587 566 587 566 528 c 128,-1,16
 566 469 566 469 561.5 438 c 128,-1,17
 557 407 557 407 540.5 380 c 128,-1,18
 524 353 524 353 489.5 342 c 128,-1,19
 455 331 455 331 398 331 c 2,20,-1
 271 331 l 1,21,-1
 271 426 l 1,22,-1
 345 426 l 2,23,24
 371 426 371 426 378.5 433 c 128,-1,25
 386 440 386 440 386 455 c 2,26,-1
 386 598 l 2,27,28
 386 614 386 614 378.5 621 c 128,-1,29
 371 628 371 628 345 628 c 2,30,-1
 271 628 l 1,31,-1
 271 723 l 1,10,-1
367 300 m 1,32,-1
 491 300 l 2,33,34
 521 300 521 300 534 283.5 c 128,-1,35
 547 267 547 267 547 230 c 2,36,-1
 547 0 l 1,37,-1
 403 0 l 2,38,39
 387 0 387 0 377 11 c 128,-1,40
 367 22 367 22 367 40 c 2,41,-1
 367 300 l 1,32,-1
EndSplineSet
EndChar

StartChar: S
Encoding: 83 83 55
Width: 624
GlyphClass: 2
Flags: W
LayerCount: 2
Fore
SplineSet
236 722 m 1,0,-1
 236 435 l 2,1,2
 236 419 236 419 243.5 412 c 128,-1,3
 251 405 251 405 277 405 c 2,4,-1
 351 405 l 1,5,-1
 351 310 l 1,6,-1
 224 310 l 2,7,8
 167 310 167 310 132.5 322 c 128,-1,9
 98 334 98 334 81.5 364.5 c 128,-1,10
 65 395 65 395 60.5 430 c 128,-1,11
 56 465 56 465 56 524.5 c 128,-1,12
 56 584 56 584 60.5 615 c 128,-1,13
 65 646 65 646 81.5 673 c 128,-1,14
 98 700 98 700 132.5 711 c 128,-1,15
 167 722 167 722 224 722 c 2,16,-1
 236 722 l 1,0,-1
391 405 m 1,17,-1
 403 405 l 2,18,19
 446 405 446 405 469.5 403.5 c 128,-1,20
 493 402 493 402 515 394.5 c 128,-1,21
 537 387 537 387 545.5 377 c 128,-1,22
 554 367 554 367 561.5 342.5 c 128,-1,23
 569 318 569 318 570 290 c 128,-1,24
 571 262 571 262 571 210 c 128,-1,25
 571 158 571 158 570 127.5 c 128,-1,26
 569 97 569 97 561.5 69.5 c 128,-1,27
 554 42 554 42 545.5 31 c 128,-1,28
 537 20 537 20 515 11.5 c 128,-1,29
 493 3 493 3 469.5 1.5 c 128,-1,30
 446 0 446 0 403 0 c 2,31,-1
 391 0 l 1,32,-1
 391 405 l 1,17,-1
70 223 m 2,33,-1
 196 223 l 2,34,35
 210 223 210 223 213 219 c 128,-1,36
 216 215 216 215 216 202 c 2,37,-1
 216 124 l 2,38,39
 216 108 216 108 220.5 101.5 c 128,-1,40
 225 95 225 95 243 95 c 2,41,-1
 351 95 l 1,42,-1
 351 0 l 1,43,-1
 204 0 l 2,44,45
 131 0 131 0 93.5 25 c 128,-1,46
 56 50 56 50 56 112 c 2,47,-1
 56 202 l 2,48,49
 56 223 56 223 70 223 c 2,33,-1
276 723 m 1,50,-1
 403 723 l 2,51,52
 476 723 476 723 513.5 698 c 128,-1,53
 551 673 551 673 551 611 c 2,54,-1
 551 521 l 2,55,56
 551 500 551 500 537 500 c 2,57,-1
 411 500 l 2,58,59
 397 500 397 500 394 504 c 128,-1,60
 391 508 391 508 391 521 c 2,61,-1
 391 599 l 2,62,63
 391 615 391 615 386.5 621.5 c 128,-1,64
 382 628 382 628 364 628 c 2,65,-1
 276 628 l 1,66,-1
 276 723 l 1,50,-1
EndSplineSet
EndChar

StartChar: T
Encoding: 84 84 56
Width: 611
GlyphClass: 2
Flags: W
LayerCount: 2
Fore
SplineSet
25 723 m 1,0,-1
 338 723 l 2,1,2
 354 723 354 723 364 712 c 128,-1,3
 374 701 374 701 374 683 c 2,4,-1
 374 0 l 1,5,-1
 269 0 l 2,6,7
 235 0 235 0 224.5 11 c 128,-1,8
 214 22 214 22 214 57 c 2,9,-1
 214 598 l 1,10,-1
 54 598 l 2,11,12
 25 598 25 598 25 646 c 2,13,-1
 25 723 l 1,0,-1
414 723 m 1,14,-1
 574 723 l 2,15,16
 603 723 603 723 603 675 c 2,17,-1
 603 598 l 1,18,-1
 414 598 l 1,19,-1
 414 723 l 1,14,-1
EndSplineSet
EndChar

StartChar: U
Encoding: 85 85 57
Width: 636
GlyphClass: 2
Flags: W
LayerCount: 2
Fore
SplineSet
230 723 m 1,0,-1
 230 124 l 2,1,2
 230 108 230 108 234.5 101.5 c 128,-1,3
 239 95 239 95 257 95 c 2,4,-1
 365 95 l 1,5,-1
 365 0 l 1,6,-1
 218 0 l 2,7,8
 145 0 145 0 107.5 25 c 128,-1,9
 70 50 70 50 70 112 c 2,10,-1
 70 666 l 2,11,12
 70 701 70 701 80.5 712 c 128,-1,13
 91 723 91 723 125 723 c 2,14,-1
 230 723 l 1,0,-1
395 723 m 1,15,-1
 500 723 l 2,16,17
 534 723 534 723 544.5 712 c 128,-1,18
 555 701 555 701 555 666 c 2,19,-1
 555 124 l 2,20,21
 555 108 555 108 559.5 101.5 c 128,-1,22
 564 95 564 95 582 95 c 2,23,-1
 600 95 l 1,24,-1
 600 0 l 1,25,-1
 543 0 l 2,26,27
 470 0 470 0 432.5 25 c 128,-1,28
 395 50 395 50 395 112 c 2,29,-1
 395 723 l 1,15,-1
EndSplineSet
EndChar

StartChar: V
Encoding: 86 86 58
Width: 612
GlyphClass: 2
Flags: W
LayerCount: 2
Fore
SplineSet
126 723 m 2,0,1
 160 723 160 723 172.5 712 c 128,-1,2
 185 701 185 701 190 666 c 2,3,-1
 256 134 l 2,4,5
 259 110 259 110 269 103 c 128,-1,6
 279 96 279 96 301 95 c 1,7,-1
 300 0 l 1,8,-1
 256 0 l 2,9,10
 168 0 168 0 140 43 c 0,11,12
 125 66 125 66 119 88.5 c 128,-1,13
 113 111 113 111 108 152 c 2,14,-1
 30 723 l 1,15,-1
 126 723 l 2,0,1
387 0 m 2,16,-1
 325 0 l 1,17,-1
 434 666 l 1,18,19
 438 700 438 700 451 711.5 c 128,-1,20
 464 723 464 723 498 723 c 2,21,-1
 593 723 l 1,22,-1
 493 132 l 2,23,24
 486 94 486 94 481.5 76 c 128,-1,25
 477 58 477 58 466 37 c 128,-1,26
 455 16 455 16 436 8 c 128,-1,27
 417 0 417 0 387 0 c 2,16,-1
EndSplineSet
EndChar

StartChar: W
Encoding: 87 87 59
Width: 962
GlyphClass: 2
Flags: W
LayerCount: 2
Fore
SplineSet
230 723 m 1,0,-1
 230 124 l 2,1,2
 230 108 230 108 234.5 101.5 c 128,-1,3
 239 95 239 95 257 95 c 2,4,-1
 365 95 l 1,5,-1
 365 0 l 1,6,-1
 218 0 l 2,7,8
 145 0 145 0 107.5 25 c 128,-1,9
 70 50 70 50 70 112 c 2,10,-1
 70 666 l 2,11,12
 70 701 70 701 80.5 712 c 128,-1,13
 91 723 91 723 125 723 c 2,14,-1
 230 723 l 1,0,-1
395 500 m 1,15,-1
 499 500 l 2,16,17
 529 500 529 500 542 483.5 c 128,-1,18
 555 467 555 467 555 430 c 2,19,-1
 555 124 l 2,20,21
 555 108 555 108 559.5 101.5 c 128,-1,22
 564 95 564 95 582 95 c 2,23,-1
 690 95 l 1,24,-1
 690 0 l 1,25,-1
 431 0 l 2,26,27
 415 0 415 0 405 11 c 128,-1,28
 395 22 395 22 395 40 c 2,29,-1
 395 500 l 1,15,-1
730 723 m 1,30,-1
 835 723 l 2,31,32
 869 723 869 723 880 712 c 128,-1,33
 891 701 891 701 891 666 c 2,34,-1
 891 40 l 2,35,36
 891 22 891 22 880.5 11 c 128,-1,37
 870 0 870 0 854 0 c 2,38,-1
 730 0 l 1,39,-1
 730 723 l 1,30,-1
EndSplineSet
EndChar

StartChar: X
Encoding: 88 88 60
Width: 630
GlyphClass: 2
Flags: W
LayerCount: 2
Fore
SplineSet
303 314 m 1,0,-1
 267 314 l 2,1,2
 249 314 249 314 244 307.5 c 128,-1,3
 239 301 239 301 239 285 c 2,4,-1
 239 0 l 1,5,-1
 104 0 l 2,6,7
 78 0 78 0 68.5 8.5 c 128,-1,8
 59 17 59 17 59 37 c 2,9,-1
 59 337 l 2,10,11
 59 374 59 374 74 391.5 c 128,-1,12
 89 409 89 409 127 409 c 2,13,-1
 303 409 l 1,14,-1
 303 314 l 1,0,-1
541 0 m 1,15,-1
 416 0 l 2,16,17
 382 0 382 0 371.5 11 c 128,-1,18
 361 22 361 22 361 57 c 2,19,-1
 361 213 l 2,20,21
 361 248 361 248 371.5 259 c 128,-1,22
 382 270 382 270 416 270 c 2,23,-1
 541 270 l 1,24,-1
 541 0 l 1,15,-1
255 455 m 1,25,-1
 130 455 l 2,26,27
 96 455 96 455 85.5 466 c 128,-1,28
 75 477 75 477 75 512 c 2,29,-1
 75 667 l 2,30,31
 75 702 75 702 85.5 713 c 128,-1,32
 96 724 96 724 130 724 c 2,33,-1
 255 724 l 1,34,-1
 255 455 l 1,25,-1
394 723 m 1,35,-1
 529 723 l 2,36,37
 558 723 558 723 566 712 c 128,-1,38
 574 701 574 701 574 666 c 2,39,-1
 574 362 l 2,40,41
 574 337 574 337 567 325.5 c 128,-1,42
 560 314 560 314 536 314 c 2,43,-1
 343 314 l 1,44,-1
 343 409 l 1,45,-1
 367 409 l 2,46,47
 385 409 385 409 389.5 415.5 c 128,-1,48
 394 422 394 422 394 438 c 2,49,-1
 394 723 l 1,35,-1
EndSplineSet
EndChar

StartChar: Y
Encoding: 89 89 61
Width: 562
GlyphClass: 2
Flags: W
LayerCount: 2
Fore
SplineSet
204 723 m 1,0,-1
 204 438 l 2,1,2
 204 422 204 422 209 415.5 c 128,-1,3
 214 409 214 409 232 409 c 2,4,-1
 268 409 l 1,5,-1
 268 314 l 1,6,-1
 112 314 l 2,7,8
 74 314 74 314 59 331.5 c 128,-1,9
 44 349 44 349 44 386 c 2,10,-1
 44 676 l 2,11,12
 44 723 44 723 99 723 c 2,13,-1
 204 723 l 1,0,-1
367 0 m 1,14,-1
 242 0 l 2,15,16
 208 0 208 0 197.5 11 c 128,-1,17
 187 22 187 22 187 57 c 2,18,-1
 187 217 l 2,19,20
 187 252 187 252 197.5 263 c 128,-1,21
 208 274 208 274 242 274 c 2,22,-1
 367 274 l 1,23,-1
 367 0 l 1,14,-1
359 723 m 1,24,-1
 464 723 l 2,25,26
 494 723 494 723 506.5 711 c 128,-1,27
 519 699 519 699 519 666 c 2,28,-1
 519 384 l 2,29,30
 519 314 519 314 461 314 c 2,31,-1
 308 314 l 1,32,-1
 308 409 l 1,33,-1
 332 409 l 2,34,35
 350 409 350 409 354.5 416 c 128,-1,36
 359 423 359 423 359 438 c 2,37,-1
 359 723 l 1,24,-1
EndSplineSet
EndChar

StartChar: Z
Encoding: 90 90 62
Width: 643
GlyphClass: 2
Flags: W
LayerCount: 2
Fore
SplineSet
308 314 m 1,0,-1
 272 314 l 2,1,2
 254 314 254 314 249 307.5 c 128,-1,3
 244 301 244 301 244 285 c 2,4,-1
 244 0 l 1,5,-1
 109 0 l 2,6,7
 83 0 83 0 73.5 8.5 c 128,-1,8
 64 17 64 17 64 37 c 2,9,-1
 64 337 l 2,10,11
 64 374 64 374 79 391.5 c 128,-1,12
 94 409 94 409 132 409 c 2,13,-1
 308 409 l 1,14,-1
 308 314 l 1,0,-1
580 193 m 1,15,-1
 580 56 l 2,16,17
 580 9 580 9 560 3 c 0,18,19
 550 0 550 0 531 0 c 2,20,-1
 286 0 l 1,21,-1
 286 95 l 1,22,-1
 369 95 l 2,23,24
 390 95 390 95 395 101.5 c 128,-1,25
 400 108 400 108 400 125 c 2,26,-1
 400 193 l 1,27,-1
 580 193 l 1,15,-1
358 628 m 1,28,-1
 274 628 l 2,29,30
 253 628 253 628 248 621.5 c 128,-1,31
 243 615 243 615 243 598 c 2,32,-1
 243 530 l 1,33,-1
 63 530 l 1,34,-1
 63 656 l 2,35,36
 63 708 63 708 84 718 c 0,37,38
 95 723 95 723 112 723 c 2,39,-1
 358 723 l 1,40,-1
 358 628 l 1,28,-1
399 723 m 1,41,-1
 534 723 l 2,42,43
 563 723 563 723 571 712 c 128,-1,44
 579 701 579 701 579 666 c 2,45,-1
 579 362 l 2,46,47
 579 337 579 337 572 325.5 c 128,-1,48
 565 314 565 314 541 314 c 2,49,-1
 348 314 l 1,50,-1
 348 409 l 1,51,-1
 372 409 l 2,52,53
 390 409 390 409 394.5 415.5 c 128,-1,54
 399 422 399 422 399 438 c 2,55,-1
 399 723 l 1,41,-1
EndSplineSet
EndChar

StartChar: bracketleft
Encoding: 91 91 63
Width: 383
GlyphClass: 2
Flags: W
LayerCount: 2
Fore
SplineSet
192 -134 m 1,0,-1
 127 -134 l 2,1,2
 87 -134 87 -134 79.5 -127 c 128,-1,3
 72 -120 72 -120 72 -80 c 2,4,-1
 72 789 l 2,5,6
 72 829 72 829 79.5 836 c 128,-1,7
 87 843 87 843 127 843 c 2,8,-1
 192 843 l 1,9,-1
 192 -134 l 1,0,-1
363 -38 m 1,10,-1
 363 -80 l 2,11,12
 363 -120 363 -120 355.5 -127 c 128,-1,13
 348 -134 348 -134 308 -134 c 2,14,-1
 223 -134 l 1,15,-1
 223 -38 l 1,16,-1
 363 -38 l 1,10,-1
223 843 m 1,17,-1
 308 843 l 2,18,19
 348 843 348 843 355.5 836 c 128,-1,20
 363 829 363 829 363 789 c 2,21,-1
 363 747 l 1,22,-1
 223 747 l 1,23,-1
 223 843 l 1,17,-1
EndSplineSet
EndChar

StartChar: backslash
Encoding: 92 92 64
Width: 442
GlyphClass: 2
Flags: W
LayerCount: 2
Fore
SplineSet
423 -140 m 1,0,-1
 343 -140 l 1,1,-1
 17 723 l 1,2,-1
 97 723 l 1,3,-1
 423 -140 l 1,0,-1
EndSplineSet
EndChar

StartChar: bracketright
Encoding: 93 93 65
Width: 383
GlyphClass: 2
Flags: W
LayerCount: 2
Fore
SplineSet
191 843 m 1,0,-1
 256 843 l 2,1,2
 296 843 296 843 303.5 836 c 128,-1,3
 311 829 311 829 311 789 c 2,4,-1
 311 -80 l 2,5,6
 311 -120 311 -120 303.5 -127 c 128,-1,7
 296 -134 296 -134 256 -134 c 2,8,-1
 191 -134 l 1,9,-1
 191 843 l 1,0,-1
160 -134 m 1,10,-1
 75 -134 l 2,11,12
 35 -134 35 -134 27.5 -127 c 128,-1,13
 20 -120 20 -120 20 -80 c 2,14,-1
 20 -38 l 1,15,-1
 160 -38 l 1,16,-1
 160 -134 l 1,10,-1
160 747 m 1,17,-1
 20 747 l 1,18,-1
 20 789 l 2,19,20
 20 829 20 829 27.5 836 c 128,-1,21
 35 843 35 843 75 843 c 2,22,-1
 160 843 l 1,23,-1
 160 747 l 1,17,-1
EndSplineSet
EndChar

StartChar: asciicircum
Encoding: 94 94 66
Width: 574
GlyphClass: 2
Flags: W
LayerCount: 2
Fore
SplineSet
534 244 m 1,0,-1
 435 244 l 1,1,-1
 288 532 l 1,2,-1
 139 244 l 1,3,-1
 40 244 l 1,4,-1
 288 723 l 1,5,-1
 534 244 l 1,0,-1
EndSplineSet
EndChar

StartChar: underscore
Encoding: 95 95 67
Width: 601
GlyphClass: 2
Flags: W
LayerCount: 2
Fore
SplineSet
543 -187 m 1,0,-1
 58 -187 l 1,1,-1
 58 -77 l 1,2,-1
 543 -77 l 1,3,-1
 543 -187 l 1,0,-1
EndSplineSet
EndChar

StartChar: grave
Encoding: 96 96 68
Width: 244
GlyphClass: 2
Flags: W
LayerCount: 2
Fore
SplineSet
156 946 m 2,0,1
 194 946 194 946 199 940 c 128,-1,2
 204 934 204 934 204 889 c 2,3,-1
 204 753 l 1,4,-1
 132 753 l 1,5,-1
 40 946 l 1,6,-1
 156 946 l 2,0,1
EndSplineSet
EndChar

StartChar: a
Encoding: 97 97 69
Width: 547
GlyphClass: 2
Flags: W
LayerCount: 2
Fore
SplineSet
301 425 m 1,0,-1
 247 425 l 2,1,2
 216 425 216 425 212 414 c 0,3,4
 206 401 206 401 206 377 c 2,5,-1
 206 123 l 2,6,7
 206 121 206 121 206 111 c 128,-1,8
 206 101 206 101 208 94 c 0,9,10
 212 75 212 75 247 75 c 2,11,-1
 301 75 l 1,12,-1
 301 0 l 1,13,-1
 204 0 l 2,14,15
 166 0 166 0 142 3.5 c 128,-1,16
 118 7 118 7 100 19 c 128,-1,17
 82 31 82 31 73 45.5 c 128,-1,18
 64 60 64 60 58 92 c 1,19,20
 51 137 51 137 51 218 c 128,-1,21
 51 299 51 299 52 327.5 c 128,-1,22
 53 356 53 356 55.5 388 c 128,-1,23
 58 420 58 420 64.5 435 c 128,-1,24
 71 450 71 450 81.5 465.5 c 128,-1,25
 92 481 92 481 109 487 c 0,26,27
 146 500 146 500 204 500 c 2,28,-1
 301 500 l 1,29,-1
 301 425 l 1,0,-1
526 7 m 2,30,31
 526 0 526 0 522 0 c 2,32,-1
 440 0 l 2,33,34
 384 0 384 0 357.5 26 c 128,-1,35
 331 52 331 52 331 111 c 2,36,-1
 331 500 l 1,37,-1
 372 500 l 2,38,39
 435 500 435 500 458 470.5 c 128,-1,40
 481 441 481 441 481 393 c 2,41,-1
 481 113 l 2,42,43
 481 82 481 82 494 78 c 0,44,45
 501 75 501 75 513 75 c 2,46,-1
 518 75 l 2,47,48
 526 75 526 75 526 68 c 2,49,-1
 526 7 l 2,30,31
EndSplineSet
EndChar

StartChar: b
Encoding: 98 98 70
Width: 538
GlyphClass: 2
Flags: W
LayerCount: 2
Fore
SplineSet
207 0 m 1,0,-1
 146 0 l 2,1,2
 102 0 102 0 79.5 21.5 c 128,-1,3
 57 43 57 43 57 77 c 2,4,-1
 57 646 l 2,5,6
 57 680 57 680 79.5 701.5 c 128,-1,7
 102 723 102 723 146 723 c 2,8,-1
 207 723 l 1,9,-1
 207 0 l 1,0,-1
237 500 m 1,10,-1
 334 500 l 2,11,12
 372 500 372 500 396 496.5 c 128,-1,13
 420 493 420 493 438 481 c 128,-1,14
 456 469 456 469 465 454.5 c 128,-1,15
 474 440 474 440 480 408 c 1,16,17
 487 363 487 363 487 282 c 128,-1,18
 487 201 487 201 486 172.5 c 128,-1,19
 485 144 485 144 482.5 112 c 128,-1,20
 480 80 480 80 473.5 65 c 128,-1,21
 467 50 467 50 456.5 34.5 c 128,-1,22
 446 19 446 19 429 13 c 0,23,24
 392 0 392 0 334 0 c 2,25,-1
 237 0 l 1,26,-1
 237 75 l 1,27,-1
 291 75 l 2,28,29
 317 75 317 75 324.5 82 c 128,-1,30
 332 89 332 89 332 104 c 2,31,-1
 332 395 l 2,32,33
 332 411 332 411 324.5 418 c 128,-1,34
 317 425 317 425 291 425 c 2,35,-1
 237 425 l 1,36,-1
 237 500 l 1,10,-1
EndSplineSet
EndChar

StartChar: c
Encoding: 99 99 71
Width: 515
GlyphClass: 2
Flags: W
LayerCount: 2
Fore
SplineSet
206 0 m 1,0,-1
 204 0 l 2,1,2
 105 0 105 0 82 34 c 0,3,4
 71 50 71 50 64.5 65 c 128,-1,5
 58 80 58 80 56 112 c 0,6,7
 51 170 51 170 51 241 c 128,-1,8
 51 312 51 312 52 343.5 c 128,-1,9
 53 375 53 375 58.5 407.5 c 128,-1,10
 64 440 64 440 73 454.5 c 128,-1,11
 82 469 82 469 100 481 c 128,-1,12
 118 493 118 493 142 496.5 c 128,-1,13
 166 500 166 500 204 500 c 2,14,-1
 206 500 l 1,15,-1
 206 0 l 1,0,-1
322 158 m 1,16,17
 389 158 389 158 424 158 c 128,-1,18
 459 158 459 158 460 157.5 c 128,-1,19
 461 157 461 157 463.5 156.5 c 128,-1,20
 466 156 466 156 467 155 c 128,-1,21
 468 154 468 154 469 152.5 c 128,-1,22
 470 151 470 151 470 148 c 0,23,24
 472 141 472 141 472 137 c 2,25,-1
 472 107 l 2,26,27
 472 0 472 0 363 0 c 2,28,-1
 237 0 l 1,29,-1
 237 75 l 1,30,-1
 291 75 l 2,31,32
 312 75 312 75 317 81.5 c 128,-1,33
 322 88 322 88 322 105 c 2,34,-1
 322 158 l 1,16,17
237 500 m 1,35,-1
 363 500 l 2,36,37
 472 500 472 500 472 393 c 2,38,-1
 472 325 l 1,39,40
 405 325 405 325 370 325 c 128,-1,41
 335 325 335 325 334 325.5 c 128,-1,42
 333 326 333 326 330.5 326.5 c 128,-1,43
 328 327 328 327 327 328 c 128,-1,44
 326 329 326 329 325 330.5 c 128,-1,45
 324 332 324 332 324 334 c 0,46,47
 322 342 322 342 322 346 c 2,48,-1
 322 395 l 2,49,50
 322 412 322 412 317 418.5 c 128,-1,51
 312 425 312 425 291 425 c 2,52,-1
 237 425 l 1,53,-1
 237 500 l 1,35,-1
EndSplineSet
EndChar

StartChar: d
Encoding: 100 100 72
Width: 538
GlyphClass: 2
Flags: W
LayerCount: 2
Fore
SplineSet
301 425 m 1,0,-1
 247 425 l 2,1,2
 221 425 221 425 213.5 418 c 128,-1,3
 206 411 206 411 206 395 c 2,4,-1
 206 104 l 2,5,6
 206 89 206 89 213.5 82 c 128,-1,7
 221 75 221 75 247 75 c 2,8,-1
 301 75 l 1,9,-1
 301 0 l 1,10,-1
 204 0 l 2,11,12
 105 0 105 0 82 34 c 0,13,14
 71 50 71 50 64.5 65 c 128,-1,15
 58 80 58 80 56 112 c 0,16,17
 51 170 51 170 51 241 c 128,-1,18
 51 312 51 312 52 343.5 c 128,-1,19
 53 375 53 375 58.5 407.5 c 128,-1,20
 64 440 64 440 73 454.5 c 128,-1,21
 82 469 82 469 100 481 c 128,-1,22
 118 493 118 493 142 496.5 c 128,-1,23
 166 500 166 500 204 500 c 2,24,-1
 301 500 l 1,25,-1
 301 425 l 1,0,-1
331 723 m 1,26,-1
 392 723 l 2,27,28
 436 723 436 723 458.5 701.5 c 128,-1,29
 481 680 481 680 481 646 c 2,30,-1
 481 77 l 2,31,32
 481 43 481 43 458.5 21.5 c 128,-1,33
 436 0 436 0 392 0 c 2,34,-1
 331 0 l 1,35,-1
 331 723 l 1,26,-1
EndSplineSet
EndChar

StartChar: e
Encoding: 101 101 73
Width: 520
GlyphClass: 2
Flags: W
LayerCount: 2
Fore
SplineSet
206 0 m 1,0,-1
 204 0 l 2,1,2
 105 0 105 0 82 34 c 0,3,4
 71 50 71 50 64.5 65 c 128,-1,5
 58 80 58 80 56 112 c 0,6,7
 51 170 51 170 51 241 c 128,-1,8
 51 312 51 312 52 343.5 c 128,-1,9
 53 375 53 375 58.5 407.5 c 128,-1,10
 64 440 64 440 73 454.5 c 128,-1,11
 82 469 82 469 100 481 c 128,-1,12
 118 493 118 493 142 496.5 c 128,-1,13
 166 500 166 500 204 500 c 2,14,-1
 206 500 l 1,15,-1
 206 0 l 1,0,-1
472 158 m 1,16,-1
 472 107 l 2,17,18
 472 0 472 0 363 0 c 2,19,-1
 237 0 l 1,20,-1
 237 75 l 1,21,-1
 291 75 l 2,22,23
 312 75 312 75 317 81.5 c 128,-1,24
 322 88 322 88 322 105 c 2,25,-1
 322 137 l 2,26,27
 322 152 322 152 325.5 154 c 128,-1,28
 329 156 329 156 330 156.5 c 128,-1,29
 331 157 331 157 335.5 157.5 c 128,-1,30
 340 158 340 158 342 158 c 0,31,32
 407 158 407 158 472 158 c 1,16,-1
237 500 m 1,33,-1
 353 500 l 2,34,35
 422 500 422 500 447 473 c 128,-1,36
 472 446 472 446 472 393 c 2,37,-1
 472 305 l 2,38,39
 472 215 472 215 374 215 c 2,40,-1
 227 215 l 1,41,-1
 227 290 l 1,42,-1
 281 290 l 2,43,44
 305 290 305 290 313.5 296 c 128,-1,45
 322 302 322 302 322 319 c 2,46,-1
 322 395 l 2,47,48
 322 412 322 412 317 418.5 c 128,-1,49
 312 425 312 425 291 425 c 2,50,-1
 237 425 l 1,51,-1
 237 500 l 1,33,-1
EndSplineSet
EndChar

StartChar: f
Encoding: 102 102 74
Width: 347
GlyphClass: 2
Flags: W
LayerCount: 2
Fore
SplineSet
231 723 m 2,0,-1
 327 723 l 1,1,2
 333 722 333 722 333 715 c 2,3,-1
 333 654 l 2,4,5
 333 647 333 647 325 647 c 2,6,-1
 284 647 l 2,7,8
 242 647 242 647 242 610 c 2,9,-1
 242 0 l 1,10,-1
 181 0 l 2,11,12
 137 0 137 0 114.5 22 c 128,-1,13
 92 44 92 44 92 78 c 2,14,-1
 92 423 l 1,15,-1
 41 423 l 2,16,17
 16 423 16 423 16 453 c 2,18,-1
 16 500 l 1,19,-1
 92 500 l 1,20,-1
 92 592 l 2,21,22
 92 665 92 665 125 694 c 128,-1,23
 158 723 158 723 231 723 c 2,0,-1
334 500 m 1,24,-1
 334 453 l 2,25,26
 334 423 334 423 309 423 c 2,27,-1
 264 423 l 1,28,-1
 264 500 l 1,29,-1
 334 500 l 1,24,-1
EndSplineSet
EndChar

StartChar: g
Encoding: 103 103 75
Width: 538
GlyphClass: 2
Flags: W
LayerCount: 2
Fore
SplineSet
301 425 m 1,0,-1
 247 425 l 2,1,2
 221 425 221 425 213.5 418 c 128,-1,3
 206 411 206 411 206 395 c 2,4,-1
 206 104 l 2,5,6
 206 89 206 89 213.5 82 c 128,-1,7
 221 75 221 75 247 75 c 2,8,-1
 301 75 l 1,9,-1
 301 0 l 1,10,-1
 204 0 l 2,11,12
 166 0 166 0 142 3.5 c 128,-1,13
 118 7 118 7 100 19 c 128,-1,14
 82 31 82 31 73 45.5 c 128,-1,15
 64 60 64 60 58 92 c 1,16,17
 51 137 51 137 51 218 c 128,-1,18
 51 299 51 299 52 327.5 c 128,-1,19
 53 356 53 356 55.5 388 c 128,-1,20
 58 420 58 420 64.5 435 c 128,-1,21
 71 450 71 450 81.5 465.5 c 128,-1,22
 92 481 92 481 109 487 c 0,23,24
 146 500 146 500 204 500 c 2,25,-1
 301 500 l 1,26,-1
 301 425 l 1,0,-1
216 -64 m 1,27,-1
 216 -117 l 2,28,29
 216 -134 216 -134 221 -140.5 c 128,-1,30
 226 -147 226 -147 247 -147 c 2,31,-1
 301 -147 l 1,32,-1
 301 -222 l 1,33,-1
 175 -222 l 2,34,35
 66 -222 66 -222 66 -115 c 2,36,-1
 66 -85 l 2,37,38
 66 -70 66 -70 69.5 -68 c 128,-1,39
 73 -66 73 -66 74 -65.5 c 128,-1,40
 75 -65 75 -65 79.5 -64.5 c 128,-1,41
 84 -64 84 -64 86 -64 c 0,42,43
 151 -64 151 -64 216 -64 c 1,27,-1
331 500 m 1,44,-1
 392 500 l 2,45,46
 436 500 436 500 458.5 478.5 c 128,-1,47
 481 457 481 457 481 423 c 2,48,-1
 481 -146 l 2,49,50
 481 -180 481 -180 458.5 -201.5 c 128,-1,51
 436 -223 436 -223 392 -223 c 2,52,-1
 331 -223 l 1,53,-1
 331 500 l 1,44,-1
EndSplineSet
EndChar

StartChar: h
Encoding: 104 104 76
Width: 538
GlyphClass: 2
Flags: W
LayerCount: 2
Fore
SplineSet
233 500 m 1,0,-1
 373 500 l 2,1,2
 482 500 482 500 482 393 c 2,3,-1
 482 0 l 1,4,-1
 368 0 l 2,5,6
 352 0 352 0 342 11 c 128,-1,7
 332 22 332 22 332 40 c 2,8,-1
 332 395 l 2,9,10
 332 411 332 411 324.5 418 c 128,-1,11
 317 425 317 425 291 425 c 2,12,-1
 233 425 l 1,13,-1
 233 500 l 1,0,-1
58 723 m 1,14,-1
 119 723 l 2,15,16
 163 723 163 723 185.5 701.5 c 128,-1,17
 208 680 208 680 208 646 c 2,18,-1
 208 0 l 1,19,-1
 94 0 l 2,20,21
 78 0 78 0 68 11 c 128,-1,22
 58 22 58 22 58 40 c 2,23,-1
 58 723 l 1,14,-1
EndSplineSet
EndChar

StartChar: i
Encoding: 105 105 77
Width: 265
GlyphClass: 2
Flags: W
LayerCount: 2
Fore
SplineSet
58 499 m 1,0,-1
 119 499 l 2,1,2
 163 499 163 499 185.5 477.5 c 128,-1,3
 208 456 208 456 208 422 c 2,4,-1
 208 0 l 1,5,-1
 94 0 l 2,6,7
 78 0 78 0 68 11 c 128,-1,8
 58 22 58 22 58 40 c 2,9,-1
 58 499 l 1,0,-1
129 723 m 128,-1,11
 182 723 182 723 193 712.5 c 128,-1,12
 204 702 204 702 204 652 c 128,-1,13
 204 602 204 602 192.5 591 c 128,-1,14
 181 580 181 580 129 580 c 128,-1,15
 77 580 77 580 65.5 591 c 128,-1,16
 54 602 54 602 54 652 c 128,-1,17
 54 702 54 702 65 712.5 c 128,-1,10
 76 723 76 723 129 723 c 128,-1,11
EndSplineSet
EndChar

StartChar: j
Encoding: 106 106 78
Width: 265
GlyphClass: 2
Flags: W
LayerCount: 2
Fore
SplineSet
58 499 m 1,0,-1
 119 499 l 2,1,2
 163 499 163 499 185.5 477.5 c 128,-1,3
 208 456 208 456 208 422 c 2,4,-1
 208 -111 l 2,5,6
 208 -170 208 -170 181.5 -196 c 128,-1,7
 155 -222 155 -222 99 -222 c 2,8,-1
 -1 -222 l 2,9,10
 -7 -222 -7 -222 -7 -215 c 2,11,-1
 -7 -154 l 2,12,13
 -7 -147 -7 -147 1 -147 c 2,14,-1
 26 -147 l 2,15,16
 50 -147 50 -147 54 -138 c 1,17,18
 58 -125 58 -125 58 -109 c 2,19,-1
 58 499 l 1,0,-1
132 723 m 128,-1,21
 185 723 185 723 196 712.5 c 128,-1,22
 207 702 207 702 207 652 c 128,-1,23
 207 602 207 602 195.5 591 c 128,-1,24
 184 580 184 580 132 580 c 128,-1,25
 80 580 80 580 68.5 591 c 128,-1,26
 57 602 57 602 57 652 c 128,-1,27
 57 702 57 702 68 712.5 c 128,-1,20
 79 723 79 723 132 723 c 128,-1,21
EndSplineSet
EndChar

StartChar: k
Encoding: 107 107 79
Width: 526
GlyphClass: 2
Flags: W
LayerCount: 2
Fore
SplineSet
58 723 m 1,0,-1
 119 723 l 2,1,2
 163 723 163 723 185.5 701.5 c 128,-1,3
 208 680 208 680 208 646 c 2,4,-1
 208 0 l 1,5,-1
 94 0 l 2,6,7
 78 0 78 0 68 11 c 128,-1,8
 58 22 58 22 58 40 c 2,9,-1
 58 723 l 1,0,-1
328 227 m 1,10,-1
 442 227 l 2,11,12
 458 227 458 227 468 216 c 128,-1,13
 478 205 478 205 478 187 c 2,14,-1
 478 0 l 1,15,-1
 364 0 l 2,16,17
 348 0 348 0 338 11 c 128,-1,18
 328 22 328 22 328 40 c 2,19,-1
 328 227 l 1,10,-1
468 500 m 1,20,-1
 468 362 l 2,21,22
 468 255 468 255 359 255 c 2,23,-1
 233 255 l 1,24,-1
 233 330 l 1,25,-1
 287 330 l 2,26,27
 308 330 308 330 313 336.5 c 128,-1,28
 318 343 318 343 318 360 c 2,29,-1
 318 459 l 2,30,31
 318 500 318 500 354 500 c 2,32,-1
 468 500 l 1,20,-1
EndSplineSet
EndChar

StartChar: l
Encoding: 108 108 80
Width: 282
GlyphClass: 2
Flags: W
LayerCount: 2
Fore
SplineSet
271 7 m 2,0,1
 271 0 271 0 266 0 c 2,2,-1
 165 0 l 2,3,4
 109 0 109 0 82.5 26 c 128,-1,5
 56 52 56 52 56 111 c 2,6,-1
 56 722 l 1,7,-1
 117 722 l 2,8,9
 161 722 161 722 183.5 700.5 c 128,-1,10
 206 679 206 679 206 645 c 2,11,-1
 206 113 l 2,12,13
 206 82 206 82 219 78 c 0,14,15
 226 75 226 75 238 75 c 2,16,-1
 263 75 l 2,17,18
 271 75 271 75 271 68 c 2,19,-1
 271 7 l 2,0,1
EndSplineSet
EndChar

StartChar: m
Encoding: 109 109 81
Width: 805
GlyphClass: 2
Flags: W
LayerCount: 2
Fore
SplineSet
504 500 m 1,0,-1
 640 500 l 2,1,2
 749 500 749 500 749 393 c 2,3,-1
 749 0 l 1,4,-1
 635 0 l 2,5,6
 619 0 619 0 609 11 c 128,-1,7
 599 22 599 22 599 40 c 2,8,-1
 599 395 l 2,9,10
 599 411 599 411 591.5 418 c 128,-1,11
 584 425 584 425 558 425 c 2,12,-1
 504 425 l 1,13,-1
 504 500 l 1,0,-1
58 500 m 1,14,-1
 119 500 l 2,15,16
 163 500 163 500 185.5 478.5 c 128,-1,17
 208 457 208 457 208 423 c 2,18,-1
 208 0 l 1,19,-1
 94 0 l 2,20,21
 78 0 78 0 68 11 c 128,-1,22
 58 22 58 22 58 40 c 2,23,-1
 58 500 l 1,14,-1
233 500 m 1,24,-1
 369 500 l 2,25,26
 478 500 478 500 478 393 c 2,27,-1
 478 0 l 1,28,-1
 364 0 l 2,29,30
 348 0 348 0 338 11 c 128,-1,31
 328 22 328 22 328 40 c 2,32,-1
 328 395 l 2,33,34
 328 411 328 411 320.5 418 c 128,-1,35
 313 425 313 425 287 425 c 2,36,-1
 233 425 l 1,37,-1
 233 500 l 1,24,-1
EndSplineSet
EndChar

StartChar: n
Encoding: 110 110 82
Width: 538
GlyphClass: 2
Flags: W
LayerCount: 2
Fore
SplineSet
233 500 m 1,0,-1
 373 500 l 2,1,2
 482 500 482 500 482 393 c 2,3,-1
 482 0 l 1,4,-1
 368 0 l 2,5,6
 352 0 352 0 342 11 c 128,-1,7
 332 22 332 22 332 40 c 2,8,-1
 332 395 l 2,9,10
 332 411 332 411 324.5 418 c 128,-1,11
 317 425 317 425 291 425 c 2,12,-1
 233 425 l 1,13,-1
 233 500 l 1,0,-1
58 500 m 1,14,-1
 119 500 l 2,15,16
 163 500 163 500 185.5 478.5 c 128,-1,17
 208 457 208 457 208 423 c 2,18,-1
 208 0 l 1,19,-1
 94 0 l 2,20,21
 78 0 78 0 68 11 c 128,-1,22
 58 22 58 22 58 40 c 2,23,-1
 58 500 l 1,14,-1
EndSplineSet
EndChar

StartChar: o
Encoding: 111 111 83
Width: 537
GlyphClass: 2
Flags: W
LayerCount: 2
Fore
SplineSet
236 500 m 1,0,-1
 333 500 l 2,1,2
 371 500 371 500 395 496.5 c 128,-1,3
 419 493 419 493 437 481 c 128,-1,4
 455 469 455 469 464 454.5 c 128,-1,5
 473 440 473 440 478 408 c 0,6,7
 486 363 486 363 486 282 c 128,-1,8
 486 201 486 201 485 172.5 c 128,-1,9
 484 144 484 144 481.5 112 c 128,-1,10
 479 80 479 80 472.5 65 c 128,-1,11
 466 50 466 50 455.5 34.5 c 128,-1,12
 445 19 445 19 428 13 c 0,13,14
 391 0 391 0 333 0 c 2,15,-1
 331 0 l 1,16,-1
 331 377 l 2,17,18
 331 379 331 379 331 389 c 128,-1,19
 331 399 331 399 330 406 c 0,20,21
 325 425 325 425 290 425 c 2,22,-1
 236 425 l 1,23,-1
 236 500 l 1,0,-1
206 500 m 1,24,-1
 206 123 l 2,25,26
 206 121 206 121 206 111 c 128,-1,27
 206 101 206 101 208 94 c 0,28,29
 212 75 212 75 247 75 c 2,30,-1
 301 75 l 1,31,-1
 301 0 l 1,32,-1
 204 0 l 2,33,34
 166 0 166 0 142 3.5 c 128,-1,35
 118 7 118 7 100 19 c 128,-1,36
 82 31 82 31 73 45.5 c 128,-1,37
 64 60 64 60 58 92 c 1,38,39
 51 137 51 137 51 218 c 128,-1,40
 51 299 51 299 52 327.5 c 128,-1,41
 53 356 53 356 55.5 388 c 128,-1,42
 58 420 58 420 64.5 435 c 128,-1,43
 71 450 71 450 81.5 465.5 c 128,-1,44
 92 481 92 481 109 487 c 0,45,46
 146 500 146 500 204 500 c 2,47,-1
 206 500 l 1,24,-1
EndSplineSet
EndChar

StartChar: p
Encoding: 112 112 84
Width: 538
GlyphClass: 2
Flags: W
LayerCount: 2
Fore
SplineSet
237 500 m 1,0,-1
 334 500 l 2,1,2
 433 500 433 500 456 466 c 0,3,4
 467 450 467 450 473.5 435 c 128,-1,5
 480 420 480 420 482 388 c 0,6,7
 487 330 487 330 487 259 c 128,-1,8
 487 188 487 188 486 156.5 c 128,-1,9
 485 125 485 125 479.5 92.5 c 128,-1,10
 474 60 474 60 465 45.5 c 128,-1,11
 456 31 456 31 438 19 c 128,-1,12
 420 7 420 7 396 3.5 c 128,-1,13
 372 0 372 0 334 0 c 2,14,-1
 237 0 l 1,15,-1
 237 75 l 1,16,-1
 291 75 l 2,17,18
 317 75 317 75 324.5 82 c 128,-1,19
 332 89 332 89 332 104 c 2,20,-1
 332 395 l 2,21,22
 332 411 332 411 324.5 418 c 128,-1,23
 317 425 317 425 291 425 c 2,24,-1
 237 425 l 1,25,-1
 237 500 l 1,0,-1
207 -223 m 1,26,-1
 146 -223 l 2,27,28
 102 -223 102 -223 79.5 -201.5 c 128,-1,29
 57 -180 57 -180 57 -146 c 2,30,-1
 57 423 l 2,31,32
 57 457 57 457 79.5 478.5 c 128,-1,33
 102 500 102 500 146 500 c 2,34,-1
 207 500 l 1,35,-1
 207 -223 l 1,26,-1
EndSplineSet
EndChar

StartChar: q
Encoding: 113 113 85
Width: 538
GlyphClass: 2
Flags: W
LayerCount: 2
Fore
SplineSet
301 425 m 1,0,-1
 247 425 l 2,1,2
 221 425 221 425 213.5 418 c 128,-1,3
 206 411 206 411 206 395 c 2,4,-1
 206 104 l 2,5,6
 206 89 206 89 213.5 82 c 128,-1,7
 221 75 221 75 247 75 c 2,8,-1
 301 75 l 1,9,-1
 301 0 l 1,10,-1
 204 0 l 2,11,12
 166 0 166 0 142 3.5 c 128,-1,13
 118 7 118 7 100 19 c 128,-1,14
 82 31 82 31 73 45.5 c 128,-1,15
 64 60 64 60 58 92 c 1,16,17
 51 137 51 137 51 218 c 128,-1,18
 51 299 51 299 52 327.5 c 128,-1,19
 53 356 53 356 55.5 388 c 128,-1,20
 58 420 58 420 64.5 435 c 128,-1,21
 71 450 71 450 81.5 465.5 c 128,-1,22
 92 481 92 481 109 487 c 0,23,24
 146 500 146 500 204 500 c 2,25,-1
 301 500 l 1,26,-1
 301 425 l 1,0,-1
331 500 m 1,27,-1
 392 500 l 2,28,29
 436 500 436 500 458.5 478.5 c 128,-1,30
 481 457 481 457 481 423 c 2,31,-1
 481 -146 l 2,32,33
 481 -180 481 -180 458.5 -201.5 c 128,-1,34
 436 -223 436 -223 392 -223 c 2,35,-1
 331 -223 l 1,36,-1
 331 500 l 1,27,-1
EndSplineSet
EndChar

StartChar: r
Encoding: 114 114 86
Width: 310
GlyphClass: 2
Flags: W
LayerCount: 2
Fore
SplineSet
165 500 m 2,0,-1
 285 500 l 2,1,2
 291 500 291 500 291 493 c 2,3,-1
 291 432 l 2,4,5
 291 425 291 425 283 425 c 2,6,-1
 238 425 l 2,7,8
 214 425 214 425 210 416 c 1,9,10
 206 403 206 403 206 387 c 2,11,-1
 206 77 l 2,12,13
 206 43 206 43 183.5 21.5 c 128,-1,14
 161 0 161 0 117 0 c 2,15,-1
 56 0 l 1,16,-1
 56 389 l 2,17,18
 56 448 56 448 82.5 474 c 128,-1,19
 109 500 109 500 165 500 c 2,0,-1
EndSplineSet
EndChar

StartChar: s
Encoding: 115 115 87
Width: 507
GlyphClass: 2
Flags: W
LayerCount: 2
Fore
SplineSet
195 500 m 1,0,-1
 195 317 l 2,1,2
 195 300 195 300 200 293.5 c 128,-1,3
 205 287 205 287 226 287 c 2,4,-1
 282 287 l 1,5,-1
 282 212 l 1,6,-1
 154 212 l 2,7,8
 45 212 45 212 45 319 c 2,9,-1
 45 389 l 2,10,11
 45 455 45 455 78.5 477.5 c 128,-1,12
 112 500 112 500 195 500 c 1,0,-1
197 158 m 1,13,-1
 197 105 l 2,14,15
 197 88 197 88 202 81.5 c 128,-1,16
 207 75 207 75 228 75 c 2,17,-1
 282 75 l 1,18,-1
 282 0 l 1,19,-1
 156 0 l 2,20,21
 47 0 47 0 47 107 c 2,22,-1
 47 137 l 2,23,24
 47 152 47 152 50.5 154 c 128,-1,25
 54 156 54 156 55 156.5 c 128,-1,26
 56 157 56 157 60.5 157.5 c 128,-1,27
 65 158 65 158 66 158 c 0,28,29
 132 158 132 158 197 158 c 1,13,-1
312 287 m 1,30,-1
 353 287 l 2,31,32
 462 287 462 287 462 180 c 2,33,-1
 462 111 l 2,34,35
 462 45 462 45 428.5 22.5 c 128,-1,36
 395 0 395 0 312 0 c 1,37,-1
 312 287 l 1,30,-1
225 500 m 1,38,-1
 351 500 l 2,39,40
 460 500 460 500 460 393 c 2,41,-1
 460 341 l 1,42,43
 393 341 393 341 358 341 c 128,-1,44
 323 341 323 341 322 341.5 c 128,-1,45
 321 342 321 342 318.5 342.5 c 128,-1,46
 316 343 316 343 315 344 c 128,-1,47
 314 345 314 345 313 346.5 c 128,-1,48
 312 348 312 348 312 350 c 0,49,50
 310 358 310 358 310 362 c 2,51,-1
 310 395 l 2,52,53
 310 412 310 412 305 418.5 c 128,-1,54
 300 425 300 425 279 425 c 2,55,-1
 225 425 l 1,56,-1
 225 500 l 1,38,-1
EndSplineSet
EndChar

StartChar: t
Encoding: 116 116 88
Width: 351
GlyphClass: 2
Flags: W
LayerCount: 2
Fore
SplineSet
312 8 m 2,0,1
 312 2 312 2 306 0 c 1,2,-1
 230 0 l 2,3,4
 157 0 157 0 124 29 c 128,-1,5
 91 58 91 58 91 131 c 2,6,-1
 91 423 l 1,7,-1
 40 423 l 2,8,9
 15 423 15 423 15 453 c 2,10,-1
 15 500 l 1,11,-1
 91 500 l 1,12,-1
 91 723 l 1,13,-1
 152 723 l 2,14,15
 196 723 196 723 218.5 701 c 128,-1,16
 241 679 241 679 241 645 c 2,17,-1
 241 113 l 2,18,19
 241 76 241 76 283 76 c 2,20,-1
 304 76 l 2,21,22
 312 76 312 76 312 69 c 2,23,-1
 312 8 l 2,0,1
343 500 m 1,24,-1
 343 453 l 2,25,26
 343 423 343 423 318 423 c 2,27,-1
 266 423 l 1,28,-1
 266 500 l 1,29,-1
 343 500 l 1,24,-1
EndSplineSet
EndChar

StartChar: u
Encoding: 117 117 89
Width: 548
GlyphClass: 2
Flags: W
LayerCount: 2
Fore
SplineSet
56 500 m 1,0,-1
 170 500 l 2,1,2
 186 500 186 500 196 489 c 128,-1,3
 206 478 206 478 206 460 c 2,4,-1
 206 105 l 2,5,6
 206 89 206 89 213.5 82 c 128,-1,7
 221 75 221 75 247 75 c 2,8,-1
 305 75 l 1,9,-1
 305 0 l 1,10,-1
 165 0 l 2,11,12
 56 0 56 0 56 107 c 2,13,-1
 56 500 l 1,0,-1
525 7 m 2,14,15
 525 0 525 0 520 0 c 2,16,-1
 419 0 l 2,17,18
 375 0 375 0 352.5 21.5 c 128,-1,19
 330 43 330 43 330 77 c 2,20,-1
 330 500 l 1,21,-1
 444 500 l 2,22,23
 460 500 460 500 470 489 c 128,-1,24
 480 478 480 478 480 460 c 2,25,-1
 480 113 l 2,26,27
 480 82 480 82 493 78 c 0,28,29
 500 75 500 75 512 75 c 2,30,-1
 517 75 l 2,31,32
 525 75 525 75 525 68 c 2,33,-1
 525 7 l 2,14,15
EndSplineSet
EndChar

StartChar: v
Encoding: 118 118 90
Width: 510
GlyphClass: 2
Flags: W
LayerCount: 2
Fore
SplineSet
455 500 m 1,0,-1
 455 156 l 2,1,2
 455 44 455 44 384 14 c 0,3,4
 353 0 353 0 306 0 c 2,5,-1
 270 0 l 1,6,-1
 270 75 l 1,7,8
 305 75 305 75 305 125 c 2,9,-1
 305 459 l 2,10,11
 305 500 305 500 341 500 c 2,12,-1
 455 500 l 1,0,-1
55 500 m 1,13,-1
 169 500 l 2,14,15
 205 500 205 500 205 459 c 2,16,-1
 205 125 l 2,17,18
 205 75 205 75 240 75 c 1,19,-1
 240 0 l 1,20,-1
 204 0 l 2,21,22
 110 0 110 0 80 52 c 1,23,24
 55 93 55 93 55 156 c 2,25,-1
 55 500 l 1,13,-1
EndSplineSet
EndChar

StartChar: w
Encoding: 119 119 91
Width: 808
GlyphClass: 2
Flags: W
LayerCount: 2
Fore
SplineSet
327 500 m 1,0,-1
 441 500 l 2,1,2
 457 500 457 500 467 489 c 128,-1,3
 477 478 477 478 477 460 c 2,4,-1
 477 105 l 2,5,6
 477 89 477 89 484.5 82 c 128,-1,7
 492 75 492 75 518 75 c 2,8,-1
 572 75 l 1,9,-1
 572 0 l 1,10,-1
 436 0 l 2,11,12
 327 0 327 0 327 107 c 2,13,-1
 327 500 l 1,0,-1
56 500 m 1,14,-1
 170 500 l 2,15,16
 186 500 186 500 196 489 c 128,-1,17
 206 478 206 478 206 460 c 2,18,-1
 206 105 l 2,19,20
 206 89 206 89 213.5 82 c 128,-1,21
 221 75 221 75 247 75 c 2,22,-1
 301 75 l 1,23,-1
 301 0 l 1,24,-1
 165 0 l 2,25,26
 56 0 56 0 56 107 c 2,27,-1
 56 500 l 1,14,-1
602 500 m 1,28,-1
 716 500 l 2,29,30
 732 500 732 500 742 489 c 128,-1,31
 752 478 752 478 752 460 c 2,32,-1
 752 77 l 2,33,34
 752 43 752 43 729.5 21.5 c 128,-1,35
 707 0 707 0 663 0 c 2,36,-1
 602 0 l 1,37,-1
 602 500 l 1,28,-1
EndSplineSet
EndChar

StartChar: x
Encoding: 120 120 92
Width: 504
GlyphClass: 2
Flags: W
LayerCount: 2
Fore
SplineSet
452 500 m 1,0,-1
 452 352 l 2,1,2
 452 303 452 303 427.5 279.5 c 128,-1,3
 403 256 403 256 343 256 c 2,4,-1
 267 256 l 1,5,-1
 267 331 l 1,6,-1
 283 331 l 2,7,8
 299 331 299 331 301 344 c 0,9,10
 302 350 302 350 302 361 c 2,11,-1
 302 459 l 2,12,13
 302 500 302 500 338 500 c 2,14,-1
 452 500 l 1,0,-1
237 161 m 1,15,-1
 221 161 l 2,16,17
 205 161 205 161 203 148 c 0,18,19
 202 142 202 142 202 131 c 2,20,-1
 202 41 l 2,21,22
 202 0 202 0 166 0 c 2,23,-1
 52 0 l 1,24,-1
 52 140 l 2,25,26
 52 189 52 189 76.5 212.5 c 128,-1,27
 101 236 101 236 161 236 c 2,28,-1
 237 236 l 1,29,-1
 237 161 l 1,15,-1
267 236 m 1,30,-1
 343 236 l 2,31,32
 403 236 403 236 427.5 212.5 c 128,-1,33
 452 189 452 189 452 140 c 2,34,-1
 452 0 l 1,35,-1
 338 0 l 2,36,37
 302 0 302 0 302 41 c 2,38,-1
 302 131 l 2,39,40
 302 151 302 151 297 156 c 128,-1,41
 292 161 292 161 283 161 c 2,42,-1
 267 161 l 1,43,-1
 267 236 l 1,30,-1
52 500 m 1,44,-1
 166 500 l 2,45,46
 202 500 202 500 202 459 c 2,47,-1
 202 361 l 2,48,49
 202 341 202 341 207 336 c 128,-1,50
 212 331 212 331 221 331 c 2,51,-1
 237 331 l 1,52,-1
 237 256 l 1,53,-1
 161 256 l 2,54,55
 101 256 101 256 76.5 279.5 c 128,-1,56
 52 303 52 303 52 352 c 2,57,-1
 52 500 l 1,44,-1
EndSplineSet
EndChar

StartChar: y
Encoding: 121 121 93
Width: 538
GlyphClass: 2
Flags: W
LayerCount: 2
Fore
SplineSet
56 500 m 1,0,-1
 170 500 l 2,1,2
 186 500 186 500 196 489 c 128,-1,3
 206 478 206 478 206 460 c 2,4,-1
 206 105 l 2,5,6
 206 89 206 89 213.5 82 c 128,-1,7
 221 75 221 75 247 75 c 2,8,-1
 301 75 l 1,9,-1
 301 0 l 1,10,-1
 165 0 l 2,11,12
 56 0 56 0 56 107 c 2,13,-1
 56 500 l 1,0,-1
216 -64 m 1,14,-1
 216 -117 l 2,15,16
 216 -134 216 -134 221 -140.5 c 128,-1,17
 226 -147 226 -147 247 -147 c 2,18,-1
 301 -147 l 1,19,-1
 301 -222 l 1,20,-1
 175 -222 l 2,21,22
 66 -222 66 -222 66 -115 c 2,23,-1
 66 -85 l 2,24,25
 66 -70 66 -70 69.5 -68 c 128,-1,26
 73 -66 73 -66 74 -65.5 c 128,-1,27
 75 -65 75 -65 79.5 -64.5 c 128,-1,28
 84 -64 84 -64 86 -64 c 0,29,30
 151 -64 151 -64 216 -64 c 1,14,-1
331 500 m 1,31,-1
 392 500 l 2,32,33
 436 500 436 500 458.5 478.5 c 128,-1,34
 481 457 481 457 481 423 c 2,35,-1
 481 -146 l 2,36,37
 481 -180 481 -180 458.5 -201.5 c 128,-1,38
 436 -223 436 -223 392 -223 c 2,39,-1
 331 -223 l 1,40,-1
 331 500 l 1,31,-1
EndSplineSet
EndChar

StartChar: z
Encoding: 122 122 94
Width: 518
GlyphClass: 2
Flags: W
LayerCount: 2
Fore
SplineSet
333 500 m 2,0,-1
 430 500 l 2,1,2
 466 500 466 500 466 459 c 2,3,-1
 466 318 l 2,4,5
 466 242 466 242 450 228 c 1,6,7
 427 210 427 210 387 210 c 2,8,-1
 231 210 l 1,9,-1
 231 285 l 1,10,-1
 285 285 l 2,11,12
 306 285 306 285 311 291.5 c 128,-1,13
 316 298 316 298 316 314 c 2,14,-1
 316 481 l 2,15,16
 316 496 316 496 321 498 c 128,-1,17
 326 500 326 500 333 500 c 2,0,-1
201 0 m 1,18,-1
 112 0 l 2,19,20
 51 0 51 0 51 61 c 2,21,-1
 51 218 l 2,22,23
 51 249 51 249 63 267 c 128,-1,24
 75 285 75 285 110 285 c 2,25,-1
 201 285 l 1,26,-1
 201 0 l 1,18,-1
466 159 m 1,27,-1
 466 55 l 2,28,29
 466 0 466 0 411 0 c 2,30,-1
 231 0 l 1,31,-1
 231 75 l 1,32,-1
 285 75 l 2,33,34
 306 75 306 75 311 81.5 c 128,-1,35
 316 88 316 88 316 105 c 2,36,-1
 316 159 l 1,37,-1
 466 159 l 1,27,-1
288 425 m 1,38,-1
 234 425 l 2,39,40
 213 425 213 425 208 418.5 c 128,-1,41
 203 412 203 412 203 395 c 2,42,-1
 203 341 l 1,43,-1
 53 341 l 1,44,-1
 53 445 l 2,45,46
 53 500 53 500 108 500 c 2,47,-1
 288 500 l 1,48,-1
 288 425 l 1,38,-1
EndSplineSet
EndChar

StartChar: braceleft
Encoding: 123 123 95
Width: 347
GlyphClass: 2
Flags: W
LayerCount: 2
Fore
SplineSet
202 723 m 1,0,-1
 202 384 l 2,1,2
 202 332 202 332 178.5 302.5 c 128,-1,3
 155 273 155 273 113 273 c 2,4,-1
 43 273 l 2,5,6
 37 273 37 273 37 280 c 2,7,-1
 37 331 l 2,8,9
 37 338 37 338 45 338 c 2,10,-1
 50 338 l 2,11,12
 74 338 74 338 78 348 c 0,13,14
 82 360 82 360 82 376 c 2,15,-1
 82 616 l 2,16,17
 82 673 82 673 102.5 698 c 128,-1,18
 123 723 123 723 171 723 c 2,19,-1
 202 723 l 1,0,-1
228 -106 m 1,20,-1
 273 -106 l 2,21,22
 298 -106 298 -106 313 -121 c 128,-1,23
 328 -136 328 -136 328 -160 c 2,24,-1
 328 -202 l 1,25,-1
 228 -202 l 1,26,-1
 228 -106 l 1,20,-1
37 240 m 2,27,28
 37 247 37 247 42 247 c 2,29,-1
 113 247 l 2,30,31
 155 247 155 247 178.5 217.5 c 128,-1,32
 202 188 202 188 202 136 c 2,33,-1
 202 -203 l 1,34,-1
 171 -203 l 2,35,36
 123 -203 123 -203 102.5 -178 c 128,-1,37
 82 -153 82 -153 82 -96 c 2,38,-1
 82 144 l 2,39,40
 82 175 82 175 69 180 c 0,41,42
 62 182 62 182 50 182 c 2,43,-1
 45 182 l 2,44,45
 37 182 37 182 37 189 c 2,46,-1
 37 240 l 2,27,28
328 723 m 1,47,-1
 328 681 l 2,48,49
 328 657 328 657 313 642 c 128,-1,50
 298 627 298 627 273 627 c 2,51,-1
 228 627 l 1,52,-1
 228 723 l 1,53,-1
 328 723 l 1,47,-1
EndSplineSet
EndChar

StartChar: bar
Encoding: 124 124 96
Width: 226
GlyphClass: 2
Flags: W
LayerCount: 2
Fore
SplineSet
153 -142 m 1,0,-1
 73 -142 l 1,1,-1
 73 774 l 1,2,-1
 153 774 l 1,3,-1
 153 -142 l 1,0,-1
EndSplineSet
EndChar

StartChar: braceright
Encoding: 125 125 97
Width: 347
GlyphClass: 2
Flags: W
LayerCount: 2
Fore
SplineSet
310 280 m 2,0,1
 310 273 310 273 306 273 c 2,2,-1
 234 273 l 2,3,4
 192 273 192 273 168.5 302.5 c 128,-1,5
 145 332 145 332 145 384 c 2,6,-1
 145 723 l 1,7,-1
 176 723 l 2,8,9
 224 723 224 723 244.5 698 c 128,-1,10
 265 673 265 673 265 616 c 2,11,-1
 265 376 l 2,12,13
 265 345 265 345 278 340 c 0,14,15
 285 338 285 338 297 338 c 2,16,-1
 302 338 l 2,17,18
 310 338 310 338 310 331 c 2,19,-1
 310 280 l 2,0,1
119 -202 m 1,20,-1
 19 -202 l 1,21,-1
 19 -160 l 2,22,23
 19 -136 19 -136 34 -121 c 128,-1,24
 49 -106 49 -106 74 -106 c 2,25,-1
 119 -106 l 1,26,-1
 119 -202 l 1,20,-1
234 247 m 2,27,-1
 304 247 l 2,28,29
 310 247 310 247 310 240 c 2,30,-1
 310 189 l 2,31,32
 310 182 310 182 302 182 c 2,33,-1
 297 182 l 2,34,35
 273 182 273 182 269 172 c 0,36,37
 265 160 265 160 265 144 c 2,38,-1
 265 -96 l 2,39,40
 265 -153 265 -153 244.5 -178 c 128,-1,41
 224 -203 224 -203 176 -203 c 2,42,-1
 145 -203 l 1,43,-1
 145 136 l 2,44,45
 145 188 145 188 168.5 217.5 c 128,-1,46
 192 247 192 247 234 247 c 2,27,-1
119 627 m 1,47,-1
 74 627 l 2,48,49
 49 627 49 627 34 642 c 128,-1,50
 19 657 19 657 19 681 c 2,51,-1
 19 723 l 1,52,-1
 119 723 l 1,53,-1
 119 627 l 1,47,-1
EndSplineSet
EndChar

StartChar: asciitilde
Encoding: 126 126 98
Width: 672
GlyphClass: 2
Flags: W
LayerCount: 2
Fore
SplineSet
67 223 m 2,0,1
 60 223 60 223 60 228 c 2,2,-1
 60 339 l 2,3,4
 60 378 60 378 84.5 403.5 c 128,-1,5
 109 429 109 429 151 429 c 0,6,7
 164 429 164 429 171 428 c 2,8,-1
 477 385 l 2,9,10
 480 384 480 384 485 384 c 0,11,12
 510 384 510 384 510 417 c 2,13,-1
 510 422 l 2,14,15
 510 430 510 430 517 430 c 2,16,-1
 608 430 l 2,17,18
 615 430 615 430 615 426 c 2,19,-1
 615 314 l 2,20,21
 615 274 615 274 590.5 248.5 c 128,-1,22
 566 223 566 223 524 223 c 0,23,24
 518 223 518 223 504 225 c 2,25,-1
 198 268 l 1,26,-1
 190 269 l 1,27,28
 165 269 165 269 165 236 c 2,29,-1
 165 231 l 2,30,31
 165 223 165 223 158 223 c 2,32,-1
 67 223 l 2,0,1
EndSplineSet
EndChar

StartChar: exclamdown
Encoding: 161 161 99
Width: 291
GlyphClass: 2
Flags: W
LayerCount: 2
Fore
SplineSet
110 236 m 2,0,-1
 225 236 l 1,1,-1
 225 -228 l 1,2,-1
 109 -228 l 2,3,4
 76 -228 76 -228 70.5 -222 c 128,-1,5
 65 -216 65 -216 65 -181 c 2,6,-1
 65 189 l 2,7,8
 65 224 65 224 70.5 230 c 128,-1,9
 76 236 76 236 110 236 c 2,0,-1
222 357 m 2,10,11
 222 345 222 345 208 345 c 0,12,13
 146 345 146 345 110.5 345 c 128,-1,14
 75 345 75 345 73 347 c 128,-1,15
 71 349 71 349 70 357 c 1,16,-1
 70 486 l 1,17,18
 71 494 71 494 73 496 c 128,-1,19
 75 498 75 498 83 498 c 0,20,21
 146 498 146 498 208 498 c 0,22,23
 222 498 222 498 222 486 c 2,24,-1
 222 357 l 2,10,11
EndSplineSet
EndChar

StartChar: cent
Encoding: 162 162 100
Width: 480
GlyphClass: 2
Flags: W
LayerCount: 2
Fore
SplineSet
185 75 m 1,0,-1
 183 75 l 2,1,2
 84 75 84 75 60 110 c 0,3,4
 50 125 50 125 43.5 140 c 128,-1,5
 37 155 37 155 34 187 c 0,6,7
 30 245 30 245 30 316 c 128,-1,8
 30 387 30 387 31 418.5 c 128,-1,9
 32 450 32 450 37.5 482.5 c 128,-1,10
 43 515 43 515 52 529.5 c 128,-1,11
 61 544 61 544 79 556 c 128,-1,12
 97 568 97 568 121 571.5 c 128,-1,13
 145 575 145 575 183 575 c 2,14,-1
 185 575 l 1,15,-1
 185 75 l 1,0,-1
301 233 m 1,16,17
 368 233 368 233 403 233 c 128,-1,18
 438 233 438 233 439 232.5 c 128,-1,19
 440 232 440 232 442.5 231.5 c 128,-1,20
 445 231 445 231 446 230 c 128,-1,21
 447 229 447 229 448 227.5 c 128,-1,22
 449 226 449 226 450 224 c 0,23,24
 451 216 451 216 451 212 c 2,25,-1
 451 182 l 2,26,27
 451 75 451 75 342 75 c 2,28,-1
 296 75 l 1,29,-1
 296 -223 l 1,30,-1
 216 -223 l 1,31,-1
 216 150 l 1,32,-1
 270 150 l 2,33,34
 291 150 291 150 296 156.5 c 128,-1,35
 301 163 301 163 301 180 c 2,36,-1
 301 233 l 1,16,17
296 576 m 1,37,-1
 342 576 l 2,38,39
 451 576 451 576 451 469 c 2,40,-1
 451 401 l 1,41,42
 384 401 384 401 349 401 c 128,-1,43
 314 401 314 401 313 401.5 c 128,-1,44
 312 402 312 402 309.5 402.5 c 128,-1,45
 307 403 307 403 306 404 c 128,-1,46
 305 405 305 405 304 406.5 c 128,-1,47
 303 408 303 408 302 410 c 0,48,49
 301 418 301 418 301 422 c 2,50,-1
 301 471 l 2,51,52
 301 497 301 497 283 500 c 1,53,-1
 216 500 l 1,54,-1
 216 832 l 1,55,-1
 296 832 l 1,56,-1
 296 576 l 1,37,-1
EndSplineSet
EndChar

StartChar: sterling
Encoding: 163 163 101
Width: 555
GlyphClass: 2
Flags: W
LayerCount: 2
Fore
SplineSet
405 334 m 1,0,-1
 252 334 l 1,1,-1
 252 111 l 2,2,3
 252 59 252 59 228.5 29.5 c 128,-1,4
 205 0 205 0 163 0 c 2,5,-1
 53 0 l 2,6,7
 47 0 47 0 47 7 c 2,8,-1
 47 98 l 2,9,10
 47 105 47 105 55 105 c 2,11,-1
 60 105 l 2,12,13
 84 105 84 105 88 114 c 1,14,15
 92 127 92 127 92 143 c 2,16,-1
 92 334 l 1,17,-1
 46 334 l 1,18,-1
 46 404 l 1,19,-1
 92 404 l 1,20,-1
 92 616 l 2,21,22
 92 673 92 673 112.5 698 c 128,-1,23
 133 723 133 723 181 723 c 2,24,-1
 252 723 l 1,25,-1
 252 404 l 1,26,-1
 405 404 l 1,27,-1
 405 334 l 1,0,-1
438 223 m 2,28,-1
 514 223 l 2,29,30
 528 223 528 223 528 202 c 2,31,-1
 528 112 l 2,32,33
 528 47 528 47 508 23.5 c 128,-1,34
 488 0 488 0 430 0 c 2,35,-1
 294 0 l 1,36,-1
 294 95 l 1,37,-1
 402 95 l 2,38,39
 412 95 412 95 415 101.5 c 128,-1,40
 418 108 418 108 418 124 c 2,41,-1
 418 202 l 2,42,43
 418 215 418 215 421 219 c 128,-1,44
 424 223 424 223 438 223 c 2,28,-1
418 723 m 1,45,-1
 418 662 l 2,46,47
 418 638 418 638 403 623 c 128,-1,48
 388 608 388 608 363 608 c 2,49,-1
 278 608 l 1,50,-1
 278 723 l 1,51,-1
 418 723 l 1,45,-1
EndSplineSet
EndChar

StartChar: currency
Encoding: 164 164 102
Width: 667
GlyphClass: 2
Flags: W
LayerCount: 2
Fore
SplineSet
211 540 m 1,0,1
 266 573 266 573 332 573 c 128,-1,2
 398 573 398 573 454 537 c 1,3,-1
 577 661 l 1,4,-1
 633 604 l 1,5,-1
 514 484 l 1,6,7
 565 420 565 420 565 339.5 c 128,-1,8
 565 259 565 259 515 194 c 1,9,-1
 633 75 l 1,10,-1
 577 18 l 1,11,-1
 456 139 l 1,12,13
 398 102 398 102 330.5 102 c 128,-1,14
 263 102 263 102 209 136 c 1,15,-1
 91 18 l 1,16,-1
 35 75 l 1,17,-1
 149 190 l 1,18,19
 97 257 97 257 97 339.5 c 128,-1,20
 97 422 97 422 150 488 c 1,21,-1
 35 604 l 1,22,-1
 91 661 l 1,23,-1
 211 540 l 1,0,1
447 453 m 128,-1,25
 399 500 399 500 331.5 500 c 128,-1,26
 264 500 264 500 217 453 c 128,-1,27
 170 406 170 406 170 338.5 c 128,-1,28
 170 271 170 271 217 223.5 c 128,-1,29
 264 176 264 176 331.5 176 c 128,-1,30
 399 176 399 176 447 223.5 c 128,-1,31
 495 271 495 271 495 338.5 c 128,-1,24
 495 406 495 406 447 453 c 128,-1,25
EndSplineSet
EndChar

StartChar: yen
Encoding: 165 165 103
Width: 566
GlyphClass: 2
Flags: W
LayerCount: 2
Fore
SplineSet
459 114 m 1,0,-1
 359 114 l 1,1,-1
 359 0 l 1,2,-1
 254 0 l 2,3,4
 220 0 220 0 209.5 11 c 128,-1,5
 199 22 199 22 199 57 c 2,6,-1
 199 114 l 1,7,-1
 100 114 l 1,8,-1
 100 184 l 1,9,-1
 199 184 l 1,10,-1
 199 224 l 1,11,-1
 100 224 l 1,12,-1
 100 294 l 1,13,-1
 459 294 l 1,14,-1
 459 224 l 1,15,-1
 359 224 l 1,16,-1
 359 184 l 1,17,-1
 459 184 l 1,18,-1
 459 114 l 1,0,-1
206 723 m 1,19,-1
 206 458 l 2,20,21
 206 442 206 442 211 435.5 c 128,-1,22
 216 429 216 429 234 429 c 2,23,-1
 270 429 l 1,24,-1
 270 334 l 1,25,-1
 114 334 l 2,26,27
 76 334 76 334 61 351.5 c 128,-1,28
 46 369 46 369 46 406 c 2,29,-1
 46 676 l 2,30,31
 46 723 46 723 101 723 c 2,32,-1
 206 723 l 1,19,-1
361 723 m 1,33,-1
 466 723 l 2,34,35
 496 723 496 723 508.5 711 c 128,-1,36
 521 699 521 699 521 666 c 2,37,-1
 521 404 l 2,38,39
 521 334 521 334 463 334 c 2,40,-1
 310 334 l 1,41,-1
 310 429 l 1,42,-1
 334 429 l 2,43,44
 352 429 352 429 356.5 435.5 c 128,-1,45
 361 442 361 442 361 458 c 2,46,-1
 361 723 l 1,33,-1
EndSplineSet
EndChar

StartChar: brokenbar
Encoding: 166 166 104
Width: 224
GlyphClass: 2
Flags: W
LayerCount: 2
Fore
SplineSet
152 351 m 1,0,-1
 72 351 l 1,1,-1
 72 774 l 1,2,-1
 152 774 l 1,3,-1
 152 351 l 1,0,-1
152 -223 m 1,4,-1
 72 -223 l 1,5,-1
 72 200 l 1,6,-1
 152 200 l 1,7,-1
 152 -223 l 1,4,-1
EndSplineSet
EndChar

StartChar: section
Encoding: 167 167 105
Width: 630
GlyphClass: 2
Flags: W
LayerCount: 2
Fore
SplineSet
236 723 m 1,0,-1
 236 425 l 1,1,2
 239 406 239 406 277 406 c 2,3,-1
 351 406 l 1,4,-1
 351 311 l 1,5,-1
 237 311 l 1,6,-1
 236 185 l 2,7,8
 236 169 236 169 244 162 c 128,-1,9
 252 155 252 155 278 155 c 2,10,-1
 352 155 l 1,11,-1
 352 60 l 1,12,-1
 215 60 l 2,13,14
 161 60 161 60 129 68.5 c 128,-1,15
 97 77 97 77 81 100 c 128,-1,16
 65 123 65 123 60.5 151 c 128,-1,17
 56 179 56 179 56 229 c 2,18,-1
 56 530 l 2,19,20
 56 585 56 585 60.5 616 c 128,-1,21
 65 647 65 647 81.5 674 c 128,-1,22
 98 701 98 701 132.5 712 c 128,-1,23
 167 723 167 723 224 723 c 2,24,-1
 236 723 l 1,0,-1
395 407 m 1,25,-1
 441 407 l 2,26,27
 517 407 517 407 546.5 371.5 c 128,-1,28
 576 336 576 336 576 258 c 2,29,-1
 576 -74 l 2,30,31
 576 -152 576 -152 546.5 -187.5 c 128,-1,32
 517 -223 517 -223 441 -223 c 2,33,-1
 395 -223 l 1,34,-1
 395 407 l 1,25,-1
276 723 m 1,35,-1
 403 723 l 2,36,37
 476 723 476 723 513.5 698 c 128,-1,38
 551 673 551 673 551 611 c 2,39,-1
 551 521 l 2,40,41
 551 500 551 500 537 500 c 2,42,-1
 411 500 l 2,43,44
 397 500 397 500 394 504 c 128,-1,45
 391 508 391 508 391 521 c 2,46,-1
 391 599 l 2,47,48
 391 615 391 615 386.5 621.5 c 128,-1,49
 382 628 382 628 364 628 c 2,50,-1
 276 628 l 1,51,-1
 276 723 l 1,35,-1
89 0 m 2,52,-1
 215 0 l 2,53,54
 229 0 229 0 232 -4 c 128,-1,55
 235 -8 235 -8 235 -21 c 2,56,-1
 235 -99 l 2,57,58
 235 -115 235 -115 239.5 -121.5 c 128,-1,59
 244 -128 244 -128 262 -128 c 2,60,-1
 350 -128 l 1,61,-1
 350 -223 l 1,62,-1
 223 -223 l 2,63,64
 150 -223 150 -223 112.5 -198 c 128,-1,65
 75 -173 75 -173 75 -111 c 2,66,-1
 75 -21 l 2,67,68
 75 0 75 0 89 0 c 2,52,-1
EndSplineSet
EndChar

StartChar: dieresis
Encoding: 168 168 106
Width: 457
GlyphClass: 2
Flags: W
LayerCount: 2
Fore
SplineSet
289 922 m 2,0,-1
 406 922 l 1,1,2
 417 920 417 920 417 904 c 0,3,4
 417 901 417 901 417 900 c 2,5,-1
 417 795 l 2,6,7
 417 789 417 789 415 787 c 128,-1,8
 413 785 413 785 406 784 c 1,9,-1
 289 784 l 1,10,11
 282 785 282 785 280 787 c 128,-1,12
 278 789 278 789 278 795 c 2,13,-1
 278 913 l 2,14,15
 278 915 278 915 279 916 c 128,-1,16
 280 917 280 917 281 918 c 0,17,18
 283 922 283 922 289 922 c 2,0,-1
179 900 m 2,19,-1
 179 809 l 2,20,21
 179 806 179 806 179 800 c 128,-1,22
 179 794 179 794 178 791 c 0,23,24
 177 784 177 784 168 784 c 2,25,-1
 50 784 l 1,26,27
 40 785 40 785 40 795 c 2,28,-1
 40 909 l 2,29,30
 40 920 40 920 50 922 c 1,31,-1
 168 922 l 1,32,33
 179 920 179 920 179 903 c 0,34,35
 179 901 179 901 179 900 c 2,19,-1
EndSplineSet
EndChar

StartChar: copyright
Encoding: 169 169 107
Width: 840
GlyphClass: 2
Flags: W
LayerCount: 2
Fore
SplineSet
144.5 614 m 128,-1,1
 259 728 259 728 421 728 c 128,-1,2
 583 728 583 728 697 613.5 c 128,-1,3
 811 499 811 499 811 338 c 128,-1,4
 811 177 811 177 696.5 62.5 c 128,-1,5
 582 -52 582 -52 421 -52 c 128,-1,6
 260 -52 260 -52 145 62 c 128,-1,7
 30 176 30 176 30 338 c 128,-1,0
 30 500 30 500 144.5 614 c 128,-1,1
372 138 m 1,8,-1
 370 138 l 2,9,10
 325 138 325 138 292 148 c 0,11,12
 272 155 272 155 256 192 c 0,13,14
 247 212 247 212 246 257 c 128,-1,15
 245 302 245 302 245 348.5 c 128,-1,16
 245 395 245 395 245.5 420 c 128,-1,17
 246 445 246 445 250.5 473 c 128,-1,18
 255 501 255 501 262 512 c 128,-1,19
 269 523 269 523 284 533.5 c 128,-1,20
 299 544 299 544 319 546.5 c 128,-1,21
 339 549 339 549 370 549 c 2,22,-1
 372 549 l 1,23,-1
 372 138 l 1,8,-1
468 267 m 1,24,-1
 576 267 l 2,25,26
 584 267 584 267 587.5 264 c 128,-1,27
 591 261 591 261 591 251 c 2,28,-1
 591 227 l 2,29,30
 591 138 591 138 501 138 c 2,31,-1
 398 138 l 1,32,-1
 398 200 l 1,33,-1
 441 200 l 2,34,35
 459 200 459 200 463.5 205.5 c 128,-1,36
 468 211 468 211 468 224 c 2,37,-1
 468 267 l 1,24,-1
648.5 566 m 128,-1,39
 554 661 554 661 421 661 c 128,-1,40
 288 661 288 661 193 566 c 128,-1,41
 98 471 98 471 98 337.5 c 128,-1,42
 98 204 98 204 193 109.5 c 128,-1,43
 288 15 288 15 421 15 c 128,-1,44
 554 15 554 15 648.5 109.5 c 128,-1,45
 743 204 743 204 743 337.5 c 128,-1,38
 743 471 743 471 648.5 566 c 128,-1,39
398 549 m 1,46,-1
 501 549 l 2,47,48
 591 549 591 549 591 461 c 2,49,-1
 591 404 l 1,50,-1
 484 404 l 2,51,52
 475 404 475 404 471.5 407 c 128,-1,53
 468 410 468 410 468 421 c 2,54,-1
 468 462 l 2,55,56
 468 476 468 476 463.5 481.5 c 128,-1,57
 459 487 459 487 441 487 c 2,58,-1
 398 487 l 1,59,-1
 398 549 l 1,46,-1
EndSplineSet
EndChar

StartChar: ordfeminine
Encoding: 170 170 108
Width: 355
GlyphClass: 2
Flags: W
LayerCount: 2
Fore
SplineSet
188 684 m 1,0,-1
 157 684 l 2,1,2
 146 684 146 684 140.5 680 c 128,-1,3
 135 676 135 676 134.5 672 c 128,-1,4
 134 668 134 668 134 657 c 2,5,-1
 134 513 l 2,6,7
 134 490 134 490 141 488 c 128,-1,8
 148 486 148 486 157 486 c 2,9,-1
 188 486 l 1,10,-1
 188 444 l 1,11,-1
 133 444 l 2,12,13
 74 444 74 444 60.5 468 c 128,-1,14
 47 492 47 492 47 584 c 128,-1,15
 47 676 47 676 60 701 c 128,-1,16
 73 726 73 726 133 726 c 2,17,-1
 188 726 l 1,18,-1
 188 684 l 1,0,-1
205 726 m 1,19,-1
 228 726 l 2,20,21
 290 726 290 726 290 666 c 2,22,-1
 290 508 l 2,23,24
 290 494 290 494 294.5 490 c 128,-1,25
 299 486 299 486 308 486 c 2,26,-1
 310 486 l 2,27,28
 315 486 315 486 315 482 c 2,29,-1
 315 448 l 1,30,-1
 312 444 l 1,31,-1
 266 444 l 2,32,33
 235 444 235 444 220 458.5 c 128,-1,34
 205 473 205 473 205 507 c 2,35,-1
 205 726 l 1,19,-1
EndSplineSet
EndChar

StartChar: guillemotleft
Encoding: 171 171 109
Width: 544
GlyphClass: 2
Flags: W
LayerCount: 2
Fore
SplineSet
323 499 m 1,0,-1
 175 266 l 1,1,-1
 323 22 l 1,2,-1
 241 -30 l 1,3,-1
 16 266 l 1,4,-1
 241 551 l 1,5,-1
 323 499 l 1,0,-1
507 469 m 1,6,-1
 399 266 l 1,7,-1
 497 52 l 1,8,-1
 425 0 l 1,9,-1
 250 266 l 1,10,-1
 435 521 l 1,11,-1
 507 469 l 1,6,-1
EndSplineSet
EndChar

StartChar: logicalnot
Encoding: 172 172 110
Width: 654
GlyphClass: 2
Flags: W
LayerCount: 2
Fore
SplineSet
589 160 m 1,0,-1
 504 160 l 1,1,-1
 504 345 l 1,2,-1
 40 345 l 1,3,-1
 40 440 l 1,4,-1
 589 440 l 1,5,-1
 589 160 l 1,0,-1
EndSplineSet
EndChar

StartChar: softhyphen
Encoding: 173 173 111
Width: 489
GlyphClass: 2
Flags: W
LayerCount: 2
Fore
SplineSet
431 253 m 1,0,-1
 58 253 l 1,1,-1
 58 363 l 1,2,-1
 431 363 l 1,3,-1
 431 253 l 1,0,-1
EndSplineSet
EndChar

StartChar: registered
Encoding: 174 174 112
Width: 840
GlyphClass: 2
Flags: W
LayerCount: 2
Fore
SplineSet
144.5 634 m 128,-1,1
 259 748 259 748 421 748 c 128,-1,2
 583 748 583 748 697 633.5 c 128,-1,3
 811 519 811 519 811 358 c 128,-1,4
 811 197 811 197 696.5 82.5 c 128,-1,5
 582 -32 582 -32 421 -32 c 128,-1,6
 260 -32 260 -32 145 82 c 128,-1,7
 30 196 30 196 30 358 c 128,-1,0
 30 520 30 520 144.5 634 c 128,-1,1
648.5 586 m 128,-1,9
 554 681 554 681 421 681 c 128,-1,10
 288 681 288 681 193 586 c 128,-1,11
 98 491 98 491 98 357.5 c 128,-1,12
 98 224 98 224 193 129.5 c 128,-1,13
 288 35 288 35 421 35 c 128,-1,14
 554 35 554 35 648.5 129.5 c 128,-1,15
 743 224 743 224 743 357.5 c 128,-1,8
 743 491 743 491 648.5 586 c 128,-1,9
373 117 m 1,16,-1
 295 117 l 2,17,18
 269 117 269 117 261 125.5 c 128,-1,19
 253 134 253 134 253 160 c 2,20,-1
 253 562 l 2,21,22
 253 575 253 575 261 583.5 c 128,-1,23
 269 592 269 592 281 592 c 2,24,-1
 373 592 l 1,25,-1
 373 117 l 1,16,-1
403 592 m 1,26,-1
 496 592 l 2,27,28
 578 592 578 592 600.5 565 c 128,-1,29
 623 538 623 538 623 461.5 c 128,-1,30
 623 385 623 385 601 358.5 c 128,-1,31
 579 332 579 332 496 332 c 2,32,-1
 403 332 l 1,33,-1
 403 402 l 1,34,-1
 459 402 l 2,35,36
 478 402 478 402 483.5 408 c 128,-1,37
 489 414 489 414 489 425 c 2,38,-1
 489 497 l 2,39,40
 489 509 489 509 483.5 514 c 128,-1,41
 478 519 478 519 459 519 c 2,42,-1
 403 519 l 1,43,-1
 403 592 l 1,26,-1
472 310 m 1,44,-1
 568 310 l 2,45,46
 591 310 591 310 600 301 c 128,-1,47
 609 292 609 292 609 267 c 2,48,-1
 609 117 l 1,49,-1
 502 117 l 2,50,51
 490 117 490 117 481 125.5 c 128,-1,52
 472 134 472 134 472 147 c 2,53,-1
 472 310 l 1,44,-1
EndSplineSet
EndChar

StartChar: macron
Encoding: 175 175 113
Width: 395
GlyphClass: 2
Flags: W
LayerCount: 2
Fore
SplineSet
59 864 m 2,0,-1
 336 864 l 2,1,2
 349 864 349 864 352 858 c 128,-1,3
 355 852 355 852 355 836.5 c 128,-1,4
 355 821 355 821 355 807 c 128,-1,5
 355 793 355 793 354 786 c 0,6,7
 353 773 353 773 336 773 c 2,8,-1
 59 773 l 2,9,10
 46 773 46 773 43 778.5 c 128,-1,11
 40 784 40 784 40 797 c 128,-1,12
 40 810 40 810 40 830.5 c 128,-1,13
 40 851 40 851 42.5 857.5 c 128,-1,14
 45 864 45 864 59 864 c 2,0,-1
EndSplineSet
EndChar

StartChar: degree
Encoding: 176 176 114
Width: 368
GlyphClass: 2
Flags: W
LayerCount: 2
Fore
SplineSet
76 711.5 m 128,-1,1
 119 756 119 756 182 756 c 128,-1,2
 245 756 245 756 290 712 c 128,-1,3
 335 668 335 668 335 604 c 128,-1,4
 335 540 335 540 289.5 495 c 128,-1,5
 244 450 244 450 182 450 c 128,-1,6
 120 450 120 450 76.5 495.5 c 128,-1,7
 33 541 33 541 33 604 c 128,-1,0
 33 667 33 667 76 711.5 c 128,-1,1
244 664.5 m 128,-1,9
 218 689 218 689 182 689 c 128,-1,10
 146 689 146 689 122 664 c 128,-1,11
 98 639 98 639 98 602.5 c 128,-1,12
 98 566 98 566 122 541.5 c 128,-1,13
 146 517 146 517 182 517 c 128,-1,14
 218 517 218 517 244 541 c 128,-1,15
 270 565 270 565 270 602.5 c 128,-1,8
 270 640 270 640 244 664.5 c 128,-1,9
EndSplineSet
EndChar

StartChar: plusminus
Encoding: 177 177 115
Width: 653
GlyphClass: 2
Flags: W
LayerCount: 2
Fore
SplineSet
383 500 m 1,0,-1
 606 500 l 1,1,-1
 606 400 l 1,2,-1
 383 400 l 1,3,-1
 383 161 l 1,4,-1
 283 161 l 1,5,-1
 283 400 l 1,6,-1
 47 400 l 1,7,-1
 47 500 l 1,8,-1
 283 500 l 1,9,-1
 283 720 l 1,10,-1
 383 720 l 1,11,-1
 383 500 l 1,0,-1
606 0 m 1,12,-1
 47 0 l 1,13,-1
 47 100 l 1,14,-1
 606 100 l 1,15,-1
 606 0 l 1,12,-1
EndSplineSet
EndChar

StartChar: twosuperior
Encoding: 178 178 116
Width: 290
GlyphClass: 2
Flags: W
LayerCount: 2
Fore
SplineSet
176 724 m 1,0,-1
 205 724 l 2,1,2
 237 724 237 724 237 686 c 2,3,-1
 237 588 l 2,4,5
 237 554 237 554 203 554 c 2,6,-1
 150 554 l 1,7,-1
 150 590 l 1,8,-1
 165 590 l 2,9,10
 176 590 176 590 176 602 c 2,11,-1
 176 724 l 1,0,-1
135 554 m 1,12,-1
 124 554 l 2,13,14
 114 554 114 554 114 543 c 2,15,-1
 114 445 l 1,16,-1
 81 445 l 2,17,18
 62 445 62 445 57 451 c 128,-1,19
 52 457 52 457 52 482 c 2,20,-1
 52 563 l 2,21,22
 52 580 52 580 58 585 c 128,-1,23
 64 590 64 590 82 590 c 2,24,-1
 135 590 l 1,25,-1
 135 554 l 1,12,-1
129 489 m 1,26,-1
 228 489 l 2,27,28
 237 489 237 489 237 479 c 2,29,-1
 237 445 l 1,30,-1
 129 445 l 1,31,-1
 129 489 l 1,26,-1
160 687 m 1,32,-1
 124 687 l 2,33,34
 116 687 116 687 114 684.5 c 128,-1,35
 112 682 112 682 112 676 c 2,36,-1
 112 633 l 1,37,-1
 69 633 l 2,38,39
 55 633 55 633 52.5 635.5 c 128,-1,40
 50 638 50 638 50 649 c 2,41,-1
 50 682 l 2,42,43
 50 704 50 704 56.5 714 c 128,-1,44
 63 724 63 724 84 724 c 2,45,-1
 160 724 l 1,46,-1
 160 687 l 1,32,-1
EndSplineSet
EndChar

StartChar: threesuperior
Encoding: 179 179 117
Width: 289
GlyphClass: 2
Flags: W
LayerCount: 2
Fore
SplineSet
174 723 m 1,0,-1
 207 723 l 2,1,2
 223 723 223 723 229.5 716 c 128,-1,3
 236 709 236 709 236 693 c 2,4,-1
 236 622 l 2,5,6
 236 604 236 604 226 596 c 1,7,8
 236 587 236 587 236 565 c 2,9,-1
 236 477 l 2,10,11
 236 456 236 456 230 450 c 128,-1,12
 224 444 224 444 203 444 c 2,13,-1
 174 444 l 1,14,-1
 174 556 l 2,15,16
 174 567 174 567 164 567 c 2,17,-1
 122 567 l 1,18,-1
 122 604 l 1,19,-1
 163 604 l 2,20,21
 174 604 174 604 174 611 c 2,22,-1
 174 723 l 1,0,-1
159 686 m 1,23,-1
 122 686 l 2,24,25
 110 686 110 686 110 675 c 2,26,-1
 110 632 l 1,27,-1
 68 632 l 2,28,29
 50 632 50 632 49.5 635.5 c 128,-1,30
 49 639 49 639 49 648 c 2,31,-1
 49 681 l 2,32,33
 49 703 49 703 55 713 c 128,-1,34
 61 723 61 723 83 723 c 2,35,-1
 159 723 l 1,36,-1
 159 686 l 1,23,-1
110 535 m 1,37,-1
 110 492 l 2,38,39
 110 481 110 481 122 481 c 2,40,-1
 159 481 l 1,41,-1
 159 444 l 1,42,-1
 83 444 l 2,43,44
 61 444 61 444 55 454 c 128,-1,45
 49 464 49 464 49 485 c 2,46,-1
 49 518 l 2,47,48
 49 532 49 532 53 533.5 c 128,-1,49
 57 535 57 535 68 535 c 2,50,-1
 110 535 l 1,37,-1
EndSplineSet
EndChar

StartChar: acute
Encoding: 180 180 118
Width: 244
GlyphClass: 2
Flags: W
LayerCount: 2
Fore
SplineSet
40 753 m 1,0,-1
 40 889 l 2,1,2
 40 934 40 934 45 940 c 128,-1,3
 50 946 50 946 88 946 c 2,4,-1
 204 946 l 1,5,-1
 112 753 l 1,6,-1
 40 753 l 1,0,-1
EndSplineSet
EndChar

StartChar: mu
Encoding: 181 181 119
Width: 528
GlyphClass: 2
Flags: W
LayerCount: 2
Fore
SplineSet
483 500 m 1,0,-1
 483 107 l 2,1,2
 483 0 483 0 374 0 c 2,3,-1
 238 0 l 1,4,-1
 238 75 l 1,5,-1
 292 75 l 2,6,7
 318 75 318 75 325.5 82 c 128,-1,8
 333 89 333 89 333 105 c 2,9,-1
 333 460 l 2,10,11
 333 478 333 478 343 489 c 128,-1,12
 353 500 353 500 369 500 c 2,13,-1
 483 500 l 1,0,-1
213 500 m 1,14,-1
 213 -146 l 2,15,16
 213 -180 213 -180 190.5 -201.5 c 128,-1,17
 168 -223 168 -223 124 -223 c 2,18,-1
 63 -223 l 1,19,-1
 63 460 l 2,20,21
 63 478 63 478 73 489 c 128,-1,22
 83 500 83 500 99 500 c 2,23,-1
 213 500 l 1,14,-1
EndSplineSet
EndChar

StartChar: paragraph
Encoding: 182 182 120
Width: 567
GlyphClass: 2
Flags: W
LayerCount: 2
Fore
SplineSet
274 648 m 1,0,-1
 260 648 l 2,1,2
 244 648 244 648 241 626 c 0,3,4
 240 618 240 618 240 600 c 2,5,-1
 240 346 l 2,6,7
 240 308 240 308 245.5 303 c 128,-1,8
 251 298 251 298 260 298 c 2,9,-1
 274 298 l 1,10,-1
 274 223 l 1,11,-1
 197 223 l 2,12,13
 159 223 159 223 135 226.5 c 128,-1,14
 111 230 111 230 93 242 c 128,-1,15
 75 254 75 254 66 268.5 c 128,-1,16
 57 283 57 283 52 316 c 0,17,18
 44 360 44 360 44 441 c 128,-1,19
 44 522 44 522 45 550.5 c 128,-1,20
 46 579 46 579 48.5 611 c 128,-1,21
 51 643 51 643 57.5 658 c 128,-1,22
 64 673 64 673 74.5 688.5 c 128,-1,23
 85 704 85 704 102 710 c 0,24,25
 139 723 139 723 197 723 c 2,26,-1
 274 723 l 1,27,-1
 274 648 l 1,0,-1
386 0 m 1,28,-1
 314 0 l 1,29,-1
 314 723 l 1,30,-1
 386 723 l 1,31,-1
 386 0 l 1,28,-1
416 723 m 1,32,-1
 441 723 l 2,33,34
 481 723 481 723 488.5 716 c 128,-1,35
 496 709 496 709 496 669 c 2,36,-1
 496 54 l 2,37,38
 496 14 496 14 488.5 7 c 128,-1,39
 481 0 481 0 441 0 c 2,40,-1
 416 0 l 1,41,-1
 416 723 l 1,32,-1
EndSplineSet
EndChar

StartChar: periodcentered
Encoding: 183 183 121
Width: 272
GlyphClass: 2
Flags: W
LayerCount: 2
Fore
SplineSet
214 243 m 2,0,1
 214 231 214 231 200 231 c 0,2,3
 136 231 136 231 100 231 c 128,-1,4
 64 231 64 231 61.5 233 c 128,-1,5
 59 235 59 235 58 243 c 1,6,-1
 58 375 l 1,7,8
 59 384 59 384 61.5 386 c 128,-1,9
 64 388 64 388 72 388 c 0,10,11
 137 388 137 388 171 388 c 128,-1,12
 205 388 205 388 206 388 c 0,13,14
 211 385 211 385 211.5 383.5 c 128,-1,15
 212 382 212 382 213 380 c 128,-1,16
 214 378 214 378 214 375 c 2,17,-1
 214 243 l 2,0,1
EndSplineSet
EndChar

StartChar: cedilla
Encoding: 184 184 122
Width: 236
GlyphClass: 2
Flags: W
LayerCount: 2
Fore
SplineSet
151 -79 m 2,0,-1
 192 -80 l 2,1,2
 205 -80 205 -80 210 -79 c 0,3,4
 221 -76 221 -76 221 -51 c 2,5,-1
 221 33 l 1,6,-1
 296 33 l 1,7,-1
 296 -103 l 2,8,9
 296 -151 296 -151 278.5 -167 c 128,-1,10
 261 -183 261 -183 200 -183 c 2,11,-1
 140 -183 l 1,12,-1
 140 -89 l 2,13,14
 140 -82 140 -82 141.5 -80.5 c 128,-1,15
 143 -79 143 -79 151 -79 c 2,0,-1
EndSplineSet
EndChar

StartChar: onesuperior
Encoding: 185 185 123
Width: 248
GlyphClass: 2
Flags: W
LayerCount: 2
Fore
SplineSet
110 723 m 1,0,-1
 150 723 l 2,1,2
 163 723 163 723 167 718.5 c 128,-1,3
 171 714 171 714 171 701 c 2,4,-1
 171 488 l 1,5,-1
 202 488 l 2,6,7
 212 488 212 488 212 481 c 2,8,-1
 212 444 l 1,9,-1
 123 444 l 2,10,11
 110 444 110 444 110 459 c 2,12,-1
 110 723 l 1,0,-1
98 444 m 1,13,-1
 42 444 l 1,14,-1
 42 481 l 2,15,16
 42 488 42 488 52 488 c 2,17,-1
 98 488 l 1,18,-1
 98 444 l 1,13,-1
98 678 m 1,19,-1
 56 678 l 2,20,21
 46 678 46 678 46 689 c 2,22,-1
 46 723 l 1,23,-1
 98 723 l 1,24,-1
 98 678 l 1,19,-1
EndSplineSet
EndChar

StartChar: ordmasculine
Encoding: 186 186 124
Width: 340
GlyphClass: 2
Flags: W
LayerCount: 2
Fore
SplineSet
151 728 m 1,0,-1
 206 728 l 2,1,2
 265 728 265 728 278.5 704 c 128,-1,3
 292 680 292 680 292 587.5 c 128,-1,4
 292 495 292 495 279 470.5 c 128,-1,5
 266 446 266 446 206 446 c 2,6,-1
 205 446 l 1,7,-1
 205 659 l 2,8,9
 205 660 205 660 205 665.5 c 128,-1,10
 205 671 205 671 204 675 c 0,11,12
 203 686 203 686 182 686 c 2,13,-1
 151 686 l 1,14,-1
 151 728 l 1,0,-1
134 728 m 1,15,-1
 134 515 l 2,16,17
 134 492 134 492 141 490 c 128,-1,18
 148 488 148 488 157 488 c 2,19,-1
 188 488 l 1,20,-1
 188 446 l 1,21,-1
 133 446 l 2,22,23
 74 446 74 446 60.5 470 c 128,-1,24
 47 494 47 494 47 586 c 128,-1,25
 47 678 47 678 60 703 c 128,-1,26
 73 728 73 728 133 728 c 2,27,-1
 134 728 l 1,15,-1
EndSplineSet
EndChar

StartChar: guillemotright
Encoding: 187 187 125
Width: 544
GlyphClass: 2
Flags: W
LayerCount: 2
Fore
SplineSet
528 266 m 1,0,-1
 303 -30 l 1,1,-1
 221 22 l 1,2,-1
 369 266 l 1,3,-1
 221 499 l 1,4,-1
 303 551 l 1,5,-1
 528 266 l 1,0,-1
294 266 m 1,6,-1
 119 0 l 1,7,-1
 47 52 l 1,8,-1
 145 266 l 1,9,-1
 37 469 l 1,10,-1
 109 521 l 1,11,-1
 294 266 l 1,6,-1
EndSplineSet
EndChar

StartChar: onequarter
Encoding: 188 188 126
Width: 553
GlyphClass: 2
Flags: W
LayerCount: 2
Fore
SplineSet
432 279 m 1,0,-1
 472 279 l 2,1,2
 485 279 485 279 488.5 274.5 c 128,-1,3
 492 270 492 270 492 256 c 2,4,-1
 492 153 l 1,5,-1
 515 153 l 2,6,7
 526 153 526 153 526 145 c 2,8,-1
 526 116 l 1,9,-1
 492 116 l 1,10,-1
 492 0 l 1,11,-1
 444 0 l 2,12,13
 432 0 432 0 432 15 c 2,14,-1
 432 279 l 1,0,-1
386 279 m 1,15,-1
 386 163 l 2,16,17
 386 155 386 155 390 154 c 128,-1,18
 394 153 394 153 401 153 c 2,19,-1
 415 153 l 1,20,-1
 415 116 l 1,21,-1
 369 116 l 2,22,23
 328 116 328 116 328 151 c 2,24,-1
 328 242 l 2,25,26
 328 264 328 264 335 271.5 c 128,-1,27
 342 279 342 279 362 279 c 2,28,-1
 386 279 l 1,15,-1
108 723 m 1,29,-1
 149 723 l 2,30,31
 163 723 163 723 167 718.5 c 128,-1,32
 171 714 171 714 171 700 c 2,33,-1
 171 488 l 1,34,-1
 201 488 l 2,35,36
 208 488 208 488 209.5 487 c 128,-1,37
 211 486 211 486 211 481 c 2,38,-1
 211 444 l 1,39,-1
 121 444 l 2,40,41
 108 444 108 444 108 459 c 2,42,-1
 108 723 l 1,29,-1
97 444 m 1,43,-1
 40 444 l 1,44,-1
 40 481 l 2,45,46
 40 486 40 486 41.5 487 c 128,-1,47
 43 488 43 488 50 488 c 2,48,-1
 97 488 l 1,49,-1
 97 444 l 1,43,-1
97 679 m 1,50,-1
 55 679 l 2,51,52
 44 679 44 679 44 689 c 2,53,-1
 44 723 l 1,54,-1
 97 723 l 1,55,-1
 97 679 l 1,50,-1
108 0 m 1,56,-1
 38 0 l 1,57,-1
 440 723 l 1,58,-1
 510 723 l 1,59,-1
 108 0 l 1,56,-1
EndSplineSet
EndChar

StartChar: onehalf
Encoding: 189 189 127
Width: 554
GlyphClass: 2
Flags: W
LayerCount: 2
Fore
SplineSet
450 279 m 1,0,-1
 479 279 l 2,1,2
 511 279 511 279 511 242 c 2,3,-1
 511 140 l 2,4,5
 511 105 511 105 478 105 c 2,6,-1
 421 105 l 1,7,-1
 421 145 l 1,8,-1
 439 145 l 2,9,10
 447 145 447 145 448.5 146.5 c 128,-1,11
 450 148 450 148 450 153 c 2,12,-1
 450 279 l 1,0,-1
393 105 m 2,13,14
 382 105 382 105 382 95 c 2,15,-1
 382 0 l 1,16,-1
 357 0 l 2,17,18
 337 0 337 0 329 8 c 128,-1,19
 321 16 321 16 321 37 c 2,20,-1
 321 107 l 2,21,22
 321 124 321 124 332.5 134.5 c 128,-1,23
 344 145 344 145 362 145 c 2,24,-1
 403 145 l 1,25,-1
 403 105 l 1,26,-1
 393 105 l 2,13,14
397 45 m 1,27,-1
 502 45 l 2,28,29
 511 45 511 45 511 35 c 2,30,-1
 511 0 l 1,31,-1
 397 0 l 1,32,-1
 397 45 l 1,27,-1
434 243 m 1,33,-1
 397 243 l 2,34,35
 389 243 389 243 387 240.5 c 128,-1,36
 385 238 385 238 385 231 c 2,37,-1
 385 185 l 1,38,-1
 351 185 l 2,39,40
 323 185 323 185 323 211 c 2,41,-1
 323 238 l 2,42,43
 323 259 323 259 329.5 269 c 128,-1,44
 336 279 336 279 358 279 c 2,45,-1
 434 279 l 1,46,-1
 434 243 l 1,33,-1
108 723 m 1,47,-1
 149 723 l 2,48,49
 163 723 163 723 167 718.5 c 128,-1,50
 171 714 171 714 171 700 c 2,51,-1
 171 488 l 1,52,-1
 201 488 l 2,53,54
 208 488 208 488 209.5 487 c 128,-1,55
 211 486 211 486 211 481 c 2,56,-1
 211 444 l 1,57,-1
 121 444 l 2,58,59
 108 444 108 444 108 459 c 2,60,-1
 108 723 l 1,47,-1
97 444 m 1,61,-1
 40 444 l 1,62,-1
 40 481 l 2,63,64
 40 486 40 486 41.5 487 c 128,-1,65
 43 488 43 488 50 488 c 2,66,-1
 97 488 l 1,67,-1
 97 444 l 1,61,-1
97 679 m 1,68,-1
 55 679 l 2,69,70
 44 679 44 679 44 689 c 2,71,-1
 44 723 l 1,72,-1
 97 723 l 1,73,-1
 97 679 l 1,68,-1
106 0 m 1,74,-1
 36 0 l 1,75,-1
 438 723 l 1,76,-1
 508 723 l 1,77,-1
 106 0 l 1,74,-1
EndSplineSet
EndChar

StartChar: threequarters
Encoding: 190 190 128
Width: 545
GlyphClass: 2
Flags: W
LayerCount: 2
Fore
SplineSet
424 279 m 1,0,-1
 464 279 l 2,1,2
 477 279 477 279 480.5 274.5 c 128,-1,3
 484 270 484 270 484 256 c 2,4,-1
 484 153 l 1,5,-1
 507 153 l 2,6,7
 518 153 518 153 518 145 c 2,8,-1
 518 116 l 1,9,-1
 484 116 l 1,10,-1
 484 0 l 1,11,-1
 436 0 l 2,12,13
 424 0 424 0 424 15 c 2,14,-1
 424 279 l 1,0,-1
378 279 m 1,15,-1
 378 163 l 2,16,17
 378 155 378 155 382 154 c 128,-1,18
 386 153 386 153 393 153 c 2,19,-1
 407 153 l 1,20,-1
 407 116 l 1,21,-1
 361 116 l 2,22,23
 320 116 320 116 320 151 c 2,24,-1
 320 242 l 2,25,26
 320 264 320 264 327 271.5 c 128,-1,27
 334 279 334 279 354 279 c 2,28,-1
 378 279 l 1,15,-1
167 723 m 1,29,-1
 201 723 l 2,30,31
 216 723 216 723 222 716.5 c 128,-1,32
 228 710 228 710 228 693 c 2,33,-1
 228 615 l 2,34,35
 228 598 228 598 220 589 c 1,36,37
 228 581 228 581 228 558 c 2,38,-1
 228 480 l 2,39,40
 228 456 228 456 222.5 450 c 128,-1,41
 217 444 217 444 197 444 c 2,42,-1
 168 444 l 1,43,-1
 168 549 l 2,44,45
 168 560 168 560 157 560 c 2,46,-1
 124 560 l 1,47,-1
 124 597 l 1,48,-1
 157 597 l 2,49,50
 167 597 167 597 167 608 c 2,51,-1
 167 723 l 1,29,-1
109 539 m 1,52,-1
 109 493 l 2,53,54
 109 480 109 480 120 480 c 2,55,-1
 153 480 l 1,56,-1
 153 444 l 1,57,-1
 80 444 l 2,58,59
 65 444 65 444 57.5 450 c 128,-1,60
 50 456 50 456 49 463 c 128,-1,61
 48 470 48 470 48 485 c 2,62,-1
 48 513 l 2,63,64
 48 530 48 530 55 534.5 c 128,-1,65
 62 539 62 539 73 539 c 2,66,-1
 109 539 l 1,52,-1
153 687 m 1,67,-1
 120 687 l 2,68,69
 112 687 112 687 110.5 684.5 c 128,-1,70
 109 682 109 682 109 675 c 2,71,-1
 109 629 l 1,72,-1
 73 629 l 2,73,74
 57 629 57 629 52.5 636 c 128,-1,75
 48 643 48 643 48 656 c 2,76,-1
 48 682 l 2,77,78
 48 697 48 697 49 704 c 128,-1,79
 50 711 50 711 57.5 717 c 128,-1,80
 65 723 65 723 80 723 c 2,81,-1
 153 723 l 1,82,-1
 153 687 l 1,67,-1
101 0 m 1,83,-1
 31 0 l 1,84,-1
 433 723 l 1,85,-1
 503 723 l 1,86,-1
 101 0 l 1,83,-1
EndSplineSet
EndChar

StartChar: questiondown
Encoding: 191 191 129
Width: 507
GlyphClass: 2
Flags: W
LayerCount: 2
Fore
SplineSet
195 -207 m 1,0,-1
 120 -207 l 2,1,2
 35 -207 35 -207 35 -110 c 2,3,-1
 35 86 l 2,4,5
 35 176 35 176 123 176 c 2,6,-1
 275 176 l 1,7,-1
 275 81 l 1,8,-1
 222 81 l 2,9,10
 204 81 204 81 199.5 74.5 c 128,-1,11
 195 68 195 68 195 52 c 2,12,-1
 195 -207 l 1,0,-1
387 311 m 2,13,14
 422 311 422 311 437 299 c 128,-1,15
 452 287 452 287 452 254 c 2,16,-1
 452 163 l 2,17,18
 452 111 452 111 434 96 c 128,-1,19
 416 81 416 81 354 81 c 2,20,-1
 301 81 l 1,21,-1
 302 311 l 1,22,-1
 387 311 l 2,13,14
234 -112 m 1,23,-1
 268 -112 l 2,24,25
 289 -112 289 -112 294 -105.5 c 128,-1,26
 299 -99 299 -99 299 -82 c 2,27,-1
 299 -4 l 1,28,-1
 450 -4 l 1,29,-1
 450 -100 l 2,30,31
 450 -207 450 -207 302 -207 c 2,32,-1
 234 -207 l 1,33,-1
 234 -112 l 1,23,-1
297 502 m 2,34,35
 297 513 297 513 309 513 c 0,36,37
 366 513 366 513 398 513 c 128,-1,38
 430 513 430 513 432 511 c 128,-1,39
 434 509 434 509 435 502 c 1,40,-1
 435 385 l 1,41,42
 434 378 434 378 432 376 c 128,-1,43
 430 374 430 374 423 374 c 0,44,45
 366 374 366 374 309 374 c 0,46,47
 297 374 297 374 297 385 c 2,48,-1
 297 502 l 2,34,35
EndSplineSet
EndChar

StartChar: Agrave
Encoding: 192 192 130
Width: 611
GlyphClass: 2
Flags: W
LayerCount: 2
Fore
SplineSet
340 628 m 1,0,-1
 247 628 l 2,1,2
 231 628 231 628 231 620 c 2,3,-1
 231 0 l 1,4,-1
 126 0 l 2,5,6
 92 0 92 0 81.5 11 c 128,-1,7
 71 22 71 22 71 57 c 2,8,-1
 71 666 l 2,9,10
 71 701 71 701 81.5 712 c 128,-1,11
 92 723 92 723 126 723 c 2,12,-1
 340 723 l 1,13,-1
 340 628 l 1,0,-1
380 723 m 1,14,-1
 485 723 l 2,15,16
 519 723 519 723 529.5 712 c 128,-1,17
 540 701 540 701 540 666 c 2,18,-1
 540 58 l 2,19,20
 540 23 540 23 529 11.5 c 128,-1,21
 518 0 518 0 485 0 c 2,22,-1
 380 0 l 1,23,-1
 380 335 l 1,24,-1
 271 335 l 1,25,-1
 271 430 l 1,26,-1
 380 430 l 1,27,-1
 380 723 l 1,14,-1
295 946 m 2,28,29
 333 946 333 946 338 940 c 128,-1,30
 343 934 343 934 343 889 c 2,31,-1
 343 753 l 1,32,-1
 271 753 l 1,33,-1
 179 946 l 1,34,-1
 295 946 l 2,28,29
EndSplineSet
EndChar

StartChar: Aacute
Encoding: 193 193 131
Width: 611
GlyphClass: 2
Flags: W
LayerCount: 2
Fore
SplineSet
340 628 m 1,0,-1
 247 628 l 2,1,2
 231 628 231 628 231 620 c 2,3,-1
 231 0 l 1,4,-1
 126 0 l 2,5,6
 92 0 92 0 81.5 11 c 128,-1,7
 71 22 71 22 71 57 c 2,8,-1
 71 666 l 2,9,10
 71 701 71 701 81.5 712 c 128,-1,11
 92 723 92 723 126 723 c 2,12,-1
 340 723 l 1,13,-1
 340 628 l 1,0,-1
380 723 m 1,14,-1
 485 723 l 2,15,16
 519 723 519 723 529.5 712 c 128,-1,17
 540 701 540 701 540 666 c 2,18,-1
 540 58 l 2,19,20
 540 23 540 23 529 11.5 c 128,-1,21
 518 0 518 0 485 0 c 2,22,-1
 380 0 l 1,23,-1
 380 335 l 1,24,-1
 271 335 l 1,25,-1
 271 430 l 1,26,-1
 380 430 l 1,27,-1
 380 723 l 1,14,-1
266 753 m 1,28,-1
 266 889 l 2,29,30
 266 934 266 934 271 940 c 128,-1,31
 276 946 276 946 314 946 c 2,32,-1
 430 946 l 1,33,-1
 338 753 l 1,34,-1
 266 753 l 1,28,-1
EndSplineSet
EndChar

StartChar: Acircumflex
Encoding: 194 194 132
Width: 611
GlyphClass: 2
Flags: W
LayerCount: 2
Fore
SplineSet
340 628 m 1,0,-1
 247 628 l 2,1,2
 231 628 231 628 231 620 c 2,3,-1
 231 0 l 1,4,-1
 126 0 l 2,5,6
 92 0 92 0 81.5 11 c 128,-1,7
 71 22 71 22 71 57 c 2,8,-1
 71 666 l 2,9,10
 71 701 71 701 81.5 712 c 128,-1,11
 92 723 92 723 126 723 c 2,12,-1
 340 723 l 1,13,-1
 340 628 l 1,0,-1
380 723 m 1,14,-1
 485 723 l 2,15,16
 519 723 519 723 529.5 712 c 128,-1,17
 540 701 540 701 540 666 c 2,18,-1
 540 58 l 2,19,20
 540 23 540 23 529 11.5 c 128,-1,21
 518 0 518 0 485 0 c 2,22,-1
 380 0 l 1,23,-1
 380 335 l 1,24,-1
 271 335 l 1,25,-1
 271 430 l 1,26,-1
 380 430 l 1,27,-1
 380 723 l 1,14,-1
250 936 m 2,28,-1
 358 936 l 2,29,30
 368 936 368 936 373 935 c 128,-1,31
 378 934 378 934 382 933.5 c 128,-1,32
 386 933 386 933 389.5 928.5 c 128,-1,33
 393 924 393 924 394.5 921 c 128,-1,34
 396 918 396 918 401 907.5 c 128,-1,35
 406 897 406 897 410 889 c 2,36,-1
 474 763 l 1,37,-1
 363 763 l 1,38,-1
 306 883 l 1,39,-1
 249 763 l 1,40,-1
 137 763 l 1,41,-1
 213 904 l 2,42,43
 227 931 227 931 232 933 c 0,44,45
 238 936 238 936 250 936 c 2,28,-1
EndSplineSet
EndChar

StartChar: Atilde
Encoding: 195 195 133
Width: 611
GlyphClass: 2
Flags: W
LayerCount: 2
Fore
SplineSet
340 628 m 1,0,-1
 247 628 l 2,1,2
 231 628 231 628 231 620 c 2,3,-1
 231 0 l 1,4,-1
 126 0 l 2,5,6
 92 0 92 0 81.5 11 c 128,-1,7
 71 22 71 22 71 57 c 2,8,-1
 71 666 l 2,9,10
 71 701 71 701 81.5 712 c 128,-1,11
 92 723 92 723 126 723 c 2,12,-1
 340 723 l 1,13,-1
 340 628 l 1,0,-1
380 723 m 1,14,-1
 485 723 l 2,15,16
 519 723 519 723 529.5 712 c 128,-1,17
 540 701 540 701 540 666 c 2,18,-1
 540 58 l 2,19,20
 540 23 540 23 529 11.5 c 128,-1,21
 518 0 518 0 485 0 c 2,22,-1
 380 0 l 1,23,-1
 380 335 l 1,24,-1
 271 335 l 1,25,-1
 271 430 l 1,26,-1
 380 430 l 1,27,-1
 380 723 l 1,14,-1
412 906 m 2,28,-1
 459 906 l 1,29,-1
 462 903 l 1,30,-1
 462 840 l 2,31,32
 462 816 462 816 447.5 802 c 128,-1,33
 433 788 433 788 406 788 c 2,34,-1
 399 788 l 1,35,-1
 227 813 l 1,36,-1
 222 813 l 2,37,38
 209 813 209 813 209 798 c 2,39,-1
 209 794 l 2,40,41
 209 786 209 786 205 786 c 2,42,-1
 152 786 l 1,43,-1
 149 792 l 1,44,-1
 149 854 l 2,45,46
 149 876 149 876 163.5 891 c 128,-1,47
 178 906 178 906 204 906 c 2,48,-1
 212 906 l 1,49,-1
 384 879 l 1,50,-1
 388 878 l 1,51,52
 402 878 402 878 402 897 c 2,53,-1
 402 900 l 2,54,55
 402 906 402 906 412 906 c 2,28,-1
EndSplineSet
EndChar

StartChar: Adieresis
Encoding: 196 196 134
Width: 611
GlyphClass: 2
Flags: W
LayerCount: 2
Fore
SplineSet
340 628 m 1,0,-1
 247 628 l 2,1,2
 231 628 231 628 231 620 c 2,3,-1
 231 0 l 1,4,-1
 126 0 l 2,5,6
 92 0 92 0 81.5 11 c 128,-1,7
 71 22 71 22 71 57 c 2,8,-1
 71 666 l 2,9,10
 71 701 71 701 81.5 712 c 128,-1,11
 92 723 92 723 126 723 c 2,12,-1
 340 723 l 1,13,-1
 340 628 l 1,0,-1
380 723 m 1,14,-1
 485 723 l 2,15,16
 519 723 519 723 529.5 712 c 128,-1,17
 540 701 540 701 540 666 c 2,18,-1
 540 58 l 2,19,20
 540 23 540 23 529 11.5 c 128,-1,21
 518 0 518 0 485 0 c 2,22,-1
 380 0 l 1,23,-1
 380 335 l 1,24,-1
 271 335 l 1,25,-1
 271 430 l 1,26,-1
 380 430 l 1,27,-1
 380 723 l 1,14,-1
367 922 m 2,28,-1
 484 922 l 1,29,30
 495 920 495 920 495 904 c 0,31,32
 495 901 495 901 495 900 c 2,33,-1
 495 795 l 2,34,35
 495 789 495 789 493 787 c 128,-1,36
 491 785 491 785 484 784 c 1,37,-1
 367 784 l 1,38,39
 360 785 360 785 358 787 c 128,-1,40
 356 789 356 789 356 795 c 2,41,-1
 356 913 l 2,42,43
 356 915 356 915 357 916 c 128,-1,44
 358 917 358 917 359 918 c 0,45,46
 361 922 361 922 367 922 c 2,28,-1
257 900 m 2,47,-1
 257 809 l 2,48,49
 257 806 257 806 257 800 c 128,-1,50
 257 794 257 794 256 791 c 0,51,52
 255 784 255 784 246 784 c 2,53,-1
 128 784 l 1,54,55
 118 785 118 785 118 795 c 2,56,-1
 118 909 l 2,57,58
 118 920 118 920 128 922 c 1,59,-1
 246 922 l 1,60,61
 257 920 257 920 257 903 c 0,62,63
 257 901 257 901 257 900 c 2,47,-1
EndSplineSet
EndChar

StartChar: Aring
Encoding: 197 197 135
Width: 611
GlyphClass: 2
Flags: W
LayerCount: 2
Fore
SplineSet
340 628 m 1,0,-1
 247 628 l 2,1,2
 231 628 231 628 231 620 c 2,3,-1
 231 0 l 1,4,-1
 126 0 l 2,5,6
 92 0 92 0 81.5 11 c 128,-1,7
 71 22 71 22 71 57 c 2,8,-1
 71 666 l 2,9,10
 71 701 71 701 81.5 712 c 128,-1,11
 92 723 92 723 126 723 c 2,12,-1
 340 723 l 1,13,-1
 340 628 l 1,0,-1
380 723 m 1,14,-1
 485 723 l 2,15,16
 519 723 519 723 529.5 712 c 128,-1,17
 540 701 540 701 540 666 c 2,18,-1
 540 58 l 2,19,20
 540 23 540 23 529 11.5 c 128,-1,21
 518 0 518 0 485 0 c 2,22,-1
 380 0 l 1,23,-1
 380 335 l 1,24,-1
 271 335 l 1,25,-1
 271 430 l 1,26,-1
 380 430 l 1,27,-1
 380 723 l 1,14,-1
223 949 m 128,-1,29
 257 983 257 983 305 983 c 128,-1,30
 353 983 353 983 386.5 949 c 128,-1,31
 420 915 420 915 420 867.5 c 128,-1,32
 420 820 420 820 386.5 785.5 c 128,-1,33
 353 751 353 751 305 751 c 128,-1,34
 257 751 257 751 223 785.5 c 128,-1,35
 189 820 189 820 189 867.5 c 128,-1,28
 189 915 189 915 223 949 c 128,-1,29
342.5 904 m 128,-1,37
 327 919 327 919 305.5 919 c 128,-1,38
 284 919 284 919 269 904.5 c 128,-1,39
 254 890 254 890 254 868 c 128,-1,40
 254 846 254 846 269 831 c 128,-1,41
 284 816 284 816 305.5 816 c 128,-1,42
 327 816 327 816 342.5 831 c 128,-1,43
 358 846 358 846 358 867.5 c 128,-1,36
 358 889 358 889 342.5 904 c 128,-1,37
EndSplineSet
EndChar

StartChar: AE
Encoding: 198 198 136
Width: 902
GlyphClass: 2
Flags: W
LayerCount: 2
Fore
SplineSet
863 140 m 1,0,-1
 863 55 l 2,1,2
 863 21 863 21 852 10.5 c 128,-1,3
 841 0 841 0 806 0 c 2,4,-1
 594 0 l 1,5,-1
 594 140 l 1,6,-1
 863 140 l 1,0,-1
803 435 m 1,7,-1
 803 375 l 2,8,9
 803 339 803 339 796 329.5 c 128,-1,10
 789 320 789 320 756 320 c 2,11,-1
 594 320 l 1,12,-1
 594 435 l 1,13,-1
 803 435 l 1,7,-1
853 723 m 1,14,-1
 853 638 l 2,15,16
 853 604 853 604 842 593.5 c 128,-1,17
 831 583 831 583 796 583 c 2,18,-1
 594 583 l 1,19,-1
 594 723 l 1,20,-1
 853 723 l 1,14,-1
340 628 m 1,21,-1
 247 628 l 2,22,23
 231 628 231 628 231 620 c 2,24,-1
 231 0 l 1,25,-1
 126 0 l 2,26,27
 92 0 92 0 81.5 11 c 128,-1,28
 71 22 71 22 71 57 c 2,29,-1
 71 666 l 2,30,31
 71 701 71 701 81.5 712 c 128,-1,32
 92 723 92 723 126 723 c 2,33,-1
 340 723 l 1,34,-1
 340 628 l 1,21,-1
380 723 m 1,35,-1
 485 723 l 2,36,37
 519 723 519 723 529.5 712 c 128,-1,38
 540 701 540 701 540 666 c 2,39,-1
 540 58 l 2,40,41
 540 23 540 23 529 11.5 c 128,-1,42
 518 0 518 0 485 0 c 2,43,-1
 380 0 l 1,44,-1
 380 335 l 1,45,-1
 271 335 l 1,46,-1
 271 430 l 1,47,-1
 380 430 l 1,48,-1
 380 723 l 1,35,-1
EndSplineSet
EndChar

StartChar: Ccedilla
Encoding: 199 199 137
Width: 609
GlyphClass: 2
Flags: W
LayerCount: 2
Fore
SplineSet
243 0 m 1,0,-1
 231 0 l 2,1,2
 191 0 191 0 164.5 6 c 128,-1,3
 138 12 138 12 118.5 30.5 c 128,-1,4
 99 49 99 49 88.5 72 c 128,-1,5
 78 95 78 95 72 141 c 0,6,7
 63 210 63 210 63 326.5 c 128,-1,8
 63 443 63 443 64.5 491 c 128,-1,9
 66 539 66 539 72 584.5 c 128,-1,10
 78 630 78 630 88.5 652.5 c 128,-1,11
 99 675 99 675 118.5 693.5 c 128,-1,12
 138 712 138 712 164.5 717.5 c 128,-1,13
 191 723 191 723 231 723 c 2,14,-1
 243 723 l 1,15,-1
 243 0 l 1,0,-1
283 723 m 1,16,-1
 410 723 l 2,17,18
 483 723 483 723 520.5 698 c 128,-1,19
 558 673 558 673 558 611 c 2,20,-1
 558 521 l 2,21,22
 558 500 558 500 544 500 c 2,23,-1
 418 500 l 2,24,25
 404 500 404 500 401 504 c 128,-1,26
 398 508 398 508 398 521 c 2,27,-1
 398 599 l 2,28,29
 398 615 398 615 393.5 621.5 c 128,-1,30
 389 628 389 628 371 628 c 2,31,-1
 283 628 l 1,32,-1
 283 723 l 1,16,-1
418 223 m 2,33,-1
 544 223 l 2,34,35
 558 223 558 223 558 202 c 2,36,-1
 558 112 l 2,37,38
 558 50 558 50 520.5 25 c 128,-1,39
 483 0 483 0 410 0 c 2,40,-1
 283 0 l 1,41,-1
 283 95 l 1,42,-1
 371 95 l 2,43,44
 389 95 389 95 393.5 101.5 c 128,-1,45
 398 108 398 108 398 124 c 2,46,-1
 398 202 l 2,47,48
 398 215 398 215 401 219 c 128,-1,49
 404 223 404 223 418 223 c 2,33,-1
244 -79 m 2,50,-1
 285 -80 l 2,51,52
 298 -80 298 -80 302 -79 c 0,53,54
 314 -76 314 -76 314 -51 c 2,55,-1
 314 33 l 1,56,-1
 389 33 l 1,57,-1
 389 -103 l 2,58,59
 389 -151 389 -151 371.5 -167 c 128,-1,60
 354 -183 354 -183 293 -183 c 2,61,-1
 233 -183 l 1,62,-1
 233 -89 l 2,63,64
 233 -82 233 -82 234.5 -80.5 c 128,-1,65
 236 -79 236 -79 244 -79 c 2,50,-1
EndSplineSet
EndChar

StartChar: Egrave
Encoding: 200 200 138
Width: 579
GlyphClass: 2
Flags: W
LayerCount: 2
Fore
SplineSet
231 0 m 1,0,-1
 126 0 l 2,1,2
 92 0 92 0 81.5 11 c 128,-1,3
 71 22 71 22 71 57 c 2,4,-1
 71 666 l 2,5,6
 71 701 71 701 81.5 712 c 128,-1,7
 92 723 92 723 126 723 c 2,8,-1
 231 723 l 1,9,-1
 231 0 l 1,0,-1
540 140 m 1,10,-1
 540 55 l 2,11,12
 540 21 540 21 529 10.5 c 128,-1,13
 518 0 518 0 483 0 c 2,14,-1
 271 0 l 1,15,-1
 271 140 l 1,16,-1
 540 140 l 1,10,-1
480 435 m 1,17,-1
 480 375 l 2,18,19
 480 339 480 339 473 329.5 c 128,-1,20
 466 320 466 320 433 320 c 2,21,-1
 271 320 l 1,22,-1
 271 435 l 1,23,-1
 480 435 l 1,17,-1
530 723 m 1,24,-1
 530 638 l 2,25,26
 530 604 530 604 519 593.5 c 128,-1,27
 508 583 508 583 473 583 c 2,28,-1
 271 583 l 1,29,-1
 271 723 l 1,30,-1
 530 723 l 1,24,-1
307 946 m 2,31,32
 345 946 345 946 350 940 c 128,-1,33
 355 934 355 934 355 889 c 2,34,-1
 355 753 l 1,35,-1
 283 753 l 1,36,-1
 191 946 l 1,37,-1
 307 946 l 2,31,32
EndSplineSet
EndChar

StartChar: Eacute
Encoding: 201 201 139
Width: 579
GlyphClass: 2
Flags: W
LayerCount: 2
Fore
SplineSet
231 0 m 1,0,-1
 126 0 l 2,1,2
 92 0 92 0 81.5 11 c 128,-1,3
 71 22 71 22 71 57 c 2,4,-1
 71 666 l 2,5,6
 71 701 71 701 81.5 712 c 128,-1,7
 92 723 92 723 126 723 c 2,8,-1
 231 723 l 1,9,-1
 231 0 l 1,0,-1
540 140 m 1,10,-1
 540 55 l 2,11,12
 540 21 540 21 529 10.5 c 128,-1,13
 518 0 518 0 483 0 c 2,14,-1
 271 0 l 1,15,-1
 271 140 l 1,16,-1
 540 140 l 1,10,-1
480 435 m 1,17,-1
 480 375 l 2,18,19
 480 339 480 339 473 329.5 c 128,-1,20
 466 320 466 320 433 320 c 2,21,-1
 271 320 l 1,22,-1
 271 435 l 1,23,-1
 480 435 l 1,17,-1
530 723 m 1,24,-1
 530 638 l 2,25,26
 530 604 530 604 519 593.5 c 128,-1,27
 508 583 508 583 473 583 c 2,28,-1
 271 583 l 1,29,-1
 271 723 l 1,30,-1
 530 723 l 1,24,-1
278 753 m 1,31,-1
 278 889 l 2,32,33
 278 934 278 934 283 940 c 128,-1,34
 288 946 288 946 326 946 c 2,35,-1
 442 946 l 1,36,-1
 350 753 l 1,37,-1
 278 753 l 1,31,-1
EndSplineSet
EndChar

StartChar: Ecircumflex
Encoding: 202 202 140
Width: 579
GlyphClass: 2
Flags: W
LayerCount: 2
Fore
SplineSet
231 0 m 1,0,-1
 126 0 l 2,1,2
 92 0 92 0 81.5 11 c 128,-1,3
 71 22 71 22 71 57 c 2,4,-1
 71 666 l 2,5,6
 71 701 71 701 81.5 712 c 128,-1,7
 92 723 92 723 126 723 c 2,8,-1
 231 723 l 1,9,-1
 231 0 l 1,0,-1
540 140 m 1,10,-1
 540 55 l 2,11,12
 540 21 540 21 529 10.5 c 128,-1,13
 518 0 518 0 483 0 c 2,14,-1
 271 0 l 1,15,-1
 271 140 l 1,16,-1
 540 140 l 1,10,-1
480 435 m 1,17,-1
 480 375 l 2,18,19
 480 339 480 339 473 329.5 c 128,-1,20
 466 320 466 320 433 320 c 2,21,-1
 271 320 l 1,22,-1
 271 435 l 1,23,-1
 480 435 l 1,17,-1
530 723 m 1,24,-1
 530 638 l 2,25,26
 530 604 530 604 519 593.5 c 128,-1,27
 508 583 508 583 473 583 c 2,28,-1
 271 583 l 1,29,-1
 271 723 l 1,30,-1
 530 723 l 1,24,-1
262 936 m 2,31,-1
 370 936 l 2,32,33
 380 936 380 936 385 935 c 128,-1,34
 390 934 390 934 394 933.5 c 128,-1,35
 398 933 398 933 401.5 928.5 c 128,-1,36
 405 924 405 924 406.5 921 c 128,-1,37
 408 918 408 918 413 907.5 c 128,-1,38
 418 897 418 897 422 889 c 2,39,-1
 486 763 l 1,40,-1
 375 763 l 1,41,-1
 318 883 l 1,42,-1
 261 763 l 1,43,-1
 149 763 l 1,44,-1
 225 904 l 2,45,46
 239 931 239 931 244 933 c 0,47,48
 250 936 250 936 262 936 c 2,31,-1
EndSplineSet
EndChar

StartChar: Edieresis
Encoding: 203 203 141
Width: 579
GlyphClass: 2
Flags: W
LayerCount: 2
Fore
SplineSet
231 0 m 1,0,-1
 126 0 l 2,1,2
 92 0 92 0 81.5 11 c 128,-1,3
 71 22 71 22 71 57 c 2,4,-1
 71 666 l 2,5,6
 71 701 71 701 81.5 712 c 128,-1,7
 92 723 92 723 126 723 c 2,8,-1
 231 723 l 1,9,-1
 231 0 l 1,0,-1
540 140 m 1,10,-1
 540 55 l 2,11,12
 540 21 540 21 529 10.5 c 128,-1,13
 518 0 518 0 483 0 c 2,14,-1
 271 0 l 1,15,-1
 271 140 l 1,16,-1
 540 140 l 1,10,-1
480 435 m 1,17,-1
 480 375 l 2,18,19
 480 339 480 339 473 329.5 c 128,-1,20
 466 320 466 320 433 320 c 2,21,-1
 271 320 l 1,22,-1
 271 435 l 1,23,-1
 480 435 l 1,17,-1
530 723 m 1,24,-1
 530 638 l 2,25,26
 530 604 530 604 519 593.5 c 128,-1,27
 508 583 508 583 473 583 c 2,28,-1
 271 583 l 1,29,-1
 271 723 l 1,30,-1
 530 723 l 1,24,-1
379 922 m 2,31,-1
 496 922 l 1,32,33
 507 920 507 920 507 904 c 0,34,35
 507 901 507 901 507 900 c 2,36,-1
 507 795 l 2,37,38
 507 789 507 789 505 787 c 128,-1,39
 503 785 503 785 496 784 c 1,40,-1
 379 784 l 1,41,42
 372 785 372 785 370 787 c 128,-1,43
 368 789 368 789 368 795 c 2,44,-1
 368 913 l 2,45,46
 368 915 368 915 369 916 c 128,-1,47
 370 917 370 917 371 918 c 0,48,49
 373 922 373 922 379 922 c 2,31,-1
269 900 m 2,50,-1
 269 809 l 2,51,52
 269 806 269 806 269 800 c 128,-1,53
 269 794 269 794 268 791 c 0,54,55
 267 784 267 784 258 784 c 2,56,-1
 140 784 l 1,57,58
 130 785 130 785 130 795 c 2,59,-1
 130 909 l 2,60,61
 130 920 130 920 140 922 c 1,62,-1
 258 922 l 1,63,64
 269 920 269 920 269 903 c 0,65,66
 269 901 269 901 269 900 c 2,50,-1
EndSplineSet
EndChar

StartChar: Igrave
Encoding: 204 204 142
Width: 303
GlyphClass: 2
Flags: W
LayerCount: 2
Fore
SplineSet
231 0 m 1,0,-1
 126 0 l 2,1,2
 92 0 92 0 81.5 11 c 128,-1,3
 71 22 71 22 71 57 c 2,4,-1
 71 666 l 2,5,6
 71 701 71 701 81.5 712 c 128,-1,7
 92 723 92 723 126 723 c 2,8,-1
 231 723 l 1,9,-1
 231 0 l 1,0,-1
140 946 m 2,10,11
 178 946 178 946 183 940 c 128,-1,12
 188 934 188 934 188 889 c 2,13,-1
 188 753 l 1,14,-1
 116 753 l 1,15,-1
 24 946 l 1,16,-1
 140 946 l 2,10,11
EndSplineSet
EndChar

StartChar: Iacute
Encoding: 205 205 143
Width: 303
GlyphClass: 2
Flags: W
LayerCount: 2
Fore
SplineSet
231 0 m 1,0,-1
 126 0 l 2,1,2
 92 0 92 0 81.5 11 c 128,-1,3
 71 22 71 22 71 57 c 2,4,-1
 71 666 l 2,5,6
 71 701 71 701 81.5 712 c 128,-1,7
 92 723 92 723 126 723 c 2,8,-1
 231 723 l 1,9,-1
 231 0 l 1,0,-1
111 753 m 1,10,-1
 111 889 l 2,11,12
 111 934 111 934 116 940 c 128,-1,13
 121 946 121 946 159 946 c 2,14,-1
 275 946 l 1,15,-1
 183 753 l 1,16,-1
 111 753 l 1,10,-1
EndSplineSet
EndChar

StartChar: Icircumflex
Encoding: 206 206 144
Width: 303
GlyphClass: 2
Flags: W
LayerCount: 2
Fore
SplineSet
231 0 m 1,0,-1
 126 0 l 2,1,2
 92 0 92 0 81.5 11 c 128,-1,3
 71 22 71 22 71 57 c 2,4,-1
 71 666 l 2,5,6
 71 701 71 701 81.5 712 c 128,-1,7
 92 723 92 723 126 723 c 2,8,-1
 231 723 l 1,9,-1
 231 0 l 1,0,-1
95 936 m 2,10,-1
 203 936 l 2,11,12
 213 936 213 936 218 935 c 128,-1,13
 223 934 223 934 227 933.5 c 128,-1,14
 231 933 231 933 234.5 928.5 c 128,-1,15
 238 924 238 924 239.5 921 c 128,-1,16
 241 918 241 918 246 907.5 c 128,-1,17
 251 897 251 897 255 889 c 2,18,-1
 319 763 l 1,19,-1
 208 763 l 1,20,-1
 151 883 l 1,21,-1
 94 763 l 1,22,-1
 -18 763 l 1,23,-1
 58 904 l 2,24,25
 72 931 72 931 77 933 c 0,26,27
 83 936 83 936 95 936 c 2,10,-1
EndSplineSet
EndChar

StartChar: Idieresis
Encoding: 207 207 145
Width: 303
GlyphClass: 2
Flags: W
LayerCount: 2
Fore
SplineSet
189 922 m 2,0,-1
 306 922 l 1,1,2
 317 920 317 920 317 904 c 0,3,4
 317 901 317 901 317 900 c 2,5,-1
 317 795 l 2,6,7
 317 789 317 789 315 787 c 128,-1,8
 313 785 313 785 306 784 c 1,9,-1
 189 784 l 1,10,11
 182 785 182 785 180 787 c 128,-1,12
 178 789 178 789 178 795 c 2,13,-1
 178 913 l 2,14,15
 178 915 178 915 179 916 c 128,-1,16
 180 917 180 917 181 918 c 0,17,18
 183 922 183 922 189 922 c 2,0,-1
129 900 m 2,19,-1
 129 809 l 2,20,21
 129 806 129 806 129 800 c 128,-1,22
 129 794 129 794 128 791 c 0,23,24
 127 784 127 784 118 784 c 2,25,-1
 0 784 l 1,26,27
 -10 785 -10 785 -10 795 c 2,28,-1
 -10 909 l 2,29,30
 -10 920 -10 920 0 922 c 1,31,-1
 118 922 l 1,32,33
 129 920 129 920 129 903 c 0,34,35
 129 901 129 901 129 900 c 2,19,-1
231 0 m 1,36,-1
 126 0 l 2,37,38
 92 0 92 0 81.5 11 c 128,-1,39
 71 22 71 22 71 57 c 2,40,-1
 71 666 l 2,41,42
 71 701 71 701 81.5 712 c 128,-1,43
 92 723 92 723 126 723 c 2,44,-1
 231 723 l 1,45,-1
 231 0 l 1,36,-1
EndSplineSet
EndChar

StartChar: Eth
Encoding: 208 208 146
Width: 621
GlyphClass: 2
Flags: W
LayerCount: 2
Fore
SplineSet
343 309 m 1,0,-1
 10 309 l 1,1,-1
 10 403 l 1,2,-1
 343 403 l 1,3,-1
 343 309 l 1,0,-1
552 363 m 1,4,-1
 553 194 l 2,5,6
 553 75 553 75 523 37.5 c 128,-1,7
 493 0 493 0 414 0 c 2,8,-1
 267 0 l 1,9,-1
 267 95 l 1,10,-1
 341 95 l 2,11,12
 366 95 366 95 374 101 c 128,-1,13
 382 107 382 107 382 124 c 2,14,-1
 382 598 l 2,15,16
 382 616 382 616 374 622 c 128,-1,17
 366 628 366 628 341 628 c 2,18,-1
 267 628 l 1,19,-1
 267 723 l 1,20,-1
 424 723 l 2,21,22
 497 723 497 723 525.5 689.5 c 128,-1,23
 554 656 554 656 554 559 c 2,24,-1
 552 363 l 1,4,-1
237 -1 m 1,25,-1
 132 -1 l 2,26,27
 99 -1 99 -1 88 10.5 c 128,-1,28
 77 22 77 22 77 56 c 2,29,-1
 77 666 l 2,30,31
 77 700 77 700 88 711.5 c 128,-1,32
 99 723 99 723 132 723 c 2,33,-1
 237 723 l 1,34,-1
 237 -1 l 1,25,-1
EndSplineSet
EndChar

StartChar: Ntilde
Encoding: 209 209 147
Width: 692
GlyphClass: 2
Flags: W
LayerCount: 2
Fore
SplineSet
620 723 m 1,0,-1
 620 57 l 2,1,2
 620 22 620 22 609.5 11 c 128,-1,3
 599 0 599 0 565 0 c 2,4,-1
 423 0 l 2,5,6
 364 0 364 0 345.5 18 c 128,-1,7
 327 36 327 36 313 111 c 0,8,9
 285 259 285 259 232 589 c 0,10,11
 228 614 228 614 220.5 621 c 128,-1,12
 213 628 213 628 195 629 c 1,13,-1
 72 629 l 1,14,-1
 72 723 l 1,15,-1
 289 723 l 2,16,17
 314 723 314 723 329 717 c 128,-1,18
 344 711 344 711 353.5 691.5 c 128,-1,19
 363 672 363 672 366.5 654 c 128,-1,20
 370 636 370 636 374 612 c 0,21,22
 379 583 379 583 388 527 c 0,23,24
 405 414 405 414 441 208 c 1,25,26
 455 120 455 120 460.5 109.5 c 128,-1,27
 466 99 466 99 480 97 c 1,28,-1
 480 683 l 2,29,30
 480 701 480 701 490 712 c 128,-1,31
 500 723 500 723 516 723 c 2,32,-1
 620 723 l 1,0,-1
72 594 m 1,33,-1
 176 594 l 2,34,35
 192 594 192 594 202 583 c 128,-1,36
 212 572 212 572 212 554 c 2,37,-1
 212 57 l 2,38,39
 212 23 212 23 203 11.5 c 128,-1,40
 194 0 194 0 167 0 c 2,41,-1
 72 0 l 1,42,-1
 72 594 l 1,33,-1
462 906 m 2,43,-1
 509 906 l 1,44,-1
 512 903 l 1,45,-1
 512 840 l 2,46,47
 512 816 512 816 497.5 802 c 128,-1,48
 483 788 483 788 456 788 c 2,49,-1
 449 788 l 1,50,-1
 277 813 l 1,51,-1
 272 813 l 2,52,53
 259 813 259 813 259 798 c 2,54,-1
 259 794 l 2,55,56
 259 786 259 786 255 786 c 2,57,-1
 202 786 l 1,58,-1
 199 792 l 1,59,-1
 199 854 l 2,60,61
 199 876 199 876 213.5 891 c 128,-1,62
 228 906 228 906 254 906 c 2,63,-1
 262 906 l 1,64,-1
 434 879 l 2,65,66
 435 879 435 879 438 878 c 1,67,68
 452 878 452 878 452 897 c 2,69,-1
 452 900 l 2,70,71
 452 906 452 906 462 906 c 2,43,-1
EndSplineSet
EndChar

StartChar: Ograve
Encoding: 210 210 148
Width: 641
GlyphClass: 2
Flags: W
LayerCount: 2
Fore
SplineSet
243 723 m 1,0,-1
 243 124 l 2,1,2
 243 109 243 109 250.5 102 c 128,-1,3
 258 95 258 95 284 95 c 2,4,-1
 358 95 l 1,5,-1
 358 0 l 1,6,-1
 231 0 l 2,7,8
 191 0 191 0 164.5 6 c 128,-1,9
 138 12 138 12 118.5 30.5 c 128,-1,10
 99 49 99 49 88.5 72 c 128,-1,11
 78 95 78 95 72 141 c 0,12,13
 63 210 63 210 63 326.5 c 128,-1,14
 63 443 63 443 64.5 491 c 128,-1,15
 66 539 66 539 72 584.5 c 128,-1,16
 78 630 78 630 88.5 652.5 c 128,-1,17
 99 675 99 675 118.5 693.5 c 128,-1,18
 138 712 138 712 164.5 717.5 c 128,-1,19
 191 723 191 723 231 723 c 2,20,-1
 243 723 l 1,0,-1
283 722 m 1,21,-1
 410 722 l 2,22,23
 450 722 450 722 476.5 716 c 128,-1,24
 503 710 503 710 522.5 691.5 c 128,-1,25
 542 673 542 673 552.5 650 c 128,-1,26
 563 627 563 627 569 581 c 0,27,28
 578 512 578 512 578 395.5 c 128,-1,29
 578 279 578 279 576.5 231 c 128,-1,30
 575 183 575 183 569 137.5 c 128,-1,31
 563 92 563 92 552.5 69.5 c 128,-1,32
 542 47 542 47 522.5 28.5 c 128,-1,33
 503 10 503 10 476.5 4.5 c 128,-1,34
 450 -1 450 -1 410 -1 c 2,35,-1
 398 -1 l 1,36,-1
 398 598 l 2,37,38
 398 613 398 613 390.5 620 c 128,-1,39
 383 627 383 627 357 627 c 2,40,-1
 283 627 l 1,41,-1
 283 722 l 1,21,-1
313 946 m 2,42,43
 351 946 351 946 356 940 c 128,-1,44
 361 934 361 934 361 889 c 2,45,-1
 361 753 l 1,46,-1
 289 753 l 1,47,-1
 197 946 l 1,48,-1
 313 946 l 2,42,43
EndSplineSet
EndChar

StartChar: Oacute
Encoding: 211 211 149
Width: 641
GlyphClass: 2
Flags: W
LayerCount: 2
Fore
SplineSet
243 723 m 1,0,-1
 243 124 l 2,1,2
 243 109 243 109 250.5 102 c 128,-1,3
 258 95 258 95 284 95 c 2,4,-1
 358 95 l 1,5,-1
 358 0 l 1,6,-1
 231 0 l 2,7,8
 191 0 191 0 164.5 6 c 128,-1,9
 138 12 138 12 118.5 30.5 c 128,-1,10
 99 49 99 49 88.5 72 c 128,-1,11
 78 95 78 95 72 141 c 0,12,13
 63 210 63 210 63 326.5 c 128,-1,14
 63 443 63 443 64.5 491 c 128,-1,15
 66 539 66 539 72 584.5 c 128,-1,16
 78 630 78 630 88.5 652.5 c 128,-1,17
 99 675 99 675 118.5 693.5 c 128,-1,18
 138 712 138 712 164.5 717.5 c 128,-1,19
 191 723 191 723 231 723 c 2,20,-1
 243 723 l 1,0,-1
283 722 m 1,21,-1
 410 722 l 2,22,23
 450 722 450 722 476.5 716 c 128,-1,24
 503 710 503 710 522.5 691.5 c 128,-1,25
 542 673 542 673 552.5 650 c 128,-1,26
 563 627 563 627 569 581 c 0,27,28
 578 512 578 512 578 395.5 c 128,-1,29
 578 279 578 279 576.5 231 c 128,-1,30
 575 183 575 183 569 137.5 c 128,-1,31
 563 92 563 92 552.5 69.5 c 128,-1,32
 542 47 542 47 522.5 28.5 c 128,-1,33
 503 10 503 10 476.5 4.5 c 128,-1,34
 450 -1 450 -1 410 -1 c 2,35,-1
 398 -1 l 1,36,-1
 398 598 l 2,37,38
 398 613 398 613 390.5 620 c 128,-1,39
 383 627 383 627 357 627 c 2,40,-1
 283 627 l 1,41,-1
 283 722 l 1,21,-1
284 753 m 1,42,-1
 284 889 l 2,43,44
 284 934 284 934 289 940 c 128,-1,45
 294 946 294 946 332 946 c 2,46,-1
 448 946 l 1,47,-1
 356 753 l 1,48,-1
 284 753 l 1,42,-1
EndSplineSet
EndChar

StartChar: Ocircumflex
Encoding: 212 212 150
Width: 641
GlyphClass: 2
Flags: W
LayerCount: 2
Fore
SplineSet
243 723 m 1,0,-1
 243 124 l 2,1,2
 243 109 243 109 250.5 102 c 128,-1,3
 258 95 258 95 284 95 c 2,4,-1
 358 95 l 1,5,-1
 358 0 l 1,6,-1
 231 0 l 2,7,8
 191 0 191 0 164.5 6 c 128,-1,9
 138 12 138 12 118.5 30.5 c 128,-1,10
 99 49 99 49 88.5 72 c 128,-1,11
 78 95 78 95 72 141 c 0,12,13
 63 210 63 210 63 326.5 c 128,-1,14
 63 443 63 443 64.5 491 c 128,-1,15
 66 539 66 539 72 584.5 c 128,-1,16
 78 630 78 630 88.5 652.5 c 128,-1,17
 99 675 99 675 118.5 693.5 c 128,-1,18
 138 712 138 712 164.5 717.5 c 128,-1,19
 191 723 191 723 231 723 c 2,20,-1
 243 723 l 1,0,-1
283 722 m 1,21,-1
 410 722 l 2,22,23
 450 722 450 722 476.5 716 c 128,-1,24
 503 710 503 710 522.5 691.5 c 128,-1,25
 542 673 542 673 552.5 650 c 128,-1,26
 563 627 563 627 569 581 c 0,27,28
 578 512 578 512 578 395.5 c 128,-1,29
 578 279 578 279 576.5 231 c 128,-1,30
 575 183 575 183 569 137.5 c 128,-1,31
 563 92 563 92 552.5 69.5 c 128,-1,32
 542 47 542 47 522.5 28.5 c 128,-1,33
 503 10 503 10 476.5 4.5 c 128,-1,34
 450 -1 450 -1 410 -1 c 2,35,-1
 398 -1 l 1,36,-1
 398 598 l 2,37,38
 398 613 398 613 390.5 620 c 128,-1,39
 383 627 383 627 357 627 c 2,40,-1
 283 627 l 1,41,-1
 283 722 l 1,21,-1
268 936 m 2,42,-1
 376 936 l 2,43,44
 386 936 386 936 391 935 c 128,-1,45
 396 934 396 934 400 933.5 c 128,-1,46
 404 933 404 933 407.5 928.5 c 128,-1,47
 411 924 411 924 412.5 921 c 128,-1,48
 414 918 414 918 419 907.5 c 128,-1,49
 424 897 424 897 428 889 c 2,50,-1
 492 763 l 1,51,-1
 381 763 l 1,52,-1
 324 883 l 1,53,-1
 267 763 l 1,54,-1
 155 763 l 1,55,-1
 231 904 l 2,56,57
 245 931 245 931 250 933 c 0,58,59
 256 936 256 936 268 936 c 2,42,-1
EndSplineSet
EndChar

StartChar: Otilde
Encoding: 213 213 151
Width: 641
GlyphClass: 2
Flags: W
LayerCount: 2
Fore
SplineSet
243 723 m 1,0,-1
 243 124 l 2,1,2
 243 109 243 109 250.5 102 c 128,-1,3
 258 95 258 95 284 95 c 2,4,-1
 358 95 l 1,5,-1
 358 0 l 1,6,-1
 231 0 l 2,7,8
 191 0 191 0 164.5 6 c 128,-1,9
 138 12 138 12 118.5 30.5 c 128,-1,10
 99 49 99 49 88.5 72 c 128,-1,11
 78 95 78 95 72 141 c 0,12,13
 63 210 63 210 63 326.5 c 128,-1,14
 63 443 63 443 64.5 491 c 128,-1,15
 66 539 66 539 72 584.5 c 128,-1,16
 78 630 78 630 88.5 652.5 c 128,-1,17
 99 675 99 675 118.5 693.5 c 128,-1,18
 138 712 138 712 164.5 717.5 c 128,-1,19
 191 723 191 723 231 723 c 2,20,-1
 243 723 l 1,0,-1
283 722 m 1,21,-1
 410 722 l 2,22,23
 450 722 450 722 476.5 716 c 128,-1,24
 503 710 503 710 522.5 691.5 c 128,-1,25
 542 673 542 673 552.5 650 c 128,-1,26
 563 627 563 627 569 581 c 0,27,28
 578 512 578 512 578 395.5 c 128,-1,29
 578 279 578 279 576.5 231 c 128,-1,30
 575 183 575 183 569 137.5 c 128,-1,31
 563 92 563 92 552.5 69.5 c 128,-1,32
 542 47 542 47 522.5 28.5 c 128,-1,33
 503 10 503 10 476.5 4.5 c 128,-1,34
 450 -1 450 -1 410 -1 c 2,35,-1
 398 -1 l 1,36,-1
 398 598 l 2,37,38
 398 613 398 613 390.5 620 c 128,-1,39
 383 627 383 627 357 627 c 2,40,-1
 283 627 l 1,41,-1
 283 722 l 1,21,-1
430 906 m 2,42,-1
 477 906 l 1,43,-1
 480 903 l 1,44,-1
 480 840 l 2,45,46
 480 816 480 816 465.5 802 c 128,-1,47
 451 788 451 788 424 788 c 2,48,-1
 417 788 l 1,49,-1
 245 813 l 1,50,-1
 240 813 l 2,51,52
 227 813 227 813 227 798 c 2,53,-1
 227 794 l 2,54,55
 227 786 227 786 223 786 c 2,56,-1
 170 786 l 1,57,-1
 167 792 l 1,58,-1
 167 854 l 2,59,60
 167 876 167 876 181.5 891 c 128,-1,61
 196 906 196 906 222 906 c 2,62,-1
 230 906 l 1,63,-1
 402 879 l 1,64,-1
 406 878 l 1,65,66
 420 878 420 878 420 897 c 2,67,-1
 420 900 l 2,68,69
 420 906 420 906 430 906 c 2,42,-1
EndSplineSet
EndChar

StartChar: Odieresis
Encoding: 214 214 152
Width: 641
GlyphClass: 2
Flags: W
LayerCount: 2
Fore
SplineSet
243 723 m 1,0,-1
 243 124 l 2,1,2
 243 109 243 109 250.5 102 c 128,-1,3
 258 95 258 95 284 95 c 2,4,-1
 358 95 l 1,5,-1
 358 0 l 1,6,-1
 231 0 l 2,7,8
 191 0 191 0 164.5 6 c 128,-1,9
 138 12 138 12 118.5 30.5 c 128,-1,10
 99 49 99 49 88.5 72 c 128,-1,11
 78 95 78 95 72 141 c 0,12,13
 63 210 63 210 63 326.5 c 128,-1,14
 63 443 63 443 64.5 491 c 128,-1,15
 66 539 66 539 72 584.5 c 128,-1,16
 78 630 78 630 88.5 652.5 c 128,-1,17
 99 675 99 675 118.5 693.5 c 128,-1,18
 138 712 138 712 164.5 717.5 c 128,-1,19
 191 723 191 723 231 723 c 2,20,-1
 243 723 l 1,0,-1
283 722 m 1,21,-1
 410 722 l 2,22,23
 450 722 450 722 476.5 716 c 128,-1,24
 503 710 503 710 522.5 691.5 c 128,-1,25
 542 673 542 673 552.5 650 c 128,-1,26
 563 627 563 627 569 581 c 0,27,28
 578 512 578 512 578 395.5 c 128,-1,29
 578 279 578 279 576.5 231 c 128,-1,30
 575 183 575 183 569 137.5 c 128,-1,31
 563 92 563 92 552.5 69.5 c 128,-1,32
 542 47 542 47 522.5 28.5 c 128,-1,33
 503 10 503 10 476.5 4.5 c 128,-1,34
 450 -1 450 -1 410 -1 c 2,35,-1
 398 -1 l 1,36,-1
 398 598 l 2,37,38
 398 613 398 613 390.5 620 c 128,-1,39
 383 627 383 627 357 627 c 2,40,-1
 283 627 l 1,41,-1
 283 722 l 1,21,-1
385 922 m 2,42,-1
 502 922 l 1,43,44
 513 920 513 920 513 904 c 0,45,46
 513 901 513 901 513 900 c 2,47,-1
 513 795 l 2,48,49
 513 789 513 789 511 787 c 128,-1,50
 509 785 509 785 502 784 c 1,51,-1
 385 784 l 1,52,53
 378 785 378 785 376 787 c 128,-1,54
 374 789 374 789 374 795 c 2,55,-1
 374 913 l 2,56,57
 374 915 374 915 375 916 c 128,-1,58
 376 917 376 917 377 918 c 0,59,60
 379 922 379 922 385 922 c 2,42,-1
275 900 m 2,61,-1
 275 809 l 2,62,63
 275 806 275 806 275 800 c 128,-1,64
 275 794 275 794 274 791 c 0,65,66
 273 784 273 784 264 784 c 2,67,-1
 146 784 l 1,68,69
 136 785 136 785 136 795 c 2,70,-1
 136 909 l 2,71,72
 136 920 136 920 146 922 c 1,73,-1
 264 922 l 1,74,75
 275 920 275 920 275 903 c 0,76,77
 275 901 275 901 275 900 c 2,61,-1
EndSplineSet
EndChar

StartChar: multiply
Encoding: 215 215 153
Width: 573
GlyphClass: 2
Flags: W
LayerCount: 2
Fore
SplineSet
540 452 m 1,0,-1
 342 254 l 1,1,-1
 541 56 l 1,2,-1
 485 0 l 1,3,-1
 286 198 l 1,4,-1
 89 0 l 1,5,-1
 32 56 l 1,6,-1
 230 254 l 1,7,-1
 33 452 l 1,8,-1
 89 508 l 1,9,-1
 286 310 l 1,10,-1
 484 508 l 1,11,-1
 540 452 l 1,0,-1
EndSplineSet
EndChar

StartChar: Oslash
Encoding: 216 216 154
Width: 641
GlyphClass: 2
Flags: W
LayerCount: 2
Fore
SplineSet
358 390 m 1,0,-1
 92 -223 l 1,1,-1
 12 -223 l 1,2,-1
 358 559 l 1,3,-1
 358 390 l 1,0,-1
413 470 m 1,4,-1
 608 893 l 1,5,-1
 528 893 l 1,6,-1
 400 612 l 1,7,-1
 400 477 l 1,8,-1
 413 470 l 1,4,-1
244 724 m 1,9,-1
 244 125 l 2,10,11
 244 110 244 110 251.5 103 c 128,-1,12
 259 96 259 96 285 96 c 2,13,-1
 359 96 l 1,14,-1
 359 1 l 1,15,-1
 232 1 l 2,16,17
 192 1 192 1 165.5 7 c 128,-1,18
 139 13 139 13 119.5 31.5 c 128,-1,19
 100 50 100 50 89.5 73 c 128,-1,20
 79 96 79 96 73 142 c 0,21,22
 64 211 64 211 64 327.5 c 128,-1,23
 64 444 64 444 65.5 492 c 128,-1,24
 67 540 67 540 73 585.5 c 128,-1,25
 79 631 79 631 89.5 653.5 c 128,-1,26
 100 676 100 676 119.5 694.5 c 128,-1,27
 139 713 139 713 165.5 718.5 c 128,-1,28
 192 724 192 724 232 724 c 2,29,-1
 244 724 l 1,9,-1
284 723 m 1,30,-1
 411 723 l 2,31,32
 451 723 451 723 477.5 717 c 128,-1,33
 504 711 504 711 523.5 692.5 c 128,-1,34
 543 674 543 674 553.5 651 c 128,-1,35
 564 628 564 628 570 582 c 0,36,37
 579 513 579 513 579 396.5 c 128,-1,38
 579 280 579 280 577.5 232 c 128,-1,39
 576 184 576 184 570 138.5 c 128,-1,40
 564 93 564 93 553.5 70.5 c 128,-1,41
 543 48 543 48 523.5 29.5 c 128,-1,42
 504 11 504 11 477.5 5.5 c 128,-1,43
 451 0 451 0 411 0 c 2,44,-1
 399 0 l 1,45,-1
 399 599 l 2,46,47
 399 614 399 614 391.5 621 c 128,-1,48
 384 628 384 628 358 628 c 2,49,-1
 284 628 l 1,50,-1
 284 723 l 1,30,-1
EndSplineSet
EndChar

StartChar: Ugrave
Encoding: 217 217 155
Width: 636
GlyphClass: 2
Flags: W
LayerCount: 2
Fore
SplineSet
230 723 m 1,0,-1
 230 124 l 2,1,2
 230 108 230 108 234.5 101.5 c 128,-1,3
 239 95 239 95 257 95 c 2,4,-1
 365 95 l 1,5,-1
 365 0 l 1,6,-1
 218 0 l 2,7,8
 145 0 145 0 107.5 25 c 128,-1,9
 70 50 70 50 70 112 c 2,10,-1
 70 666 l 2,11,12
 70 701 70 701 80.5 712 c 128,-1,13
 91 723 91 723 125 723 c 2,14,-1
 230 723 l 1,0,-1
395 723 m 1,15,-1
 500 723 l 2,16,17
 534 723 534 723 544.5 712 c 128,-1,18
 555 701 555 701 555 666 c 2,19,-1
 555 124 l 2,20,21
 555 108 555 108 559.5 101.5 c 128,-1,22
 564 95 564 95 582 95 c 2,23,-1
 600 95 l 1,24,-1
 600 0 l 1,25,-1
 543 0 l 2,26,27
 470 0 470 0 432.5 25 c 128,-1,28
 395 50 395 50 395 112 c 2,29,-1
 395 723 l 1,15,-1
302 946 m 2,30,31
 340 946 340 946 345 940 c 128,-1,32
 350 934 350 934 350 889 c 2,33,-1
 350 753 l 1,34,-1
 278 753 l 1,35,-1
 186 946 l 1,36,-1
 302 946 l 2,30,31
EndSplineSet
EndChar

StartChar: Uacute
Encoding: 218 218 156
Width: 636
GlyphClass: 2
Flags: W
LayerCount: 2
Fore
SplineSet
230 723 m 1,0,-1
 230 124 l 2,1,2
 230 108 230 108 234.5 101.5 c 128,-1,3
 239 95 239 95 257 95 c 2,4,-1
 365 95 l 1,5,-1
 365 0 l 1,6,-1
 218 0 l 2,7,8
 145 0 145 0 107.5 25 c 128,-1,9
 70 50 70 50 70 112 c 2,10,-1
 70 666 l 2,11,12
 70 701 70 701 80.5 712 c 128,-1,13
 91 723 91 723 125 723 c 2,14,-1
 230 723 l 1,0,-1
395 723 m 1,15,-1
 500 723 l 2,16,17
 534 723 534 723 544.5 712 c 128,-1,18
 555 701 555 701 555 666 c 2,19,-1
 555 124 l 2,20,21
 555 108 555 108 559.5 101.5 c 128,-1,22
 564 95 564 95 582 95 c 2,23,-1
 600 95 l 1,24,-1
 600 0 l 1,25,-1
 543 0 l 2,26,27
 470 0 470 0 432.5 25 c 128,-1,28
 395 50 395 50 395 112 c 2,29,-1
 395 723 l 1,15,-1
273 753 m 1,30,-1
 273 889 l 2,31,32
 273 934 273 934 278 940 c 128,-1,33
 283 946 283 946 321 946 c 2,34,-1
 437 946 l 1,35,-1
 345 753 l 1,36,-1
 273 753 l 1,30,-1
EndSplineSet
EndChar

StartChar: Ucircumflex
Encoding: 219 219 157
Width: 636
GlyphClass: 2
Flags: W
LayerCount: 2
Fore
SplineSet
230 723 m 1,0,-1
 230 124 l 2,1,2
 230 108 230 108 234.5 101.5 c 128,-1,3
 239 95 239 95 257 95 c 2,4,-1
 365 95 l 1,5,-1
 365 0 l 1,6,-1
 218 0 l 2,7,8
 145 0 145 0 107.5 25 c 128,-1,9
 70 50 70 50 70 112 c 2,10,-1
 70 666 l 2,11,12
 70 701 70 701 80.5 712 c 128,-1,13
 91 723 91 723 125 723 c 2,14,-1
 230 723 l 1,0,-1
395 723 m 1,15,-1
 500 723 l 2,16,17
 534 723 534 723 544.5 712 c 128,-1,18
 555 701 555 701 555 666 c 2,19,-1
 555 124 l 2,20,21
 555 108 555 108 559.5 101.5 c 128,-1,22
 564 95 564 95 582 95 c 2,23,-1
 600 95 l 1,24,-1
 600 0 l 1,25,-1
 543 0 l 2,26,27
 470 0 470 0 432.5 25 c 128,-1,28
 395 50 395 50 395 112 c 2,29,-1
 395 723 l 1,15,-1
257 936 m 2,30,-1
 365 936 l 2,31,32
 375 936 375 936 380 935 c 128,-1,33
 385 934 385 934 389 933.5 c 128,-1,34
 393 933 393 933 396.5 928.5 c 128,-1,35
 400 924 400 924 401.5 921 c 128,-1,36
 403 918 403 918 408 907.5 c 128,-1,37
 413 897 413 897 417 889 c 2,38,-1
 481 763 l 1,39,-1
 370 763 l 1,40,-1
 313 883 l 1,41,-1
 256 763 l 1,42,-1
 144 763 l 1,43,-1
 220 904 l 2,44,45
 234 931 234 931 239 933 c 0,46,47
 245 936 245 936 257 936 c 2,30,-1
EndSplineSet
EndChar

StartChar: Udieresis
Encoding: 220 220 158
Width: 636
GlyphClass: 2
Flags: W
LayerCount: 2
Fore
SplineSet
230 723 m 1,0,-1
 230 124 l 2,1,2
 230 108 230 108 234.5 101.5 c 128,-1,3
 239 95 239 95 257 95 c 2,4,-1
 365 95 l 1,5,-1
 365 0 l 1,6,-1
 218 0 l 2,7,8
 145 0 145 0 107.5 25 c 128,-1,9
 70 50 70 50 70 112 c 2,10,-1
 70 666 l 2,11,12
 70 701 70 701 80.5 712 c 128,-1,13
 91 723 91 723 125 723 c 2,14,-1
 230 723 l 1,0,-1
395 723 m 1,15,-1
 500 723 l 2,16,17
 534 723 534 723 544.5 712 c 128,-1,18
 555 701 555 701 555 666 c 2,19,-1
 555 124 l 2,20,21
 555 108 555 108 559.5 101.5 c 128,-1,22
 564 95 564 95 582 95 c 2,23,-1
 600 95 l 1,24,-1
 600 0 l 1,25,-1
 543 0 l 2,26,27
 470 0 470 0 432.5 25 c 128,-1,28
 395 50 395 50 395 112 c 2,29,-1
 395 723 l 1,15,-1
374 922 m 2,30,-1
 491 922 l 1,31,32
 502 920 502 920 502 904 c 0,33,34
 502 901 502 901 502 900 c 2,35,-1
 502 795 l 2,36,37
 502 789 502 789 500 787 c 128,-1,38
 498 785 498 785 491 784 c 1,39,-1
 374 784 l 1,40,41
 367 785 367 785 365 787 c 128,-1,42
 363 789 363 789 363 795 c 2,43,-1
 363 913 l 2,44,45
 363 915 363 915 364 916 c 128,-1,46
 365 917 365 917 366 918 c 0,47,48
 368 922 368 922 374 922 c 2,30,-1
264 900 m 2,49,-1
 264 809 l 2,50,51
 264 806 264 806 264 800 c 128,-1,52
 264 794 264 794 264 791 c 0,53,54
 262 784 262 784 253 784 c 2,55,-1
 135 784 l 1,56,57
 125 785 125 785 125 795 c 2,58,-1
 125 909 l 2,59,60
 125 920 125 920 135 922 c 1,61,-1
 253 922 l 1,62,63
 264 920 264 920 264 903 c 0,64,65
 264 901 264 901 264 900 c 2,49,-1
EndSplineSet
EndChar

StartChar: Yacute
Encoding: 221 221 159
Width: 562
GlyphClass: 2
Flags: W
LayerCount: 2
Fore
SplineSet
204 723 m 1,0,-1
 204 438 l 2,1,2
 204 422 204 422 209 415.5 c 128,-1,3
 214 409 214 409 232 409 c 2,4,-1
 268 409 l 1,5,-1
 268 314 l 1,6,-1
 112 314 l 2,7,8
 74 314 74 314 59 331.5 c 128,-1,9
 44 349 44 349 44 386 c 2,10,-1
 44 676 l 2,11,12
 44 723 44 723 99 723 c 2,13,-1
 204 723 l 1,0,-1
367 0 m 1,14,-1
 242 0 l 2,15,16
 208 0 208 0 197.5 11 c 128,-1,17
 187 22 187 22 187 57 c 2,18,-1
 187 217 l 2,19,20
 187 252 187 252 197.5 263 c 128,-1,21
 208 274 208 274 242 274 c 2,22,-1
 367 274 l 1,23,-1
 367 0 l 1,14,-1
359 723 m 1,24,-1
 464 723 l 2,25,26
 494 723 494 723 506.5 711 c 128,-1,27
 519 699 519 699 519 666 c 2,28,-1
 519 384 l 2,29,30
 519 314 519 314 461 314 c 2,31,-1
 308 314 l 1,32,-1
 308 409 l 1,33,-1
 332 409 l 2,34,35
 350 409 350 409 354.5 416 c 128,-1,36
 359 423 359 423 359 438 c 2,37,-1
 359 723 l 1,24,-1
240 753 m 1,38,-1
 240 889 l 2,39,40
 240 934 240 934 245 940 c 128,-1,41
 250 946 250 946 288 946 c 2,42,-1
 404 946 l 1,43,-1
 312 753 l 1,44,-1
 240 753 l 1,38,-1
EndSplineSet
EndChar

StartChar: Thorn
Encoding: 222 222 160
Width: 592
GlyphClass: 2
Flags: W
LayerCount: 2
Fore
SplineSet
231 0 m 1,0,-1
 126 0 l 2,1,2
 92 0 92 0 81.5 11 c 128,-1,3
 71 22 71 22 71 57 c 2,4,-1
 71 683 l 2,5,6
 71 701 71 701 81 712 c 128,-1,7
 91 723 91 723 107 723 c 2,8,-1
 231 723 l 1,9,-1
 231 0 l 1,0,-1
271 594 m 1,10,-1
 398 594 l 2,11,12
 493 594 493 594 524.5 549.5 c 128,-1,13
 556 505 556 505 556 371 c 0,14,15
 556 282 556 282 536.5 232 c 128,-1,16
 517 182 517 182 485 165.5 c 128,-1,17
 453 149 453 149 398 149 c 2,18,-1
 271 149 l 1,19,-1
 271 244 l 1,20,-1
 345 244 l 2,21,22
 371 244 371 244 378.5 251 c 128,-1,23
 386 258 386 258 386 273 c 2,24,-1
 386 469 l 2,25,26
 386 485 386 485 378.5 492 c 128,-1,27
 371 499 371 499 345 499 c 2,28,-1
 271 499 l 1,29,-1
 271 594 l 1,10,-1
EndSplineSet
EndChar

StartChar: germandbls
Encoding: 223 223 161
Width: 526
GlyphClass: 2
Flags: W
LayerCount: 2
Fore
SplineSet
222 723 m 2,0,-1
 298 723 l 1,1,2
 304 722 304 722 304 715 c 2,3,-1
 304 654 l 2,4,5
 304 647 304 647 296 647 c 2,6,-1
 275 647 l 2,7,8
 233 647 233 647 233 610 c 2,9,-1
 233 -145 l 2,10,11
 233 -179 233 -179 210.5 -201 c 128,-1,12
 188 -223 188 -223 144 -223 c 2,13,-1
 83 -223 l 1,14,-1
 83 0 l 1,15,-1
 7 0 l 1,16,-1
 7 47 l 2,17,18
 7 77 7 77 32 77 c 2,19,-1
 83 77 l 1,20,-1
 83 592 l 2,21,22
 83 665 83 665 116 694 c 128,-1,23
 149 723 149 723 222 723 c 2,0,-1
328 400 m 1,24,-1
 369 400 l 2,25,26
 478 400 478 400 478 293 c 2,27,-1
 478 107 l 2,28,29
 478 0 478 0 369 0 c 2,30,-1
 263 0 l 1,31,-1
 263 75 l 1,32,-1
 297 75 l 2,33,34
 318 75 318 75 323 81.5 c 128,-1,35
 328 88 328 88 328 105 c 2,36,-1
 328 400 l 1,24,-1
330 724 m 1,37,-1
 371 724 l 2,38,39
 426 724 426 724 453.5 698 c 128,-1,40
 481 672 481 672 481 627 c 2,41,-1
 481 522 l 2,42,43
 481 415 481 415 371 415 c 2,44,-1
 265 415 l 1,45,-1
 265 490 l 1,46,-1
 299 490 l 2,47,48
 320 490 320 490 325 496.5 c 128,-1,49
 330 503 330 503 330 520 c 2,50,-1
 330 724 l 1,37,-1
EndSplineSet
EndChar

StartChar: agrave
Encoding: 224 224 162
Width: 547
GlyphClass: 2
Flags: W
LayerCount: 2
Fore
SplineSet
301 425 m 1,0,-1
 247 425 l 2,1,2
 216 425 216 425 212 414 c 0,3,4
 206 401 206 401 206 377 c 2,5,-1
 206 123 l 2,6,7
 206 121 206 121 206 111 c 128,-1,8
 206 101 206 101 208 94 c 0,9,10
 212 75 212 75 247 75 c 2,11,-1
 301 75 l 1,12,-1
 301 0 l 1,13,-1
 204 0 l 2,14,15
 166 0 166 0 142 3.5 c 128,-1,16
 118 7 118 7 100 19 c 128,-1,17
 82 31 82 31 73 45.5 c 128,-1,18
 64 60 64 60 58 92 c 1,19,20
 51 137 51 137 51 218 c 128,-1,21
 51 299 51 299 52 327.5 c 128,-1,22
 53 356 53 356 55.5 388 c 128,-1,23
 58 420 58 420 64.5 435 c 128,-1,24
 71 450 71 450 81.5 465.5 c 128,-1,25
 92 481 92 481 109 487 c 0,26,27
 146 500 146 500 204 500 c 2,28,-1
 301 500 l 1,29,-1
 301 425 l 1,0,-1
526 7 m 2,30,31
 526 0 526 0 522 0 c 2,32,-1
 440 0 l 2,33,34
 384 0 384 0 357.5 26 c 128,-1,35
 331 52 331 52 331 111 c 2,36,-1
 331 500 l 1,37,-1
 372 500 l 2,38,39
 435 500 435 500 458 470.5 c 128,-1,40
 481 441 481 441 481 393 c 2,41,-1
 481 113 l 2,42,43
 481 82 481 82 494 78 c 0,44,45
 501 75 501 75 513 75 c 2,46,-1
 518 75 l 2,47,48
 526 75 526 75 526 68 c 2,49,-1
 526 7 l 2,30,31
268 723 m 2,50,51
 306 723 306 723 311 717 c 128,-1,52
 316 711 316 711 316 666 c 2,53,-1
 316 530 l 1,54,-1
 244 530 l 1,55,-1
 152 723 l 1,56,-1
 268 723 l 2,50,51
EndSplineSet
EndChar

StartChar: aacute
Encoding: 225 225 163
Width: 547
GlyphClass: 2
Flags: W
LayerCount: 2
Fore
SplineSet
301 425 m 1,0,-1
 247 425 l 2,1,2
 216 425 216 425 212 414 c 0,3,4
 206 401 206 401 206 377 c 2,5,-1
 206 123 l 2,6,7
 206 121 206 121 206 111 c 128,-1,8
 206 101 206 101 208 94 c 0,9,10
 212 75 212 75 247 75 c 2,11,-1
 301 75 l 1,12,-1
 301 0 l 1,13,-1
 204 0 l 2,14,15
 166 0 166 0 142 3.5 c 128,-1,16
 118 7 118 7 100 19 c 128,-1,17
 82 31 82 31 73 45.5 c 128,-1,18
 64 60 64 60 58 92 c 1,19,20
 51 137 51 137 51 218 c 128,-1,21
 51 299 51 299 52 327.5 c 128,-1,22
 53 356 53 356 55.5 388 c 128,-1,23
 58 420 58 420 64.5 435 c 128,-1,24
 71 450 71 450 81.5 465.5 c 128,-1,25
 92 481 92 481 109 487 c 0,26,27
 146 500 146 500 204 500 c 2,28,-1
 301 500 l 1,29,-1
 301 425 l 1,0,-1
526 7 m 2,30,31
 526 0 526 0 522 0 c 2,32,-1
 440 0 l 2,33,34
 384 0 384 0 357.5 26 c 128,-1,35
 331 52 331 52 331 111 c 2,36,-1
 331 500 l 1,37,-1
 372 500 l 2,38,39
 435 500 435 500 458 470.5 c 128,-1,40
 481 441 481 441 481 393 c 2,41,-1
 481 113 l 2,42,43
 481 82 481 82 494 78 c 0,44,45
 501 75 501 75 513 75 c 2,46,-1
 518 75 l 2,47,48
 526 75 526 75 526 68 c 2,49,-1
 526 7 l 2,30,31
239 530 m 1,50,-1
 239 666 l 2,51,52
 239 711 239 711 244 717 c 128,-1,53
 249 723 249 723 287 723 c 2,54,-1
 403 723 l 1,55,-1
 311 530 l 1,56,-1
 239 530 l 1,50,-1
EndSplineSet
EndChar

StartChar: acircumflex
Encoding: 226 226 164
Width: 547
GlyphClass: 2
Flags: W
LayerCount: 2
Fore
SplineSet
301 425 m 1,0,-1
 247 425 l 2,1,2
 216 425 216 425 212 414 c 0,3,4
 206 401 206 401 206 377 c 2,5,-1
 206 123 l 2,6,7
 206 121 206 121 206 111 c 128,-1,8
 206 101 206 101 208 94 c 0,9,10
 212 75 212 75 247 75 c 2,11,-1
 301 75 l 1,12,-1
 301 0 l 1,13,-1
 204 0 l 2,14,15
 166 0 166 0 142 3.5 c 128,-1,16
 118 7 118 7 100 19 c 128,-1,17
 82 31 82 31 73 45.5 c 128,-1,18
 64 60 64 60 58 92 c 1,19,20
 51 137 51 137 51 218 c 128,-1,21
 51 299 51 299 52 327.5 c 128,-1,22
 53 356 53 356 55.5 388 c 128,-1,23
 58 420 58 420 64.5 435 c 128,-1,24
 71 450 71 450 81.5 465.5 c 128,-1,25
 92 481 92 481 109 487 c 0,26,27
 146 500 146 500 204 500 c 2,28,-1
 301 500 l 1,29,-1
 301 425 l 1,0,-1
526 7 m 2,30,31
 526 0 526 0 522 0 c 2,32,-1
 440 0 l 2,33,34
 384 0 384 0 357.5 26 c 128,-1,35
 331 52 331 52 331 111 c 2,36,-1
 331 500 l 1,37,-1
 372 500 l 2,38,39
 435 500 435 500 458 470.5 c 128,-1,40
 481 441 481 441 481 393 c 2,41,-1
 481 113 l 2,42,43
 481 82 481 82 494 78 c 0,44,45
 501 75 501 75 513 75 c 2,46,-1
 518 75 l 2,47,48
 526 75 526 75 526 68 c 2,49,-1
 526 7 l 2,30,31
223 713 m 2,50,-1
 331 713 l 2,51,52
 341 713 341 713 346 712 c 128,-1,53
 351 711 351 711 355 710.5 c 128,-1,54
 359 710 359 710 362.5 705.5 c 128,-1,55
 366 701 366 701 367.5 698 c 128,-1,56
 369 695 369 695 374 684.5 c 128,-1,57
 379 674 379 674 383 666 c 2,58,-1
 447 540 l 1,59,-1
 336 540 l 1,60,-1
 279 660 l 1,61,-1
 222 540 l 1,62,-1
 110 540 l 1,63,-1
 186 681 l 2,64,65
 200 708 200 708 205 710 c 0,66,67
 211 713 211 713 223 713 c 2,50,-1
EndSplineSet
EndChar

StartChar: atilde
Encoding: 227 227 165
Width: 547
GlyphClass: 2
Flags: W
LayerCount: 2
Fore
SplineSet
301 425 m 1,0,-1
 247 425 l 2,1,2
 216 425 216 425 212 414 c 0,3,4
 206 401 206 401 206 377 c 2,5,-1
 206 123 l 2,6,7
 206 121 206 121 206 111 c 128,-1,8
 206 101 206 101 208 94 c 0,9,10
 212 75 212 75 247 75 c 2,11,-1
 301 75 l 1,12,-1
 301 0 l 1,13,-1
 204 0 l 2,14,15
 166 0 166 0 142 3.5 c 128,-1,16
 118 7 118 7 100 19 c 128,-1,17
 82 31 82 31 73 45.5 c 128,-1,18
 64 60 64 60 58 92 c 1,19,20
 51 137 51 137 51 218 c 128,-1,21
 51 299 51 299 52 327.5 c 128,-1,22
 53 356 53 356 55.5 388 c 128,-1,23
 58 420 58 420 64.5 435 c 128,-1,24
 71 450 71 450 81.5 465.5 c 128,-1,25
 92 481 92 481 109 487 c 0,26,27
 146 500 146 500 204 500 c 2,28,-1
 301 500 l 1,29,-1
 301 425 l 1,0,-1
526 7 m 2,30,31
 526 0 526 0 522 0 c 2,32,-1
 440 0 l 2,33,34
 384 0 384 0 357.5 26 c 128,-1,35
 331 52 331 52 331 111 c 2,36,-1
 331 500 l 1,37,-1
 372 500 l 2,38,39
 435 500 435 500 458 470.5 c 128,-1,40
 481 441 481 441 481 393 c 2,41,-1
 481 113 l 2,42,43
 481 82 481 82 494 78 c 0,44,45
 501 75 501 75 513 75 c 2,46,-1
 518 75 l 2,47,48
 526 75 526 75 526 68 c 2,49,-1
 526 7 l 2,30,31
357 656 m 1,50,-1
 361 655 l 1,51,52
 375 655 375 655 375 674 c 2,53,-1
 375 677 l 2,54,55
 375 683 375 683 385 683 c 2,56,-1
 432 683 l 1,57,-1
 435 680 l 1,58,-1
 435 617 l 2,59,60
 435 593 435 593 420.5 579 c 128,-1,61
 406 565 406 565 379 565 c 2,62,-1
 372 565 l 1,63,-1
 200 590 l 1,64,-1
 195 590 l 2,65,66
 182 590 182 590 182 575 c 2,67,-1
 182 571 l 2,68,69
 182 563 182 563 178 563 c 2,70,-1
 125 563 l 1,71,-1
 122 569 l 1,72,-1
 122 631 l 2,73,74
 122 654 122 654 137 668.5 c 128,-1,75
 152 683 152 683 177 683 c 2,76,-1
 185 683 l 1,77,-1
 357 656 l 1,50,-1
EndSplineSet
EndChar

StartChar: adieresis
Encoding: 228 228 166
Width: 547
GlyphClass: 2
Flags: W
LayerCount: 2
Fore
SplineSet
301 425 m 1,0,-1
 247 425 l 2,1,2
 216 425 216 425 212 414 c 0,3,4
 206 401 206 401 206 377 c 2,5,-1
 206 123 l 2,6,7
 206 121 206 121 206 111 c 128,-1,8
 206 101 206 101 208 94 c 0,9,10
 212 75 212 75 247 75 c 2,11,-1
 301 75 l 1,12,-1
 301 0 l 1,13,-1
 204 0 l 2,14,15
 166 0 166 0 142 3.5 c 128,-1,16
 118 7 118 7 100 19 c 128,-1,17
 82 31 82 31 73 45.5 c 128,-1,18
 64 60 64 60 58 92 c 1,19,20
 51 137 51 137 51 218 c 128,-1,21
 51 299 51 299 52 327.5 c 128,-1,22
 53 356 53 356 55.5 388 c 128,-1,23
 58 420 58 420 64.5 435 c 128,-1,24
 71 450 71 450 81.5 465.5 c 128,-1,25
 92 481 92 481 109 487 c 0,26,27
 146 500 146 500 204 500 c 2,28,-1
 301 500 l 1,29,-1
 301 425 l 1,0,-1
526 7 m 2,30,31
 526 0 526 0 522 0 c 2,32,-1
 440 0 l 2,33,34
 384 0 384 0 357.5 26 c 128,-1,35
 331 52 331 52 331 111 c 2,36,-1
 331 500 l 1,37,-1
 372 500 l 2,38,39
 435 500 435 500 458 470.5 c 128,-1,40
 481 441 481 441 481 393 c 2,41,-1
 481 113 l 2,42,43
 481 82 481 82 494 78 c 0,44,45
 501 75 501 75 513 75 c 2,46,-1
 518 75 l 2,47,48
 526 75 526 75 526 68 c 2,49,-1
 526 7 l 2,30,31
340 699 m 2,50,-1
 457 699 l 1,51,52
 468 697 468 697 468 681 c 0,53,54
 468 678 468 678 468 677 c 2,55,-1
 468 572 l 2,56,57
 468 566 468 566 466 564 c 128,-1,58
 464 562 464 562 457 561 c 1,59,-1
 340 561 l 1,60,61
 333 562 333 562 331 564 c 128,-1,62
 329 566 329 566 329 572 c 2,63,-1
 329 690 l 2,64,65
 329 692 329 692 330 693 c 128,-1,66
 331 694 331 694 332 696 c 0,67,68
 334 699 334 699 340 699 c 2,50,-1
230 677 m 2,69,-1
 230 586 l 2,70,71
 230 583 230 583 230 577 c 128,-1,72
 230 571 230 571 230 568 c 0,73,74
 228 561 228 561 219 561 c 2,75,-1
 101 561 l 1,76,77
 91 562 91 562 91 572 c 2,78,-1
 91 686 l 2,79,80
 91 697 91 697 101 699 c 1,81,-1
 219 699 l 1,82,83
 230 697 230 697 230 680 c 0,84,85
 230 678 230 678 230 677 c 2,69,-1
EndSplineSet
EndChar

StartChar: aring
Encoding: 229 229 167
Width: 547
GlyphClass: 2
Flags: W
LayerCount: 2
Fore
SplineSet
301 425 m 1,0,-1
 247 425 l 2,1,2
 216 425 216 425 212 414 c 0,3,4
 206 401 206 401 206 377 c 2,5,-1
 206 123 l 2,6,7
 206 121 206 121 206 111 c 128,-1,8
 206 101 206 101 208 94 c 0,9,10
 212 75 212 75 247 75 c 2,11,-1
 301 75 l 1,12,-1
 301 0 l 1,13,-1
 204 0 l 2,14,15
 166 0 166 0 142 3.5 c 128,-1,16
 118 7 118 7 100 19 c 128,-1,17
 82 31 82 31 73 45.5 c 128,-1,18
 64 60 64 60 58 92 c 1,19,20
 51 137 51 137 51 218 c 128,-1,21
 51 299 51 299 52 327.5 c 128,-1,22
 53 356 53 356 55.5 388 c 128,-1,23
 58 420 58 420 64.5 435 c 128,-1,24
 71 450 71 450 81.5 465.5 c 128,-1,25
 92 481 92 481 109 487 c 0,26,27
 146 500 146 500 204 500 c 2,28,-1
 301 500 l 1,29,-1
 301 425 l 1,0,-1
526 7 m 2,30,31
 526 0 526 0 522 0 c 2,32,-1
 440 0 l 2,33,34
 384 0 384 0 357.5 26 c 128,-1,35
 331 52 331 52 331 111 c 2,36,-1
 331 500 l 1,37,-1
 372 500 l 2,38,39
 435 500 435 500 458 470.5 c 128,-1,40
 481 441 481 441 481 393 c 2,41,-1
 481 113 l 2,42,43
 481 82 481 82 494 78 c 0,44,45
 501 75 501 75 513 75 c 2,46,-1
 518 75 l 2,47,48
 526 75 526 75 526 68 c 2,49,-1
 526 7 l 2,30,31
188.5 749 m 128,-1,51
 226 786 226 786 278.5 786 c 128,-1,52
 331 786 331 786 368 749 c 128,-1,53
 405 712 405 712 405 659 c 128,-1,54
 405 606 405 606 368 568.5 c 128,-1,55
 331 531 331 531 278.5 531 c 128,-1,56
 226 531 226 531 188.5 568.5 c 128,-1,57
 151 606 151 606 151 659 c 128,-1,50
 151 712 151 712 188.5 749 c 128,-1,51
319 699.5 m 128,-1,59
 302 716 302 716 278.5 716 c 128,-1,60
 255 716 255 716 238.5 699.5 c 128,-1,61
 222 683 222 683 222 659.5 c 128,-1,62
 222 636 222 636 238.5 619 c 128,-1,63
 255 602 255 602 278.5 602 c 128,-1,64
 302 602 302 602 319 619 c 128,-1,65
 336 636 336 636 336 659.5 c 128,-1,58
 336 683 336 683 319 699.5 c 128,-1,59
EndSplineSet
EndChar

StartChar: ae
Encoding: 230 230 168
Width: 798
GlyphClass: 2
Flags: W
LayerCount: 2
Fore
SplineSet
301 425 m 1,0,-1
 247 425 l 2,1,2
 216 425 216 425 212 414 c 0,3,4
 206 401 206 401 206 377 c 2,5,-1
 206 123 l 2,6,7
 206 121 206 121 206 111 c 128,-1,8
 206 101 206 101 208 94 c 0,9,10
 212 75 212 75 247 75 c 2,11,-1
 301 75 l 1,12,-1
 301 0 l 1,13,-1
 204 0 l 2,14,15
 166 0 166 0 142 3.5 c 128,-1,16
 118 7 118 7 100 19 c 128,-1,17
 82 31 82 31 73 45.5 c 128,-1,18
 64 60 64 60 58 92 c 1,19,20
 51 137 51 137 51 218 c 128,-1,21
 51 299 51 299 52 327.5 c 128,-1,22
 53 356 53 356 55.5 388 c 128,-1,23
 58 420 58 420 64.5 435 c 128,-1,24
 71 450 71 450 81.5 465.5 c 128,-1,25
 92 481 92 481 109 487 c 0,26,27
 146 500 146 500 204 500 c 2,28,-1
 301 500 l 1,29,-1
 301 425 l 1,0,-1
331 500 m 1,30,-1
 372 500 l 2,31,32
 485 500 485 500 485 393 c 2,33,-1
 485 0 l 1,34,-1
 483 0 l 2,35,36
 375 0 375 0 353 43.5 c 128,-1,37
 331 87 331 87 331 260 c 2,38,-1
 331 500 l 1,30,-1
751 158 m 1,39,-1
 751 107 l 2,40,41
 751 0 751 0 642 0 c 2,42,-1
 516 0 l 1,43,-1
 516 75 l 1,44,-1
 570 75 l 2,45,46
 591 75 591 75 596 81.5 c 128,-1,47
 601 88 601 88 601 105 c 2,48,-1
 601 137 l 2,49,50
 601 152 601 152 604.5 154 c 128,-1,51
 608 156 608 156 609 156.5 c 128,-1,52
 610 157 610 157 614.5 157.5 c 128,-1,53
 619 158 619 158 620 158 c 0,54,55
 686 158 686 158 751 158 c 1,39,-1
516 500 m 1,56,-1
 632 500 l 2,57,58
 701 500 701 500 726 473 c 128,-1,59
 751 446 751 446 751 393 c 2,60,-1
 751 305 l 2,61,62
 751 215 751 215 653 215 c 2,63,-1
 506 215 l 1,64,-1
 506 290 l 1,65,-1
 560 290 l 2,66,67
 584 290 584 290 592.5 296 c 128,-1,68
 601 302 601 302 601 319 c 2,69,-1
 601 395 l 2,70,71
 601 412 601 412 596 418.5 c 128,-1,72
 591 425 591 425 570 425 c 2,73,-1
 516 425 l 1,74,-1
 516 500 l 1,56,-1
EndSplineSet
EndChar

StartChar: ccedilla
Encoding: 231 231 169
Width: 515
GlyphClass: 2
Flags: W
LayerCount: 2
Fore
SplineSet
206 0 m 1,0,-1
 204 0 l 2,1,2
 105 0 105 0 82 34 c 0,3,4
 71 50 71 50 64.5 65 c 128,-1,5
 58 80 58 80 56 112 c 0,6,7
 51 170 51 170 51 241 c 128,-1,8
 51 312 51 312 52 343.5 c 128,-1,9
 53 375 53 375 58.5 407.5 c 128,-1,10
 64 440 64 440 73 454.5 c 128,-1,11
 82 469 82 469 100 481 c 128,-1,12
 118 493 118 493 142 496.5 c 128,-1,13
 166 500 166 500 204 500 c 2,14,-1
 206 500 l 1,15,-1
 206 0 l 1,0,-1
322 158 m 1,16,17
 389 158 389 158 424 158 c 128,-1,18
 459 158 459 158 460 157.5 c 128,-1,19
 461 157 461 157 463.5 156.5 c 128,-1,20
 466 156 466 156 467 155 c 128,-1,21
 468 154 468 154 469 152.5 c 128,-1,22
 470 151 470 151 470 148 c 0,23,24
 472 141 472 141 472 137 c 2,25,-1
 472 107 l 2,26,27
 472 0 472 0 363 0 c 2,28,-1
 237 0 l 1,29,-1
 237 75 l 1,30,-1
 291 75 l 2,31,32
 312 75 312 75 317 81.5 c 128,-1,33
 322 88 322 88 322 105 c 2,34,-1
 322 158 l 1,16,17
237 500 m 1,35,-1
 363 500 l 2,36,37
 472 500 472 500 472 393 c 2,38,-1
 472 325 l 1,39,40
 405 325 405 325 370 325 c 128,-1,41
 335 325 335 325 334 325.5 c 128,-1,42
 333 326 333 326 330.5 326.5 c 128,-1,43
 328 327 328 327 327 328 c 128,-1,44
 326 329 326 329 325 330.5 c 128,-1,45
 324 332 324 332 324 334 c 0,46,47
 322 342 322 342 322 346 c 2,48,-1
 322 395 l 2,49,50
 322 412 322 412 317 418.5 c 128,-1,51
 312 425 312 425 291 425 c 2,52,-1
 237 425 l 1,53,-1
 237 500 l 1,35,-1
195 -79 m 2,54,-1
 236 -80 l 2,55,56
 249 -80 249 -80 254 -79 c 0,57,58
 265 -76 265 -76 265 -51 c 2,59,-1
 265 33 l 1,60,-1
 340 33 l 1,61,-1
 340 -103 l 2,62,63
 340 -151 340 -151 322.5 -167 c 128,-1,64
 305 -183 305 -183 244 -183 c 2,65,-1
 184 -183 l 1,66,-1
 184 -89 l 2,67,68
 184 -82 184 -82 185.5 -80.5 c 128,-1,69
 187 -79 187 -79 195 -79 c 2,54,-1
EndSplineSet
EndChar

StartChar: egrave
Encoding: 232 232 170
Width: 520
GlyphClass: 2
Flags: W
LayerCount: 2
Fore
SplineSet
206 0 m 1,0,-1
 204 0 l 2,1,2
 105 0 105 0 82 34 c 0,3,4
 71 50 71 50 64.5 65 c 128,-1,5
 58 80 58 80 56 112 c 0,6,7
 51 170 51 170 51 241 c 128,-1,8
 51 312 51 312 52 343.5 c 128,-1,9
 53 375 53 375 58.5 407.5 c 128,-1,10
 64 440 64 440 73 454.5 c 128,-1,11
 82 469 82 469 100 481 c 128,-1,12
 118 493 118 493 142 496.5 c 128,-1,13
 166 500 166 500 204 500 c 2,14,-1
 206 500 l 1,15,-1
 206 0 l 1,0,-1
472 158 m 1,16,-1
 472 107 l 2,17,18
 472 0 472 0 363 0 c 2,19,-1
 237 0 l 1,20,-1
 237 75 l 1,21,-1
 291 75 l 2,22,23
 312 75 312 75 317 81.5 c 128,-1,24
 322 88 322 88 322 105 c 2,25,-1
 322 137 l 2,26,27
 322 152 322 152 325.5 154 c 128,-1,28
 329 156 329 156 330 156.5 c 128,-1,29
 331 157 331 157 335.5 157.5 c 128,-1,30
 340 158 340 158 342 158 c 0,31,32
 407 158 407 158 472 158 c 1,16,-1
237 500 m 1,33,-1
 353 500 l 2,34,35
 422 500 422 500 447 473 c 128,-1,36
 472 446 472 446 472 393 c 2,37,-1
 472 305 l 2,38,39
 472 215 472 215 374 215 c 2,40,-1
 227 215 l 1,41,-1
 227 290 l 1,42,-1
 281 290 l 2,43,44
 305 290 305 290 313.5 296 c 128,-1,45
 322 302 322 302 322 319 c 2,46,-1
 322 395 l 2,47,48
 322 412 322 412 317 418.5 c 128,-1,49
 312 425 312 425 291 425 c 2,50,-1
 237 425 l 1,51,-1
 237 500 l 1,33,-1
251 723 m 2,52,53
 289 723 289 723 294 717 c 128,-1,54
 299 711 299 711 299 666 c 2,55,-1
 299 530 l 1,56,-1
 227 530 l 1,57,-1
 135 723 l 1,58,-1
 251 723 l 2,52,53
EndSplineSet
EndChar

StartChar: eacute
Encoding: 233 233 171
Width: 520
GlyphClass: 2
Flags: W
LayerCount: 2
Fore
SplineSet
206 0 m 1,0,-1
 204 0 l 2,1,2
 105 0 105 0 82 34 c 0,3,4
 71 50 71 50 64.5 65 c 128,-1,5
 58 80 58 80 56 112 c 0,6,7
 51 170 51 170 51 241 c 128,-1,8
 51 312 51 312 52 343.5 c 128,-1,9
 53 375 53 375 58.5 407.5 c 128,-1,10
 64 440 64 440 73 454.5 c 128,-1,11
 82 469 82 469 100 481 c 128,-1,12
 118 493 118 493 142 496.5 c 128,-1,13
 166 500 166 500 204 500 c 2,14,-1
 206 500 l 1,15,-1
 206 0 l 1,0,-1
472 158 m 1,16,-1
 472 107 l 2,17,18
 472 0 472 0 363 0 c 2,19,-1
 237 0 l 1,20,-1
 237 75 l 1,21,-1
 291 75 l 2,22,23
 312 75 312 75 317 81.5 c 128,-1,24
 322 88 322 88 322 105 c 2,25,-1
 322 137 l 2,26,27
 322 152 322 152 325.5 154 c 128,-1,28
 329 156 329 156 330 156.5 c 128,-1,29
 331 157 331 157 335.5 157.5 c 128,-1,30
 340 158 340 158 342 158 c 0,31,32
 407 158 407 158 472 158 c 1,16,-1
237 500 m 1,33,-1
 353 500 l 2,34,35
 422 500 422 500 447 473 c 128,-1,36
 472 446 472 446 472 393 c 2,37,-1
 472 305 l 2,38,39
 472 215 472 215 374 215 c 2,40,-1
 227 215 l 1,41,-1
 227 290 l 1,42,-1
 281 290 l 2,43,44
 305 290 305 290 313.5 296 c 128,-1,45
 322 302 322 302 322 319 c 2,46,-1
 322 395 l 2,47,48
 322 412 322 412 317 418.5 c 128,-1,49
 312 425 312 425 291 425 c 2,50,-1
 237 425 l 1,51,-1
 237 500 l 1,33,-1
222 530 m 1,52,-1
 222 666 l 2,53,54
 222 711 222 711 227 717 c 128,-1,55
 232 723 232 723 270 723 c 2,56,-1
 386 723 l 1,57,-1
 294 530 l 1,58,-1
 222 530 l 1,52,-1
EndSplineSet
EndChar

StartChar: ecircumflex
Encoding: 234 234 172
Width: 520
GlyphClass: 2
Flags: W
LayerCount: 2
Fore
SplineSet
206 0 m 1,0,-1
 204 0 l 2,1,2
 105 0 105 0 82 34 c 0,3,4
 71 50 71 50 64.5 65 c 128,-1,5
 58 80 58 80 56 112 c 0,6,7
 51 170 51 170 51 241 c 128,-1,8
 51 312 51 312 52 343.5 c 128,-1,9
 53 375 53 375 58.5 407.5 c 128,-1,10
 64 440 64 440 73 454.5 c 128,-1,11
 82 469 82 469 100 481 c 128,-1,12
 118 493 118 493 142 496.5 c 128,-1,13
 166 500 166 500 204 500 c 2,14,-1
 206 500 l 1,15,-1
 206 0 l 1,0,-1
472 158 m 1,16,-1
 472 107 l 2,17,18
 472 0 472 0 363 0 c 2,19,-1
 237 0 l 1,20,-1
 237 75 l 1,21,-1
 291 75 l 2,22,23
 312 75 312 75 317 81.5 c 128,-1,24
 322 88 322 88 322 105 c 2,25,-1
 322 137 l 2,26,27
 322 152 322 152 325.5 154 c 128,-1,28
 329 156 329 156 330 156.5 c 128,-1,29
 331 157 331 157 335.5 157.5 c 128,-1,30
 340 158 340 158 342 158 c 0,31,32
 407 158 407 158 472 158 c 1,16,-1
237 500 m 1,33,-1
 353 500 l 2,34,35
 422 500 422 500 447 473 c 128,-1,36
 472 446 472 446 472 393 c 2,37,-1
 472 305 l 2,38,39
 472 215 472 215 374 215 c 2,40,-1
 227 215 l 1,41,-1
 227 290 l 1,42,-1
 281 290 l 2,43,44
 305 290 305 290 313.5 296 c 128,-1,45
 322 302 322 302 322 319 c 2,46,-1
 322 395 l 2,47,48
 322 412 322 412 317 418.5 c 128,-1,49
 312 425 312 425 291 425 c 2,50,-1
 237 425 l 1,51,-1
 237 500 l 1,33,-1
206 713 m 2,52,-1
 314 713 l 2,53,54
 324 713 324 713 329 712 c 128,-1,55
 334 711 334 711 338 710.5 c 128,-1,56
 342 710 342 710 345.5 705.5 c 128,-1,57
 349 701 349 701 350.5 698 c 128,-1,58
 352 695 352 695 357 684.5 c 128,-1,59
 362 674 362 674 366 666 c 2,60,-1
 430 540 l 1,61,-1
 319 540 l 1,62,-1
 262 660 l 1,63,-1
 205 540 l 1,64,-1
 93 540 l 1,65,-1
 169 681 l 2,66,67
 183 708 183 708 188 710 c 0,68,69
 194 713 194 713 206 713 c 2,52,-1
EndSplineSet
EndChar

StartChar: edieresis
Encoding: 235 235 173
Width: 520
GlyphClass: 2
Flags: W
LayerCount: 2
Fore
SplineSet
206 0 m 1,0,-1
 204 0 l 2,1,2
 105 0 105 0 82 34 c 0,3,4
 71 50 71 50 64.5 65 c 128,-1,5
 58 80 58 80 56 112 c 0,6,7
 51 170 51 170 51 241 c 128,-1,8
 51 312 51 312 52 343.5 c 128,-1,9
 53 375 53 375 58.5 407.5 c 128,-1,10
 64 440 64 440 73 454.5 c 128,-1,11
 82 469 82 469 100 481 c 128,-1,12
 118 493 118 493 142 496.5 c 128,-1,13
 166 500 166 500 204 500 c 2,14,-1
 206 500 l 1,15,-1
 206 0 l 1,0,-1
472 158 m 1,16,-1
 472 107 l 2,17,18
 472 0 472 0 363 0 c 2,19,-1
 237 0 l 1,20,-1
 237 75 l 1,21,-1
 291 75 l 2,22,23
 312 75 312 75 317 81.5 c 128,-1,24
 322 88 322 88 322 105 c 2,25,-1
 322 137 l 2,26,27
 322 152 322 152 325.5 154 c 128,-1,28
 329 156 329 156 330 156.5 c 128,-1,29
 331 157 331 157 335.5 157.5 c 128,-1,30
 340 158 340 158 342 158 c 0,31,32
 407 158 407 158 472 158 c 1,16,-1
237 500 m 1,33,-1
 353 500 l 2,34,35
 422 500 422 500 447 473 c 128,-1,36
 472 446 472 446 472 393 c 2,37,-1
 472 305 l 2,38,39
 472 215 472 215 374 215 c 2,40,-1
 227 215 l 1,41,-1
 227 290 l 1,42,-1
 281 290 l 2,43,44
 305 290 305 290 313.5 296 c 128,-1,45
 322 302 322 302 322 319 c 2,46,-1
 322 395 l 2,47,48
 322 412 322 412 317 418.5 c 128,-1,49
 312 425 312 425 291 425 c 2,50,-1
 237 425 l 1,51,-1
 237 500 l 1,33,-1
323 699 m 2,52,-1
 440 699 l 1,53,54
 451 697 451 697 451 681 c 0,55,56
 451 678 451 678 451 677 c 2,57,-1
 451 572 l 2,58,59
 451 566 451 566 449 564 c 128,-1,60
 447 562 447 562 440 561 c 1,61,-1
 323 561 l 1,62,63
 316 562 316 562 314 564 c 128,-1,64
 312 566 312 566 312 572 c 2,65,-1
 312 690 l 2,66,67
 312 692 312 692 313 693 c 128,-1,68
 314 694 314 694 315 696 c 0,69,70
 317 699 317 699 323 699 c 2,52,-1
213 677 m 2,71,-1
 213 586 l 2,72,73
 213 583 213 583 213 577 c 128,-1,74
 213 571 213 571 212 568 c 0,75,76
 211 561 211 561 202 561 c 2,77,-1
 84 561 l 1,78,79
 74 562 74 562 74 572 c 2,80,-1
 74 686 l 2,81,82
 74 697 74 697 84 699 c 1,83,-1
 202 699 l 1,84,85
 213 697 213 697 213 680 c 0,86,87
 213 678 213 678 213 677 c 2,71,-1
EndSplineSet
EndChar

StartChar: igrave
Encoding: 236 236 174
Width: 265
GlyphClass: 2
Flags: W
LayerCount: 2
Fore
SplineSet
144 723 m 2,0,1
 182 723 182 723 187 717 c 128,-1,2
 192 711 192 711 192 666 c 2,3,-1
 192 530 l 1,4,-1
 120 530 l 1,5,-1
 28 723 l 1,6,-1
 144 723 l 2,0,1
58 499 m 1,7,-1
 119 499 l 2,8,9
 163 499 163 499 185.5 477.5 c 128,-1,10
 208 456 208 456 208 422 c 2,11,-1
 208 0 l 1,12,-1
 94 0 l 2,13,14
 78 0 78 0 68 11 c 128,-1,15
 58 22 58 22 58 40 c 2,16,-1
 58 499 l 1,7,-1
EndSplineSet
EndChar

StartChar: iacute
Encoding: 237 237 175
Width: 265
GlyphClass: 2
Flags: W
LayerCount: 2
Fore
SplineSet
58 499 m 1,0,-1
 119 499 l 2,1,2
 163 499 163 499 185.5 477.5 c 128,-1,3
 208 456 208 456 208 422 c 2,4,-1
 208 0 l 1,5,-1
 94 0 l 2,6,7
 78 0 78 0 68 11 c 128,-1,8
 58 22 58 22 58 40 c 2,9,-1
 58 499 l 1,0,-1
58 530 m 1,10,-1
 58 666 l 2,11,12
 58 711 58 711 63 717 c 128,-1,13
 68 723 68 723 106 723 c 2,14,-1
 222 723 l 1,15,-1
 130 530 l 1,16,-1
 58 530 l 1,10,-1
EndSplineSet
EndChar

StartChar: icircumflex
Encoding: 238 238 176
Width: 265
GlyphClass: 2
Flags: W
LayerCount: 2
Fore
SplineSet
58 499 m 1,0,-1
 119 499 l 2,1,2
 163 499 163 499 185.5 477.5 c 128,-1,3
 208 456 208 456 208 422 c 2,4,-1
 208 0 l 1,5,-1
 94 0 l 2,6,7
 78 0 78 0 68 11 c 128,-1,8
 58 22 58 22 58 40 c 2,9,-1
 58 499 l 1,0,-1
42 713 m 2,10,-1
 150 713 l 2,11,12
 160 713 160 713 165 712 c 128,-1,13
 170 711 170 711 174 710.5 c 128,-1,14
 178 710 178 710 181.5 705.5 c 128,-1,15
 185 701 185 701 186.5 698 c 128,-1,16
 188 695 188 695 193 684.5 c 128,-1,17
 198 674 198 674 202 666 c 2,18,-1
 266 540 l 1,19,-1
 155 540 l 1,20,-1
 98 660 l 1,21,-1
 41 540 l 1,22,-1
 -71 540 l 1,23,-1
 5 681 l 2,24,25
 19 708 19 708 24 710 c 0,26,27
 30 713 30 713 42 713 c 2,10,-1
EndSplineSet
EndChar

StartChar: idieresis
Encoding: 239 239 177
Width: 265
GlyphClass: 2
Flags: W
LayerCount: 2
Fore
SplineSet
264 721 m 1,0,1
 274 719 274 719 274 712 c 2,2,-1
 274 618 l 2,3,4
 274 598 274 598 271.5 596.5 c 128,-1,5
 269 595 269 595 264 595 c 2,6,-1
 157 595 l 1,7,8
 147 596 147 596 147 607 c 2,9,-1
 147 709 l 2,10,11
 147 719 147 719 157 721 c 1,12,-1
 264 721 l 1,0,1
94 721 m 1,13,14
 104 719 104 719 104 712 c 2,15,-1
 104 618 l 2,16,17
 104 603 104 603 103 599.5 c 128,-1,18
 102 596 102 596 94 595 c 1,19,-1
 -14 595 l 1,20,21
 -23 596 -23 596 -23 607 c 2,22,-1
 -23 709 l 2,23,24
 -23 719 -23 719 -14 721 c 1,25,-1
 94 721 l 1,13,14
58 499 m 1,26,-1
 119 499 l 2,27,28
 163 499 163 499 185.5 477.5 c 128,-1,29
 208 456 208 456 208 422 c 2,30,-1
 208 0 l 1,31,-1
 94 0 l 2,32,33
 78 0 78 0 68 11 c 128,-1,34
 58 22 58 22 58 40 c 2,35,-1
 58 499 l 1,26,-1
EndSplineSet
EndChar

StartChar: eth
Encoding: 240 240 178
Width: 560
GlyphClass: 2
Flags: W
LayerCount: 2
Fore
SplineSet
238 715 m 2,0,1
 238 721 238 721 244 723 c 1,2,-1
 340 723 l 2,3,4
 413 723 413 723 446 694 c 128,-1,5
 479 665 479 665 479 592 c 2,6,-1
 479 500 l 1,7,-1
 555 500 l 1,8,-1
 555 453 l 2,9,10
 555 423 555 423 530 423 c 2,11,-1
 479 423 l 1,12,-1
 479 78 l 2,13,14
 479 44 479 44 456.5 22 c 128,-1,15
 434 0 434 0 390 0 c 2,16,-1
 329 0 l 1,17,-1
 329 610 l 2,18,19
 329 647 329 647 287 647 c 2,20,-1
 246 647 l 2,21,22
 238 647 238 647 238 654 c 2,23,-1
 238 715 l 2,0,1
301 425 m 1,24,-1
 247 425 l 2,25,26
 221 425 221 425 213.5 418 c 128,-1,27
 206 411 206 411 206 395 c 2,28,-1
 206 104 l 2,29,30
 206 89 206 89 213.5 82 c 128,-1,31
 221 75 221 75 247 75 c 2,32,-1
 301 75 l 1,33,-1
 301 0 l 1,34,-1
 204 0 l 2,35,36
 105 0 105 0 82 34 c 0,37,38
 71 50 71 50 64.5 65 c 128,-1,39
 58 80 58 80 56 112 c 0,40,41
 51 170 51 170 51 241 c 128,-1,42
 51 312 51 312 52 343.5 c 128,-1,43
 53 375 53 375 58.5 407.5 c 128,-1,44
 64 440 64 440 73 454.5 c 128,-1,45
 82 469 82 469 100 481 c 128,-1,46
 118 493 118 493 142 496.5 c 128,-1,47
 166 500 166 500 204 500 c 2,48,-1
 301 500 l 1,49,-1
 301 425 l 1,24,-1
EndSplineSet
EndChar

StartChar: ntilde
Encoding: 241 241 179
Width: 538
GlyphClass: 2
Flags: W
LayerCount: 2
Fore
SplineSet
233 500 m 1,0,-1
 373 500 l 2,1,2
 482 500 482 500 482 393 c 2,3,-1
 482 0 l 1,4,-1
 368 0 l 2,5,6
 352 0 352 0 342 11 c 128,-1,7
 332 22 332 22 332 40 c 2,8,-1
 332 395 l 2,9,10
 332 411 332 411 324.5 418 c 128,-1,11
 317 425 317 425 291 425 c 2,12,-1
 233 425 l 1,13,-1
 233 500 l 1,0,-1
58 500 m 1,14,-1
 119 500 l 2,15,16
 163 500 163 500 185.5 478.5 c 128,-1,17
 208 457 208 457 208 423 c 2,18,-1
 208 0 l 1,19,-1
 94 0 l 2,20,21
 78 0 78 0 68 11 c 128,-1,22
 58 22 58 22 58 40 c 2,23,-1
 58 500 l 1,14,-1
376 683 m 2,24,-1
 423 683 l 1,25,-1
 426 680 l 1,26,-1
 426 617 l 2,27,28
 426 593 426 593 411.5 579 c 128,-1,29
 397 565 397 565 370 565 c 2,30,-1
 363 565 l 1,31,-1
 191 590 l 1,32,-1
 186 590 l 2,33,34
 173 590 173 590 173 575 c 2,35,-1
 173 571 l 2,36,37
 173 563 173 563 169 563 c 2,38,-1
 116 563 l 1,39,-1
 113 569 l 1,40,-1
 113 631 l 2,41,42
 113 654 113 654 127.5 668.5 c 128,-1,43
 142 683 142 683 168 683 c 2,44,-1
 176 683 l 1,45,-1
 348 656 l 1,46,-1
 352 655 l 1,47,48
 366 655 366 655 366 674 c 2,49,-1
 366 677 l 2,50,51
 366 683 366 683 376 683 c 2,24,-1
EndSplineSet
EndChar

StartChar: ograve
Encoding: 242 242 180
Width: 537
GlyphClass: 2
Flags: W
LayerCount: 2
Fore
SplineSet
236 500 m 1,0,-1
 333 500 l 2,1,2
 371 500 371 500 395 496.5 c 128,-1,3
 419 493 419 493 437 481 c 128,-1,4
 455 469 455 469 464 454.5 c 128,-1,5
 473 440 473 440 478 408 c 0,6,7
 486 363 486 363 486 282 c 128,-1,8
 486 201 486 201 485 172.5 c 128,-1,9
 484 144 484 144 481.5 112 c 128,-1,10
 479 80 479 80 472.5 65 c 128,-1,11
 466 50 466 50 455.5 34.5 c 128,-1,12
 445 19 445 19 428 13 c 0,13,14
 391 0 391 0 333 0 c 2,15,-1
 331 0 l 1,16,-1
 331 377 l 2,17,18
 331 379 331 379 331 389 c 128,-1,19
 331 399 331 399 330 406 c 0,20,21
 325 425 325 425 290 425 c 2,22,-1
 236 425 l 1,23,-1
 236 500 l 1,0,-1
206 500 m 1,24,-1
 206 123 l 2,25,26
 206 121 206 121 206 111 c 128,-1,27
 206 101 206 101 208 94 c 0,28,29
 212 75 212 75 247 75 c 2,30,-1
 301 75 l 1,31,-1
 301 0 l 1,32,-1
 204 0 l 2,33,34
 166 0 166 0 142 3.5 c 128,-1,35
 118 7 118 7 100 19 c 128,-1,36
 82 31 82 31 73 45.5 c 128,-1,37
 64 60 64 60 58 92 c 1,38,39
 51 137 51 137 51 218 c 128,-1,40
 51 299 51 299 52 327.5 c 128,-1,41
 53 356 53 356 55.5 388 c 128,-1,42
 58 420 58 420 64.5 435 c 128,-1,43
 71 450 71 450 81.5 465.5 c 128,-1,44
 92 481 92 481 109 487 c 0,45,46
 146 500 146 500 204 500 c 2,47,-1
 206 500 l 1,24,-1
265 723 m 2,48,49
 303 723 303 723 308 717 c 128,-1,50
 313 711 313 711 313 666 c 2,51,-1
 313 530 l 1,52,-1
 241 530 l 1,53,-1
 149 723 l 1,54,-1
 265 723 l 2,48,49
EndSplineSet
EndChar

StartChar: oacute
Encoding: 243 243 181
Width: 537
GlyphClass: 2
Flags: W
LayerCount: 2
Fore
SplineSet
236 500 m 1,0,-1
 333 500 l 2,1,2
 371 500 371 500 395 496.5 c 128,-1,3
 419 493 419 493 437 481 c 128,-1,4
 455 469 455 469 464 454.5 c 128,-1,5
 473 440 473 440 478 408 c 0,6,7
 486 363 486 363 486 282 c 128,-1,8
 486 201 486 201 485 172.5 c 128,-1,9
 484 144 484 144 481.5 112 c 128,-1,10
 479 80 479 80 472.5 65 c 128,-1,11
 466 50 466 50 455.5 34.5 c 128,-1,12
 445 19 445 19 428 13 c 0,13,14
 391 0 391 0 333 0 c 2,15,-1
 331 0 l 1,16,-1
 331 377 l 2,17,18
 331 379 331 379 331 389 c 128,-1,19
 331 399 331 399 330 406 c 0,20,21
 325 425 325 425 290 425 c 2,22,-1
 236 425 l 1,23,-1
 236 500 l 1,0,-1
206 500 m 1,24,-1
 206 123 l 2,25,26
 206 121 206 121 206 111 c 128,-1,27
 206 101 206 101 208 94 c 0,28,29
 212 75 212 75 247 75 c 2,30,-1
 301 75 l 1,31,-1
 301 0 l 1,32,-1
 204 0 l 2,33,34
 166 0 166 0 142 3.5 c 128,-1,35
 118 7 118 7 100 19 c 128,-1,36
 82 31 82 31 73 45.5 c 128,-1,37
 64 60 64 60 58 92 c 1,38,39
 51 137 51 137 51 218 c 128,-1,40
 51 299 51 299 52 327.5 c 128,-1,41
 53 356 53 356 55.5 388 c 128,-1,42
 58 420 58 420 64.5 435 c 128,-1,43
 71 450 71 450 81.5 465.5 c 128,-1,44
 92 481 92 481 109 487 c 0,45,46
 146 500 146 500 204 500 c 2,47,-1
 206 500 l 1,24,-1
236 530 m 1,48,-1
 236 666 l 2,49,50
 236 711 236 711 241 717 c 128,-1,51
 246 723 246 723 284 723 c 2,52,-1
 400 723 l 1,53,-1
 308 530 l 1,54,-1
 236 530 l 1,48,-1
EndSplineSet
EndChar

StartChar: ocircumflex
Encoding: 244 244 182
Width: 537
GlyphClass: 2
Flags: W
LayerCount: 2
Fore
SplineSet
236 500 m 1,0,-1
 333 500 l 2,1,2
 371 500 371 500 395 496.5 c 128,-1,3
 419 493 419 493 437 481 c 128,-1,4
 455 469 455 469 464 454.5 c 128,-1,5
 473 440 473 440 478 408 c 0,6,7
 486 363 486 363 486 282 c 128,-1,8
 486 201 486 201 485 172.5 c 128,-1,9
 484 144 484 144 481.5 112 c 128,-1,10
 479 80 479 80 472.5 65 c 128,-1,11
 466 50 466 50 455.5 34.5 c 128,-1,12
 445 19 445 19 428 13 c 0,13,14
 391 0 391 0 333 0 c 2,15,-1
 331 0 l 1,16,-1
 331 377 l 2,17,18
 331 379 331 379 331 389 c 128,-1,19
 331 399 331 399 330 406 c 0,20,21
 325 425 325 425 290 425 c 2,22,-1
 236 425 l 1,23,-1
 236 500 l 1,0,-1
206 500 m 1,24,-1
 206 123 l 2,25,26
 206 121 206 121 206 111 c 128,-1,27
 206 101 206 101 208 94 c 0,28,29
 212 75 212 75 247 75 c 2,30,-1
 301 75 l 1,31,-1
 301 0 l 1,32,-1
 204 0 l 2,33,34
 166 0 166 0 142 3.5 c 128,-1,35
 118 7 118 7 100 19 c 128,-1,36
 82 31 82 31 73 45.5 c 128,-1,37
 64 60 64 60 58 92 c 1,38,39
 51 137 51 137 51 218 c 128,-1,40
 51 299 51 299 52 327.5 c 128,-1,41
 53 356 53 356 55.5 388 c 128,-1,42
 58 420 58 420 64.5 435 c 128,-1,43
 71 450 71 450 81.5 465.5 c 128,-1,44
 92 481 92 481 109 487 c 0,45,46
 146 500 146 500 204 500 c 2,47,-1
 206 500 l 1,24,-1
220 713 m 2,48,-1
 328 713 l 2,49,50
 338 713 338 713 343 712 c 128,-1,51
 348 711 348 711 352 710.5 c 128,-1,52
 356 710 356 710 359.5 705.5 c 128,-1,53
 363 701 363 701 364.5 698 c 128,-1,54
 366 695 366 695 371 684.5 c 128,-1,55
 376 674 376 674 380 666 c 2,56,-1
 444 540 l 1,57,-1
 333 540 l 1,58,-1
 276 660 l 1,59,-1
 219 540 l 1,60,-1
 107 540 l 1,61,-1
 183 681 l 2,62,63
 197 708 197 708 202 710 c 0,64,65
 208 713 208 713 220 713 c 2,48,-1
EndSplineSet
EndChar

StartChar: otilde
Encoding: 245 245 183
Width: 537
GlyphClass: 2
Flags: W
LayerCount: 2
Fore
SplineSet
236 500 m 1,0,-1
 333 500 l 2,1,2
 371 500 371 500 395 496.5 c 128,-1,3
 419 493 419 493 437 481 c 128,-1,4
 455 469 455 469 464 454.5 c 128,-1,5
 473 440 473 440 478 408 c 0,6,7
 486 363 486 363 486 282 c 128,-1,8
 486 201 486 201 485 172.5 c 128,-1,9
 484 144 484 144 481.5 112 c 128,-1,10
 479 80 479 80 472.5 65 c 128,-1,11
 466 50 466 50 455.5 34.5 c 128,-1,12
 445 19 445 19 428 13 c 0,13,14
 391 0 391 0 333 0 c 2,15,-1
 331 0 l 1,16,-1
 331 377 l 2,17,18
 331 379 331 379 331 389 c 128,-1,19
 331 399 331 399 330 406 c 0,20,21
 325 425 325 425 290 425 c 2,22,-1
 236 425 l 1,23,-1
 236 500 l 1,0,-1
206 500 m 1,24,-1
 206 123 l 2,25,26
 206 121 206 121 206 111 c 128,-1,27
 206 101 206 101 208 94 c 0,28,29
 212 75 212 75 247 75 c 2,30,-1
 301 75 l 1,31,-1
 301 0 l 1,32,-1
 204 0 l 2,33,34
 166 0 166 0 142 3.5 c 128,-1,35
 118 7 118 7 100 19 c 128,-1,36
 82 31 82 31 73 45.5 c 128,-1,37
 64 60 64 60 58 92 c 1,38,39
 51 137 51 137 51 218 c 128,-1,40
 51 299 51 299 52 327.5 c 128,-1,41
 53 356 53 356 55.5 388 c 128,-1,42
 58 420 58 420 64.5 435 c 128,-1,43
 71 450 71 450 81.5 465.5 c 128,-1,44
 92 481 92 481 109 487 c 0,45,46
 146 500 146 500 204 500 c 2,47,-1
 206 500 l 1,24,-1
382 683 m 2,48,-1
 429 683 l 1,49,-1
 432 680 l 1,50,-1
 432 617 l 2,51,52
 432 593 432 593 417.5 579 c 128,-1,53
 403 565 403 565 376 565 c 2,54,-1
 369 565 l 1,55,-1
 197 590 l 1,56,-1
 192 590 l 2,57,58
 179 590 179 590 179 575 c 2,59,-1
 179 571 l 2,60,61
 179 563 179 563 175 563 c 2,62,-1
 122 563 l 1,63,-1
 119 569 l 1,64,-1
 119 631 l 2,65,66
 119 654 119 654 133.5 668.5 c 128,-1,67
 148 683 148 683 174 683 c 2,68,-1
 182 683 l 1,69,-1
 354 656 l 1,70,-1
 358 655 l 1,71,72
 372 655 372 655 372 674 c 2,73,-1
 372 677 l 2,74,75
 372 683 372 683 382 683 c 2,48,-1
EndSplineSet
EndChar

StartChar: odieresis
Encoding: 246 246 184
Width: 537
GlyphClass: 2
Flags: W
LayerCount: 2
Fore
SplineSet
236 500 m 1,0,-1
 333 500 l 2,1,2
 371 500 371 500 395 496.5 c 128,-1,3
 419 493 419 493 437 481 c 128,-1,4
 455 469 455 469 464 454.5 c 128,-1,5
 473 440 473 440 478 408 c 0,6,7
 486 363 486 363 486 282 c 128,-1,8
 486 201 486 201 485 172.5 c 128,-1,9
 484 144 484 144 481.5 112 c 128,-1,10
 479 80 479 80 472.5 65 c 128,-1,11
 466 50 466 50 455.5 34.5 c 128,-1,12
 445 19 445 19 428 13 c 0,13,14
 391 0 391 0 333 0 c 2,15,-1
 331 0 l 1,16,-1
 331 377 l 2,17,18
 331 379 331 379 331 389 c 128,-1,19
 331 399 331 399 330 406 c 0,20,21
 325 425 325 425 290 425 c 2,22,-1
 236 425 l 1,23,-1
 236 500 l 1,0,-1
206 500 m 1,24,-1
 206 123 l 2,25,26
 206 121 206 121 206 111 c 128,-1,27
 206 101 206 101 208 94 c 0,28,29
 212 75 212 75 247 75 c 2,30,-1
 301 75 l 1,31,-1
 301 0 l 1,32,-1
 204 0 l 2,33,34
 166 0 166 0 142 3.5 c 128,-1,35
 118 7 118 7 100 19 c 128,-1,36
 82 31 82 31 73 45.5 c 128,-1,37
 64 60 64 60 58 92 c 1,38,39
 51 137 51 137 51 218 c 128,-1,40
 51 299 51 299 52 327.5 c 128,-1,41
 53 356 53 356 55.5 388 c 128,-1,42
 58 420 58 420 64.5 435 c 128,-1,43
 71 450 71 450 81.5 465.5 c 128,-1,44
 92 481 92 481 109 487 c 0,45,46
 146 500 146 500 204 500 c 2,47,-1
 206 500 l 1,24,-1
337 699 m 2,48,-1
 454 699 l 1,49,50
 465 697 465 697 465 681 c 0,51,52
 465 678 465 678 465 677 c 2,53,-1
 465 572 l 2,54,55
 465 566 465 566 463 564 c 128,-1,56
 461 562 461 562 454 561 c 1,57,-1
 337 561 l 1,58,59
 330 562 330 562 328 564 c 128,-1,60
 326 566 326 566 326 572 c 2,61,-1
 326 690 l 2,62,63
 326 692 326 692 327 693 c 128,-1,64
 328 694 328 694 329 696 c 0,65,66
 331 699 331 699 337 699 c 2,48,-1
227 677 m 2,67,-1
 227 586 l 2,68,69
 227 583 227 583 227 577 c 128,-1,70
 227 571 227 571 226 568 c 0,71,72
 225 561 225 561 216 561 c 2,73,-1
 98 561 l 1,74,75
 88 562 88 562 88 572 c 2,76,-1
 88 686 l 2,77,78
 88 697 88 697 98 699 c 1,79,-1
 216 699 l 1,80,81
 227 697 227 697 227 680 c 0,82,83
 227 678 227 678 227 677 c 2,67,-1
EndSplineSet
EndChar

StartChar: divide
Encoding: 247 247 185
Width: 635
GlyphClass: 2
Flags: W
LayerCount: 2
Fore
SplineSet
597 207 m 1,0,-1
 38 207 l 1,1,-1
 38 307 l 1,2,-1
 597 307 l 1,3,-1
 597 207 l 1,0,-1
369 476 m 1,4,-1
 369 358 l 1,5,6
 367 347 367 347 349 347 c 0,7,8
 347 347 347 347 346 347 c 2,9,-1
 242 347 l 2,10,11
 235 347 235 347 233.5 348.5 c 128,-1,12
 232 350 232 350 231 358 c 1,13,-1
 231 476 l 1,14,15
 232 483 232 483 233.5 484.5 c 128,-1,16
 235 486 235 486 242 486 c 2,17,-1
 346 486 l 2,18,19
 353 486 353 486 360 486 c 128,-1,20
 367 486 367 486 369 476 c 1,4,-1
356 170 m 0,21,22
 369 170 369 170 369 159 c 2,23,-1
 369 42 l 1,24,25
 368 34 368 34 364.5 32.5 c 128,-1,26
 361 31 361 31 354 31 c 2,27,-1
 242 31 l 2,28,29
 235 31 235 31 233.5 33 c 128,-1,30
 232 35 232 35 231 42 c 1,31,-1
 231 159 l 1,32,33
 232 166 232 166 233.5 168 c 128,-1,34
 235 170 235 170 242 170 c 0,35,36
 299 170 299 170 356 170 c 0,21,22
EndSplineSet
EndChar

StartChar: oslash
Encoding: 248 248 186
Width: 537
GlyphClass: 2
Flags: W
LayerCount: 2
Fore
SplineSet
99 -223 m 1,0,-1
 19 -223 l 1,1,-1
 129 62 l 1,2,-1
 209 62 l 1,3,-1
 99 -223 l 1,0,-1
366 468 m 1,4,-1
 465 723 l 1,5,-1
 385 723 l 1,6,-1
 286 468 l 1,7,-1
 366 468 l 1,4,-1
236 500 m 1,8,-1
 333 500 l 2,9,10
 371 500 371 500 395 496.5 c 128,-1,11
 419 493 419 493 437 481 c 128,-1,12
 455 469 455 469 464 454.5 c 128,-1,13
 473 440 473 440 478 408 c 0,14,15
 486 363 486 363 486 282 c 128,-1,16
 486 201 486 201 485 172.5 c 128,-1,17
 484 144 484 144 481.5 112 c 128,-1,18
 479 80 479 80 472.5 65 c 128,-1,19
 466 50 466 50 455.5 34.5 c 128,-1,20
 445 19 445 19 428 13 c 0,21,22
 391 0 391 0 333 0 c 2,23,-1
 331 0 l 1,24,-1
 331 377 l 2,25,26
 331 379 331 379 331 389 c 128,-1,27
 331 399 331 399 330 406 c 0,28,29
 325 425 325 425 290 425 c 2,30,-1
 236 425 l 1,31,-1
 236 500 l 1,8,-1
206 500 m 1,32,-1
 204 500 l 2,33,34
 146 500 146 500 109 487 c 0,35,36
 92 481 92 481 81.5 465.5 c 128,-1,37
 71 450 71 450 64.5 435 c 128,-1,38
 58 420 58 420 55.5 388 c 128,-1,39
 53 356 53 356 52 327.5 c 128,-1,40
 51 299 51 299 51 218 c 128,-1,41
 51 137 51 137 58 92 c 1,42,43
 64 60 64 60 73 45.5 c 128,-1,44
 82 31 82 31 100 19 c 128,-1,45
 118 7 118 7 142 3.5 c 128,-1,46
 166 0 166 0 204 0 c 2,47,-1
 301 0 l 1,48,-1
 301 75 l 1,49,-1
 247 75 l 2,50,51
 212 75 212 75 208 94 c 0,52,53
 206 101 206 101 206 111 c 128,-1,54
 206 121 206 121 206 123 c 2,55,-1
 206 500 l 1,32,-1
EndSplineSet
EndChar

StartChar: ugrave
Encoding: 249 249 187
Width: 548
GlyphClass: 2
Flags: W
LayerCount: 2
Fore
SplineSet
56 500 m 1,0,-1
 170 500 l 2,1,2
 186 500 186 500 196 489 c 128,-1,3
 206 478 206 478 206 460 c 2,4,-1
 206 105 l 2,5,6
 206 89 206 89 213.5 82 c 128,-1,7
 221 75 221 75 247 75 c 2,8,-1
 305 75 l 1,9,-1
 305 0 l 1,10,-1
 165 0 l 2,11,12
 56 0 56 0 56 107 c 2,13,-1
 56 500 l 1,0,-1
525 7 m 2,14,15
 525 0 525 0 520 0 c 2,16,-1
 419 0 l 2,17,18
 375 0 375 0 352.5 21.5 c 128,-1,19
 330 43 330 43 330 77 c 2,20,-1
 330 500 l 1,21,-1
 444 500 l 2,22,23
 460 500 460 500 470 489 c 128,-1,24
 480 478 480 478 480 460 c 2,25,-1
 480 113 l 2,26,27
 480 82 480 82 493 78 c 0,28,29
 500 75 500 75 512 75 c 2,30,-1
 517 75 l 2,31,32
 525 75 525 75 525 68 c 2,33,-1
 525 7 l 2,14,15
250 723 m 2,34,35
 288 723 288 723 293 717 c 128,-1,36
 298 711 298 711 298 666 c 2,37,-1
 298 530 l 1,38,-1
 226 530 l 1,39,-1
 134 723 l 1,40,-1
 250 723 l 2,34,35
EndSplineSet
EndChar

StartChar: uacute
Encoding: 250 250 188
Width: 548
GlyphClass: 2
Flags: W
LayerCount: 2
Fore
SplineSet
56 500 m 1,0,-1
 170 500 l 2,1,2
 186 500 186 500 196 489 c 128,-1,3
 206 478 206 478 206 460 c 2,4,-1
 206 105 l 2,5,6
 206 89 206 89 213.5 82 c 128,-1,7
 221 75 221 75 247 75 c 2,8,-1
 305 75 l 1,9,-1
 305 0 l 1,10,-1
 165 0 l 2,11,12
 56 0 56 0 56 107 c 2,13,-1
 56 500 l 1,0,-1
525 7 m 2,14,15
 525 0 525 0 520 0 c 2,16,-1
 419 0 l 2,17,18
 375 0 375 0 352.5 21.5 c 128,-1,19
 330 43 330 43 330 77 c 2,20,-1
 330 500 l 1,21,-1
 444 500 l 2,22,23
 460 500 460 500 470 489 c 128,-1,24
 480 478 480 478 480 460 c 2,25,-1
 480 113 l 2,26,27
 480 82 480 82 493 78 c 0,28,29
 500 75 500 75 512 75 c 2,30,-1
 517 75 l 2,31,32
 525 75 525 75 525 68 c 2,33,-1
 525 7 l 2,14,15
221 530 m 1,34,-1
 221 666 l 2,35,36
 221 711 221 711 226 717 c 128,-1,37
 231 723 231 723 269 723 c 2,38,-1
 385 723 l 1,39,-1
 293 530 l 1,40,-1
 221 530 l 1,34,-1
EndSplineSet
EndChar

StartChar: ucircumflex
Encoding: 251 251 189
Width: 548
GlyphClass: 2
Flags: W
LayerCount: 2
Fore
SplineSet
56 500 m 1,0,-1
 170 500 l 2,1,2
 186 500 186 500 196 489 c 128,-1,3
 206 478 206 478 206 460 c 2,4,-1
 206 105 l 2,5,6
 206 89 206 89 213.5 82 c 128,-1,7
 221 75 221 75 247 75 c 2,8,-1
 305 75 l 1,9,-1
 305 0 l 1,10,-1
 165 0 l 2,11,12
 56 0 56 0 56 107 c 2,13,-1
 56 500 l 1,0,-1
525 7 m 2,14,15
 525 0 525 0 520 0 c 2,16,-1
 419 0 l 2,17,18
 375 0 375 0 352.5 21.5 c 128,-1,19
 330 43 330 43 330 77 c 2,20,-1
 330 500 l 1,21,-1
 444 500 l 2,22,23
 460 500 460 500 470 489 c 128,-1,24
 480 478 480 478 480 460 c 2,25,-1
 480 113 l 2,26,27
 480 82 480 82 493 78 c 0,28,29
 500 75 500 75 512 75 c 2,30,-1
 517 75 l 2,31,32
 525 75 525 75 525 68 c 2,33,-1
 525 7 l 2,14,15
205 713 m 2,34,-1
 313 713 l 2,35,36
 323 713 323 713 328 712 c 128,-1,37
 333 711 333 711 337 710.5 c 128,-1,38
 341 710 341 710 344.5 705.5 c 128,-1,39
 348 701 348 701 349.5 698 c 128,-1,40
 351 695 351 695 356 684.5 c 128,-1,41
 361 674 361 674 365 666 c 2,42,-1
 429 540 l 1,43,-1
 318 540 l 1,44,-1
 261 660 l 1,45,-1
 204 540 l 1,46,-1
 92 540 l 1,47,-1
 168 681 l 2,48,49
 182 708 182 708 187 710 c 0,50,51
 193 713 193 713 205 713 c 2,34,-1
EndSplineSet
EndChar

StartChar: udieresis
Encoding: 252 252 190
Width: 548
GlyphClass: 2
Flags: W
LayerCount: 2
Fore
SplineSet
56 500 m 1,0,-1
 170 500 l 2,1,2
 186 500 186 500 196 489 c 128,-1,3
 206 478 206 478 206 460 c 2,4,-1
 206 105 l 2,5,6
 206 89 206 89 213.5 82 c 128,-1,7
 221 75 221 75 247 75 c 2,8,-1
 305 75 l 1,9,-1
 305 0 l 1,10,-1
 165 0 l 2,11,12
 56 0 56 0 56 107 c 2,13,-1
 56 500 l 1,0,-1
525 7 m 2,14,15
 525 0 525 0 520 0 c 2,16,-1
 419 0 l 2,17,18
 375 0 375 0 352.5 21.5 c 128,-1,19
 330 43 330 43 330 77 c 2,20,-1
 330 500 l 1,21,-1
 444 500 l 2,22,23
 460 500 460 500 470 489 c 128,-1,24
 480 478 480 478 480 460 c 2,25,-1
 480 113 l 2,26,27
 480 82 480 82 493 78 c 0,28,29
 500 75 500 75 512 75 c 2,30,-1
 517 75 l 2,31,32
 525 75 525 75 525 68 c 2,33,-1
 525 7 l 2,14,15
322 699 m 2,34,-1
 439 699 l 1,35,36
 450 697 450 697 450 681 c 0,37,38
 450 678 450 678 450 677 c 2,39,-1
 450 572 l 2,40,41
 450 566 450 566 448 564 c 128,-1,42
 446 562 446 562 439 561 c 1,43,-1
 322 561 l 1,44,45
 315 562 315 562 313 564 c 128,-1,46
 311 566 311 566 311 572 c 2,47,-1
 311 690 l 2,48,49
 311 692 311 692 312 693 c 128,-1,50
 313 694 313 694 314 696 c 0,51,52
 316 699 316 699 322 699 c 2,34,-1
212 677 m 2,53,-1
 212 586 l 2,54,55
 212 583 212 583 212 577 c 128,-1,56
 212 571 212 571 212 568 c 0,57,58
 210 561 210 561 201 561 c 2,59,-1
 83 561 l 1,60,61
 73 562 73 562 73 572 c 2,62,-1
 73 686 l 2,63,64
 73 697 73 697 83 699 c 1,65,-1
 201 699 l 1,66,67
 212 697 212 697 212 680 c 0,68,69
 212 678 212 678 212 677 c 2,53,-1
EndSplineSet
EndChar

StartChar: yacute
Encoding: 253 253 191
Width: 538
GlyphClass: 2
Flags: W
LayerCount: 2
Fore
SplineSet
56 500 m 1,0,-1
 170 500 l 2,1,2
 186 500 186 500 196 489 c 128,-1,3
 206 478 206 478 206 460 c 2,4,-1
 206 105 l 2,5,6
 206 89 206 89 213.5 82 c 128,-1,7
 221 75 221 75 247 75 c 2,8,-1
 301 75 l 1,9,-1
 301 0 l 1,10,-1
 165 0 l 2,11,12
 56 0 56 0 56 107 c 2,13,-1
 56 500 l 1,0,-1
216 -64 m 1,14,-1
 216 -117 l 2,15,16
 216 -134 216 -134 221 -140.5 c 128,-1,17
 226 -147 226 -147 247 -147 c 2,18,-1
 301 -147 l 1,19,-1
 301 -222 l 1,20,-1
 175 -222 l 2,21,22
 66 -222 66 -222 66 -115 c 2,23,-1
 66 -85 l 2,24,25
 66 -70 66 -70 69.5 -68 c 128,-1,26
 73 -66 73 -66 74 -65.5 c 128,-1,27
 75 -65 75 -65 79.5 -64.5 c 128,-1,28
 84 -64 84 -64 86 -64 c 0,29,30
 151 -64 151 -64 216 -64 c 1,14,-1
331 500 m 1,31,-1
 392 500 l 2,32,33
 436 500 436 500 458.5 478.5 c 128,-1,34
 481 457 481 457 481 423 c 2,35,-1
 481 -146 l 2,36,37
 481 -180 481 -180 458.5 -201.5 c 128,-1,38
 436 -223 436 -223 392 -223 c 2,39,-1
 331 -223 l 1,40,-1
 331 500 l 1,31,-1
219 530 m 1,41,-1
 219 666 l 2,42,43
 219 711 219 711 224 717 c 128,-1,44
 229 723 229 723 267 723 c 2,45,-1
 383 723 l 1,46,-1
 291 530 l 1,47,-1
 219 530 l 1,41,-1
EndSplineSet
EndChar

StartChar: thorn
Encoding: 254 254 192
Width: 539
GlyphClass: 2
Flags: W
LayerCount: 2
Fore
SplineSet
208 -223 m 1,0,-1
 147 -223 l 2,1,2
 103 -223 103 -223 80.5 -201.5 c 128,-1,3
 58 -180 58 -180 58 -146 c 2,4,-1
 58 646 l 2,5,6
 58 680 58 680 80.5 701.5 c 128,-1,7
 103 723 103 723 147 723 c 2,8,-1
 208 723 l 1,9,-1
 208 -223 l 1,0,-1
238 500 m 1,10,-1
 335 500 l 2,11,12
 434 500 434 500 458 466 c 1,13,14
 468 450 468 450 474.5 435 c 128,-1,15
 481 420 481 420 484 388 c 0,16,17
 488 330 488 330 488 259 c 128,-1,18
 488 188 488 188 487 156.5 c 128,-1,19
 486 125 486 125 480.5 92.5 c 128,-1,20
 475 60 475 60 466 45.5 c 128,-1,21
 457 31 457 31 439 19 c 128,-1,22
 421 7 421 7 397 3.5 c 128,-1,23
 373 0 373 0 335 0 c 2,24,-1
 238 0 l 1,25,-1
 238 75 l 1,26,-1
 292 75 l 2,27,28
 318 75 318 75 325.5 82 c 128,-1,29
 333 89 333 89 333 104 c 2,30,-1
 333 395 l 2,31,32
 333 411 333 411 325.5 418 c 128,-1,33
 318 425 318 425 292 425 c 2,34,-1
 238 425 l 1,35,-1
 238 500 l 1,10,-1
EndSplineSet
EndChar

StartChar: ydieresis
Encoding: 255 255 193
Width: 538
GlyphClass: 2
Flags: W
LayerCount: 2
Fore
SplineSet
56 500 m 1,0,-1
 170 500 l 2,1,2
 186 500 186 500 196 489 c 128,-1,3
 206 478 206 478 206 460 c 2,4,-1
 206 105 l 2,5,6
 206 89 206 89 213.5 82 c 128,-1,7
 221 75 221 75 247 75 c 2,8,-1
 301 75 l 1,9,-1
 301 0 l 1,10,-1
 165 0 l 2,11,12
 56 0 56 0 56 107 c 2,13,-1
 56 500 l 1,0,-1
216 -64 m 1,14,-1
 216 -117 l 2,15,16
 216 -134 216 -134 221 -140.5 c 128,-1,17
 226 -147 226 -147 247 -147 c 2,18,-1
 301 -147 l 1,19,-1
 301 -222 l 1,20,-1
 175 -222 l 2,21,22
 66 -222 66 -222 66 -115 c 2,23,-1
 66 -85 l 2,24,25
 66 -70 66 -70 69.5 -68 c 128,-1,26
 73 -66 73 -66 74 -65.5 c 128,-1,27
 75 -65 75 -65 79.5 -64.5 c 128,-1,28
 84 -64 84 -64 86 -64 c 0,29,30
 151 -64 151 -64 216 -64 c 1,14,-1
331 500 m 1,31,-1
 392 500 l 2,32,33
 436 500 436 500 458.5 478.5 c 128,-1,34
 481 457 481 457 481 423 c 2,35,-1
 481 -146 l 2,36,37
 481 -180 481 -180 458.5 -201.5 c 128,-1,38
 436 -223 436 -223 392 -223 c 2,39,-1
 331 -223 l 1,40,-1
 331 500 l 1,31,-1
320 699 m 2,41,-1
 437 699 l 1,42,43
 448 697 448 697 448 681 c 0,44,45
 448 678 448 678 448 677 c 2,46,-1
 448 572 l 2,47,48
 448 566 448 566 446 564 c 128,-1,49
 444 562 444 562 437 561 c 1,50,-1
 320 561 l 1,51,52
 313 562 313 562 311 564 c 128,-1,53
 309 566 309 566 309 572 c 2,54,-1
 309 690 l 2,55,56
 309 692 309 692 310 693 c 128,-1,57
 311 694 311 694 312 696 c 0,58,59
 314 699 314 699 320 699 c 2,41,-1
210 677 m 2,60,-1
 210 586 l 2,61,62
 210 583 210 583 210 577 c 128,-1,63
 210 571 210 571 210 568 c 0,64,65
 208 561 208 561 199 561 c 2,66,-1
 81 561 l 1,67,68
 71 562 71 562 71 572 c 2,69,-1
 71 686 l 2,70,71
 71 697 71 697 81 699 c 1,72,-1
 199 699 l 1,73,74
 210 697 210 697 210 680 c 0,75,76
 210 678 210 678 210 677 c 2,60,-1
EndSplineSet
EndChar

StartChar: dotlessi
Encoding: 305 305 194
Width: 265
GlyphClass: 2
Flags: W
LayerCount: 2
Fore
SplineSet
58 499 m 1,0,-1
 119 499 l 2,1,2
 163 499 163 499 185.5 477.5 c 128,-1,3
 208 456 208 456 208 422 c 2,4,-1
 208 0 l 1,5,-1
 94 0 l 2,6,7
 78 0 78 0 68 11 c 128,-1,8
 58 22 58 22 58 40 c 2,9,-1
 58 499 l 1,0,-1
EndSplineSet
EndChar

StartChar: IJ
Encoding: 306 306 195
Width: 561
GlyphClass: 2
Flags: W
LayerCount: 2
Fore
SplineSet
329 723 m 1,0,-1
 434 723 l 2,1,2
 468 723 468 723 478.5 712 c 128,-1,3
 489 701 489 701 489 666 c 2,4,-1
 489 -166 l 2,5,6
 489 -201 489 -201 478.5 -212 c 128,-1,7
 468 -223 468 -223 434 -223 c 2,8,-1
 329 -223 l 1,9,-1
 329 723 l 1,0,-1
98 -51 m 2,10,-1
 204 -51 l 2,11,12
 218 -51 218 -51 221 -55 c 128,-1,13
 224 -59 224 -59 224 -72 c 2,14,-1
 224 -99 l 2,15,16
 224 -115 224 -115 228.5 -121.5 c 128,-1,17
 233 -128 233 -128 251 -128 c 2,18,-1
 299 -128 l 1,19,-1
 299 -223 l 1,20,-1
 212 -223 l 2,21,22
 139 -223 139 -223 101.5 -199.5 c 128,-1,23
 64 -176 64 -176 64 -121 c 2,24,-1
 64 -82 l 2,25,26
 64 -63 64 -63 71 -57 c 128,-1,27
 78 -51 78 -51 98 -51 c 2,10,-1
231 0 m 1,28,-1
 126 0 l 2,29,30
 92 0 92 0 81.5 11 c 128,-1,31
 71 22 71 22 71 57 c 2,32,-1
 71 666 l 2,33,34
 71 701 71 701 81.5 712 c 128,-1,35
 92 723 92 723 126 723 c 2,36,-1
 231 723 l 1,37,-1
 231 0 l 1,28,-1
EndSplineSet
EndChar

